<svg width="171" height="171" viewBox="0 0 171 171" fill="none" xmlns="http://www.w3.org/2000/svg">
<g id="Icon 2">
<rect width="170" height="170" transform="translate(0.199707 0.414307)" fill="white"/>
<path id="Vector" d="M131.984 45.1325C131.954 44.5912 131.768 44.0701 131.449 43.6319C131.13 43.1938 130.69 42.8574 130.184 42.6632L85.7515 25.6016C85.1024 25.3519 84.3839 25.3519 83.7349 25.6016L39.3022 42.6673C38.796 42.8615 38.3568 43.1979 38.0374 43.636C37.7181 44.0742 37.5323 44.5953 37.5023 45.1366C36.2183 67.5128 35.5982 87.458 41.0348 104.894C47.429 125.422 61.4698 138.642 83.9434 145.299C84.4655 145.453 85.0208 145.453 85.5429 145.299C108.016 138.642 122.057 125.422 128.451 104.894C133.888 87.458 133.268 67.5128 131.984 45.1325ZM123.081 103.225C117.279 121.835 105.085 133.428 84.7432 139.665C64.4015 133.428 52.2071 121.835 46.4056 103.225C41.3915 87.1452 41.836 68.3523 43.0158 47.2671L84.7432 31.2385L126.471 47.2671C127.65 68.3523 128.093 87.1452 123.081 103.225ZM111.198 65.9201C111.725 66.4479 112.021 67.1633 112.021 67.9092C112.021 68.6552 111.725 69.3706 111.198 69.8984L82.4673 98.6276C82.2063 98.8892 81.8962 99.0968 81.5549 99.2384C81.2136 99.3801 80.8476 99.453 80.4781 99.453C80.1085 99.453 79.7426 99.3801 79.4013 99.2384C79.0599 99.0968 78.7499 98.8892 78.4889 98.6276L63.2615 83.4001C62.7339 82.8725 62.4375 82.157 62.4375 81.4109C62.4375 80.6648 62.7339 79.9493 63.2615 79.4218C63.789 78.8942 64.5045 78.5978 65.2506 78.5978C65.9967 78.5978 66.7122 78.8942 67.2398 79.4218L80.4822 92.6642L107.219 65.9201C107.747 65.393 108.463 65.0969 109.209 65.0969C109.955 65.0969 110.67 65.393 111.198 65.9201Z" fill="#F04E2A"/>
</g>
</svg>
