<svg width="171" height="171" viewBox="0 0 171 171" fill="none" xmlns="http://www.w3.org/2000/svg">
<g id="Icon 4">
<rect width="170" height="170" transform="translate(0.799805 0.414307)" fill="white"/>
<path id="Vector" d="M29.8968 48.54L32.7389 45.6979L45.7267 58.6872L41.7115 62.7022C41.2615 63.1522 41.0084 63.7627 41.0084 64.3992C41.0084 65.0354 41.2615 65.6459 41.7115 66.0959L90.9585 115.343C94.9153 119.3 100.301 120.889 105.466 120.262L108.049 122.843C110.076 124.871 112.774 125.989 115.643 125.989C117.689 125.989 119.636 125.397 121.327 124.335L141.703 144.711C142.64 145.649 144.159 145.649 145.097 144.711C146.034 143.774 146.034 142.255 145.097 141.317L124.724 120.944C125.791 119.251 126.384 117.299 126.384 115.248C126.384 112.379 125.266 109.682 123.237 107.654L120.648 105.065C121.27 99.9049 119.681 94.5246 115.73 90.5729L66.4826 41.326C66.0139 40.8572 65.3997 40.623 64.7858 40.623C64.1717 40.623 63.5576 40.8572 63.0888 41.326L59.0732 45.3413L46.0843 32.3524L48.9256 29.5112C49.863 28.5738 49.863 27.0549 48.9256 26.1175C48.4569 25.6487 47.8427 25.4143 47.2288 25.4143C46.6147 25.4143 46.0006 25.6487 45.5318 26.1175L26.503 45.1463C25.5654 46.0839 25.5654 47.6026 26.503 48.54C27.4405 49.4776 28.9591 49.4776 29.8968 48.54ZM119.843 111.048C120.965 112.171 121.584 113.661 121.584 115.248C121.584 116.836 120.965 118.326 119.843 119.449C119.844 119.448 119.842 119.45 119.843 119.449C119.842 119.45 119.839 119.452 119.838 119.453C119.838 119.452 119.838 119.453 119.838 119.453C117.592 121.693 113.687 121.694 111.443 119.448L110.752 118.757C112.546 117.919 114.25 116.822 115.73 115.343C117.212 113.86 118.31 112.152 119.149 110.354L119.843 111.048ZM64.7858 46.4167L112.336 93.9667C117.293 98.9249 117.293 106.991 112.336 111.949C109.856 114.428 106.601 115.666 103.343 115.666C100.087 115.666 96.8318 114.428 94.3522 111.949L46.8022 64.3992L53.223 57.9788L60.7709 50.4327C60.772 50.4316 60.7725 50.4298 60.7736 50.4287L64.7858 46.4167ZM49.8172 54.5969L49.1202 55.2937L36.1334 42.3045L42.6911 35.7467L55.6794 48.7348L49.8172 54.5969Z" fill="#F04E2A"/>
</g>
</svg>
