<svg width="82" height="132" viewBox="0 0 82 132" fill="none" xmlns="http://www.w3.org/2000/svg">
<rect x="3.52295" y="62.876" width="75.0302" height="40.974" fill="#D5D13C"/>
<path d="M25.1871 76.4575C25.1871 77.0015 25.0964 77.48 24.9151 77.893C24.7438 78.3061 24.5071 78.6587 24.2049 78.9508C23.9027 79.2329 23.545 79.4445 23.132 79.5855C22.729 79.7366 22.2908 79.8122 21.8173 79.8122C20.9409 79.8122 20.1904 79.5905 19.5658 79.1473C18.9412 78.6939 18.5281 78.0089 18.3267 77.0922L20.4573 76.5482C20.5379 76.9007 20.679 77.1879 20.8804 77.4095C21.0819 77.6311 21.359 77.7419 21.7115 77.7419C21.903 77.7419 22.0692 77.7016 22.2102 77.621C22.3513 77.5405 22.4671 77.4347 22.5578 77.3037C22.6585 77.1727 22.729 77.0267 22.7693 76.8655C22.8197 76.6942 22.8449 76.523 22.8449 76.3517C22.8449 75.8883 22.7089 75.5458 22.4369 75.3242C22.175 75.1025 21.8224 74.9917 21.3791 74.9917H20.8351V73.2086H21.4395C21.8425 73.2086 22.1498 73.0927 22.3613 72.861C22.583 72.6193 22.6938 72.2868 22.6938 71.8637C22.6938 71.5917 22.6132 71.3348 22.452 71.093C22.3009 70.8513 22.0541 70.7304 21.7115 70.7304C21.4194 70.7304 21.1927 70.8261 21.0315 71.0175C20.8704 71.2089 20.7495 71.4507 20.6689 71.7428L18.5987 71.229C18.7195 70.7656 18.8908 70.3727 19.1124 70.0504C19.3441 69.728 19.601 69.4661 19.8831 69.2646C20.1753 69.053 20.4926 68.9019 20.8351 68.8113C21.1776 68.7105 21.5252 68.6602 21.8778 68.6602C22.2707 68.6602 22.6484 68.7206 23.0111 68.8415C23.3838 68.9624 23.7163 69.1437 24.0084 69.3855C24.3006 69.6273 24.5323 69.9295 24.7035 70.2922C24.8849 70.6548 24.9755 71.0779 24.9755 71.5615C24.9755 72.1861 24.8395 72.715 24.5675 73.1482C24.3056 73.5713 23.953 73.8533 23.5098 73.9944V74.0397C24.0235 74.1807 24.4315 74.4729 24.7338 74.9162C25.036 75.3594 25.1871 75.8732 25.1871 76.4575Z" fill="white"/>
<path d="M33.353 74.2362C33.353 74.8406 33.3026 75.4702 33.2019 76.125C33.1112 76.7799 32.9349 77.3843 32.673 77.9384C32.4212 78.4824 32.0635 78.9307 31.6001 79.2833C31.1468 79.6359 30.5575 79.8122 29.8321 79.8122C29.1068 79.8122 28.5124 79.6359 28.049 79.2833C27.5957 78.9307 27.238 78.4824 26.9761 77.9384C26.7243 77.3843 26.553 76.7799 26.4623 76.125C26.3717 75.4702 26.3263 74.8406 26.3263 74.2362C26.3263 73.6317 26.3717 73.0021 26.4623 72.3473C26.553 71.6925 26.7243 71.093 26.9761 70.549C27.238 69.995 27.5957 69.5416 28.049 69.189C28.5124 68.8365 29.1068 68.6602 29.8321 68.6602C30.5575 68.6602 31.1468 68.8365 31.6001 69.189C32.0635 69.5416 32.4212 69.995 32.673 70.549C32.9349 71.093 33.1112 71.6925 33.2019 72.3473C33.3026 73.0021 33.353 73.6317 33.353 74.2362ZM30.9352 74.2362C30.9352 73.8836 30.9201 73.5058 30.8899 73.1028C30.8697 72.6999 30.8194 72.3271 30.7388 71.9846C30.6582 71.6421 30.5474 71.36 30.4063 71.1384C30.2653 70.9067 30.0739 70.7908 29.8321 70.7908C29.5903 70.7908 29.3989 70.9067 29.2579 71.1384C29.1169 71.36 29.006 71.6421 28.9255 71.9846C28.8449 72.3271 28.7894 72.6999 28.7592 73.1028C28.7391 73.5058 28.729 73.8836 28.729 74.2362C28.729 74.5988 28.7391 74.9816 28.7592 75.3846C28.7894 75.7876 28.8449 76.1603 28.9255 76.5028C29.006 76.8353 29.1169 77.1173 29.2579 77.349C29.3989 77.5707 29.5903 77.6815 29.8321 77.6815C30.0739 77.6815 30.2653 77.5707 30.4063 77.349C30.5474 77.1173 30.6582 76.8353 30.7388 76.5028C30.8194 76.1603 30.8697 75.7876 30.8899 75.3846C30.9201 74.9816 30.9352 74.5988 30.9352 74.2362Z" fill="white"/>
<path d="M41.2922 74.2362C41.2922 74.8406 41.2419 75.4702 41.1411 76.125C41.0505 76.7799 40.8742 77.3843 40.6122 77.9384C40.3604 78.4824 40.0028 78.9307 39.5394 79.2833C39.086 79.6359 38.4967 79.8122 37.7714 79.8122C37.046 79.8122 36.4516 79.6359 35.9882 79.2833C35.5349 78.9307 35.1773 78.4824 34.9154 77.9384C34.6635 77.3843 34.4922 76.7799 34.4016 76.125C34.3109 75.4702 34.2656 74.8406 34.2656 74.2362C34.2656 73.6317 34.3109 73.0021 34.4016 72.3473C34.4922 71.6925 34.6635 71.093 34.9154 70.549C35.1773 69.995 35.5349 69.5416 35.9882 69.189C36.4516 68.8365 37.046 68.6602 37.7714 68.6602C38.4967 68.6602 39.086 68.8365 39.5394 69.189C40.0028 69.5416 40.3604 69.995 40.6122 70.549C40.8742 71.093 41.0505 71.6925 41.1411 72.3473C41.2419 73.0021 41.2922 73.6317 41.2922 74.2362ZM38.8745 74.2362C38.8745 73.8836 38.8594 73.5058 38.8291 73.1028C38.809 72.6999 38.7586 72.3271 38.678 71.9846C38.5974 71.6421 38.4866 71.36 38.3456 71.1384C38.2045 70.9067 38.0131 70.7908 37.7714 70.7908C37.5296 70.7908 37.3382 70.9067 37.1971 71.1384C37.0561 71.36 36.9453 71.6421 36.8647 71.9846C36.7841 72.3271 36.7287 72.6999 36.6985 73.1028C36.6783 73.5058 36.6682 73.8836 36.6682 74.2362C36.6682 74.5988 36.6783 74.9816 36.6985 75.3846C36.7287 75.7876 36.7841 76.1603 36.8647 76.5028C36.9453 76.8353 37.0561 77.1173 37.1971 77.349C37.3382 77.5707 37.5296 77.6815 37.7714 77.6815C38.0131 77.6815 38.2045 77.5707 38.3456 77.349C38.4866 77.1173 38.5974 76.8353 38.678 76.5028C38.7586 76.1603 38.809 75.7876 38.8291 75.3846C38.8594 74.9816 38.8745 74.5988 38.8745 74.2362Z" fill="white"/>
<path d="M48.0255 71.6824V72.8006H48.0558C48.1565 72.4178 48.3681 72.0904 48.6904 71.8184C49.0128 71.5363 49.4258 71.3953 49.9295 71.3953C50.4937 71.3953 50.9118 71.5313 51.1838 71.8033C51.4658 72.0753 51.6623 72.4077 51.7731 72.8006H51.8033C51.8738 72.6193 51.9645 72.448 52.0753 72.2868C52.1962 72.1156 52.3372 71.9645 52.4984 71.8335C52.6697 71.7025 52.8611 71.5967 53.0727 71.5162C53.2943 71.4356 53.5411 71.3953 53.8131 71.3953C54.2664 71.3953 54.6341 71.491 54.9162 71.6824C55.1983 71.8637 55.4149 72.1105 55.566 72.4228C55.7171 72.7351 55.8178 73.0927 55.8682 73.4957C55.9286 73.8987 55.9589 74.3167 55.9589 74.7499V79.5855H53.6166V74.7348C53.6166 74.4024 53.5663 74.1102 53.4655 73.8584C53.3648 73.6065 53.1734 73.4806 52.8913 73.4806C52.5992 73.4806 52.3725 73.6166 52.2113 73.8886C52.0602 74.1505 51.9846 74.4981 51.9846 74.9313V79.5855H49.6575V74.7348C49.6575 74.4024 49.6072 74.1102 49.5064 73.8584C49.4158 73.6065 49.2294 73.4806 48.9473 73.4806C48.6552 73.4806 48.4285 73.6166 48.2673 73.8886C48.1162 74.1505 48.0407 74.4981 48.0407 74.9313V79.5855H45.7135V71.6824H48.0255Z" fill="white"/>
<path d="M63.8302 71.6824V79.0264C63.8302 80.3763 63.5482 81.4089 62.984 82.1242C62.4199 82.8495 61.5233 83.2122 60.2942 83.2122C59.7402 83.2122 59.2012 83.1114 58.6773 82.9099C58.1535 82.7185 57.7203 82.4767 57.3778 82.1846L58.4809 80.4317C58.7126 80.6332 58.9644 80.7994 59.2364 80.9304C59.5185 81.0613 59.8207 81.1268 60.1431 81.1268C60.6367 81.1268 60.9893 80.9556 61.2009 80.613C61.4225 80.2705 61.5333 79.8424 61.5333 79.3286V78.6788H61.5031C61.3923 78.9407 61.1908 79.1775 60.8987 79.389C60.6065 79.5905 60.269 79.6913 59.8862 79.6913C59.453 79.6913 59.0702 79.5905 58.7378 79.389C58.4154 79.1775 58.1434 78.8904 57.9218 78.5277C57.7001 78.155 57.5339 77.7218 57.4231 77.2282C57.3123 76.7245 57.2569 76.1855 57.2569 75.6113C57.2569 75.0068 57.3123 74.4527 57.4231 73.949C57.544 73.4353 57.7153 72.997 57.9369 72.6344C58.1686 72.2616 58.4456 71.9695 58.768 71.7579C59.0904 71.5464 59.4631 71.4406 59.8862 71.4406C60.3396 71.4406 60.6922 71.5514 60.944 71.773C61.2059 71.9947 61.3973 72.2767 61.5182 72.6193H61.5636V71.6824H63.8302ZM61.6089 75.6264C61.6089 75.3242 61.5887 75.0471 61.5484 74.7953C61.5082 74.5333 61.4427 74.3067 61.352 74.1153C61.2714 73.9138 61.1656 73.7576 61.0347 73.6468C60.9138 73.536 60.7677 73.4806 60.5964 73.4806C60.4151 73.4806 60.259 73.536 60.128 73.6468C60.0071 73.7576 59.9064 73.9138 59.8258 74.1153C59.7452 74.3067 59.6847 74.5333 59.6444 74.7953C59.6042 75.0471 59.584 75.3242 59.584 75.6264C59.584 75.9185 59.6042 76.1956 59.6444 76.4575C59.6847 76.7194 59.7452 76.9511 59.8258 77.1526C59.9064 77.344 60.0071 77.4951 60.128 77.6059C60.259 77.7167 60.4151 77.7722 60.5964 77.7722C60.7677 77.7722 60.9138 77.7167 61.0347 77.6059C61.1656 77.4951 61.2714 77.344 61.352 77.1526C61.4427 76.9511 61.5082 76.7194 61.5484 76.4575C61.5887 76.1956 61.6089 75.9185 61.6089 75.6264Z" fill="white"/>
<path d="M34.888 88.8335C34.888 89.1861 34.8427 89.5135 34.752 89.8157C34.6614 90.1179 34.5405 90.405 34.3894 90.677C34.2382 90.949 34.067 91.211 33.8756 91.4628C33.6842 91.7147 33.4877 91.9564 33.2862 92.1882L31.2916 94.5002H34.752V96.5855H28.4205V94.4397L31.6694 90.7073C31.9313 90.405 32.1378 90.0978 32.2889 89.7855C32.44 89.4631 32.5156 89.1559 32.5156 88.8637C32.5156 88.5514 32.44 88.2845 32.2889 88.0628C32.1479 87.8412 31.9212 87.7304 31.6089 87.7304C31.3168 87.7304 31.075 87.8513 30.8836 88.093C30.6922 88.3247 30.5763 88.6673 30.536 89.1206L28.2694 88.909C28.3902 87.821 28.7579 87.0101 29.3725 86.4762C29.9971 85.9322 30.7677 85.6602 31.6845 85.6602C32.1781 85.6602 32.6214 85.7357 33.0142 85.8868C33.4071 86.0379 33.7396 86.2495 34.0116 86.5215C34.2937 86.7935 34.5102 87.1259 34.6614 87.5188C34.8125 87.9117 34.888 88.3499 34.888 88.8335Z" fill="white"/>
<path d="M41.9235 88.6824V89.8006H41.9538C42.0545 89.4178 42.2661 89.0904 42.5884 88.8184C42.9108 88.5363 43.3238 88.3953 43.8275 88.3953C44.3917 88.3953 44.8098 88.5313 45.0818 88.8033C45.3638 89.0753 45.5603 89.4077 45.6711 89.8006H45.7013C45.7718 89.6193 45.8625 89.448 45.9733 89.2868C46.0942 89.1156 46.2352 88.9645 46.3964 88.8335C46.5677 88.7025 46.7591 88.5967 46.9707 88.5162C47.1923 88.4356 47.4391 88.3953 47.7111 88.3953C48.1644 88.3953 48.5321 88.491 48.8142 88.6824C49.0963 88.8637 49.3129 89.1105 49.464 89.4228C49.6151 89.7351 49.7158 90.0927 49.7662 90.4957C49.8267 90.8987 49.8569 91.3167 49.8569 91.7499V96.5855H47.5147V91.7348C47.5147 91.4024 47.4643 91.1102 47.3635 90.8584C47.2628 90.6065 47.0714 90.4806 46.7893 90.4806C46.4972 90.4806 46.2705 90.6166 46.1093 90.8886C45.9582 91.1505 45.8827 91.4981 45.8827 91.9313V96.5855H43.5555V91.7348C43.5555 91.4024 43.5052 91.1102 43.4044 90.8584C43.3138 90.6065 43.1274 90.4806 42.8453 90.4806C42.5532 90.4806 42.3265 90.6166 42.1653 90.8886C42.0142 91.1505 41.9387 91.4981 41.9387 91.9313V96.5855H39.6115V88.6824H41.9235Z" fill="white"/>
<path d="M51.6385 96.5855V85.1615H54.0562V96.5855H51.6385Z" fill="white"/>
<path fill-rule="evenodd" clip-rule="evenodd" d="M65.888 36.8424H15.5177L15.5177 25.0547H11.1103V36.9377C4.88999 37.7045 0.0742188 43.0073 0.0742188 49.435V118.694C0.0742188 125.649 5.71211 131.287 12.6668 131.287H69.3335C76.2882 131.287 81.9261 125.649 81.9261 118.694V49.435C81.9261 42.804 76.8007 37.37 70.2954 36.8786V25.0547H65.888V36.8424ZM69.3335 41.2498H12.6668C8.14626 41.2498 4.48163 44.9145 4.48163 49.435V118.694C4.48163 123.215 8.14626 126.879 12.6668 126.879H69.3335C73.854 126.879 77.5187 123.215 77.5187 118.694V49.435C77.5187 44.9145 73.854 41.2498 69.3335 41.2498Z" fill="black"/>
<path fill-rule="evenodd" clip-rule="evenodd" d="M12.6669 26.1387C9.18955 26.1387 6.37061 23.3197 6.37061 19.8424V7.24978C6.37061 3.77243 9.18955 0.953485 12.6669 0.953485H69.3336C72.8109 0.953485 75.6299 3.77243 75.6299 7.24978V19.8424C75.6299 23.3197 72.8109 26.1387 69.3336 26.1387H12.6669Z" fill="#D5D13C"/>
</svg>
