<svg width="82" height="132" viewBox="0 0 82 132" fill="none" xmlns="http://www.w3.org/2000/svg">
<rect x="3.52295" y="62.876" width="75.0302" height="40.974" fill="#995630"/>
<path d="M21.3036 79.5855V71.6975L19.7018 72.9064L18.6289 71.0326L21.5605 68.8868H23.676V79.5855H21.3036Z" fill="white"/>
<path d="M33.0659 76.0344C33.0659 76.669 32.9753 77.2231 32.7939 77.6966C32.6227 78.16 32.3809 78.5529 32.0686 78.8753C31.7664 79.1876 31.4087 79.4243 30.9957 79.5855C30.5827 79.7366 30.1444 79.8122 29.681 79.8122C28.865 79.8122 28.1548 79.5855 27.5504 79.1322C26.9459 78.6788 26.548 77.9938 26.3566 77.077L28.4268 76.4273C28.5074 76.7799 28.6434 77.0821 28.8348 77.3339C29.0363 77.5858 29.2982 77.7117 29.6206 77.7117C29.9933 77.7117 30.2704 77.5606 30.4517 77.2584C30.6431 76.9461 30.7388 76.5633 30.7388 76.1099C30.7388 75.5559 30.5827 75.1479 30.2704 74.8859C29.9681 74.624 29.6004 74.493 29.1673 74.493C28.855 74.493 28.4923 74.5434 28.0793 74.6442C27.6763 74.7348 27.3287 74.8406 27.0366 74.9615L27.2633 68.8868H32.6881V70.9873H29.2881L29.2126 72.8308C29.3335 72.7805 29.4695 72.7402 29.6206 72.7099C29.7818 72.6797 29.9178 72.6646 30.0286 72.6646C30.5121 72.6646 30.9403 72.7452 31.313 72.9064C31.6958 73.0676 32.0132 73.2942 32.265 73.5864C32.527 73.8785 32.7234 74.2311 32.8544 74.6442C32.9954 75.0572 33.0659 75.5206 33.0659 76.0344Z" fill="white"/>
<path d="M41.2923 74.2362C41.2923 74.8406 41.2419 75.4702 41.1412 76.125C41.0505 76.7799 40.8742 77.3843 40.6123 77.9384C40.3604 78.4824 40.0028 78.9307 39.5394 79.2833C39.086 79.6359 38.4967 79.8122 37.7714 79.8122C37.046 79.8122 36.4517 79.6359 35.9883 79.2833C35.5349 78.9307 35.1773 78.4824 34.9154 77.9384C34.6635 77.3843 34.4923 76.7799 34.4016 76.125C34.3109 75.4702 34.2656 74.8406 34.2656 74.2362C34.2656 73.6317 34.3109 73.0021 34.4016 72.3473C34.4923 71.6925 34.6635 71.093 34.9154 70.549C35.1773 69.995 35.5349 69.5416 35.9883 69.189C36.4517 68.8365 37.046 68.6602 37.7714 68.6602C38.4967 68.6602 39.086 68.8365 39.5394 69.189C40.0028 69.5416 40.3604 69.995 40.6123 70.549C40.8742 71.093 41.0505 71.6925 41.1412 72.3473C41.2419 73.0021 41.2923 73.6317 41.2923 74.2362ZM38.8745 74.2362C38.8745 73.8836 38.8594 73.5058 38.8292 73.1028C38.809 72.6999 38.7586 72.3271 38.678 71.9846C38.5975 71.6421 38.4866 71.36 38.3456 71.1384C38.2046 70.9067 38.0132 70.7908 37.7714 70.7908C37.5296 70.7908 37.3382 70.9067 37.1972 71.1384C37.0561 71.36 36.9453 71.6421 36.8647 71.9846C36.7841 72.3271 36.7287 72.6999 36.6985 73.1028C36.6783 73.5058 36.6683 73.8836 36.6683 74.2362C36.6683 74.5988 36.6783 74.9816 36.6985 75.3846C36.7287 75.7876 36.7841 76.1603 36.8647 76.5028C36.9453 76.8353 37.0561 77.1173 37.1972 77.349C37.3382 77.5707 37.5296 77.6815 37.7714 77.6815C38.0132 77.6815 38.2046 77.5707 38.3456 77.349C38.4866 77.1173 38.5975 76.8353 38.678 76.5028C38.7586 76.1603 38.809 75.7876 38.8292 75.3846C38.8594 74.9816 38.8745 74.5988 38.8745 74.2362Z" fill="white"/>
<path d="M48.0256 71.6824V72.8006H48.0558C48.1565 72.4178 48.3681 72.0904 48.6905 71.8184C49.0128 71.5363 49.4259 71.3953 49.9296 71.3953C50.4937 71.3953 50.9118 71.5313 51.1838 71.8033C51.4659 72.0753 51.6623 72.4077 51.7731 72.8006H51.8033C51.8739 72.6193 51.9645 72.448 52.0753 72.2868C52.1962 72.1156 52.3373 71.9645 52.4985 71.8335C52.6697 71.7025 52.8611 71.5967 53.0727 71.5162C53.2943 71.4356 53.5411 71.3953 53.8131 71.3953C54.2665 71.3953 54.6342 71.491 54.9162 71.6824C55.1983 71.8637 55.4149 72.1105 55.566 72.4228C55.7171 72.7351 55.8179 73.0927 55.8682 73.4957C55.9287 73.8987 55.9589 74.3167 55.9589 74.7499V79.5855H53.6167V74.7348C53.6167 74.4024 53.5663 74.1102 53.4656 73.8584C53.3648 73.6065 53.1734 73.4806 52.8913 73.4806C52.5992 73.4806 52.3725 73.6166 52.2113 73.8886C52.0602 74.1505 51.9847 74.4981 51.9847 74.9313V79.5855H49.6576V74.7348C49.6576 74.4024 49.6072 74.1102 49.5065 73.8584C49.4158 73.6065 49.2294 73.4806 48.9473 73.4806C48.6552 73.4806 48.4285 73.6166 48.2673 73.8886C48.1162 74.1505 48.0407 74.4981 48.0407 74.9313V79.5855H45.7136V71.6824H48.0256Z" fill="white"/>
<path d="M63.8303 71.6824V79.0264C63.8303 80.3763 63.5482 81.4089 62.984 82.1242C62.4199 82.8495 61.5233 83.2122 60.2943 83.2122C59.7402 83.2122 59.2012 83.1114 58.6774 82.9099C58.1535 82.7185 57.7203 82.4767 57.3778 82.1846L58.4809 80.4317C58.7126 80.6332 58.9645 80.7994 59.2365 80.9304C59.5185 81.0613 59.8208 81.1268 60.1431 81.1268C60.6368 81.1268 60.9894 80.9556 61.2009 80.613C61.4226 80.2705 61.5334 79.8424 61.5334 79.3286V78.6788H61.5031C61.3923 78.9407 61.1908 79.1775 60.8987 79.389C60.6065 79.5905 60.2691 79.6913 59.8863 79.6913C59.4531 79.6913 59.0703 79.5905 58.7378 79.389C58.4154 79.1775 58.1434 78.8904 57.9218 78.5277C57.7002 78.155 57.534 77.7218 57.4231 77.2282C57.3123 76.7245 57.2569 76.1855 57.2569 75.6113C57.2569 75.0068 57.3123 74.4527 57.4231 73.949C57.544 73.4353 57.7153 72.997 57.9369 72.6344C58.1686 72.2616 58.4457 71.9695 58.768 71.7579C59.0904 71.5464 59.4631 71.4406 59.8863 71.4406C60.3396 71.4406 60.6922 71.5514 60.944 71.773C61.206 71.9947 61.3974 72.2767 61.5183 72.6193H61.5636V71.6824H63.8303ZM61.6089 75.6264C61.6089 75.3242 61.5888 75.0471 61.5485 74.7953C61.5082 74.5333 61.4427 74.3067 61.352 74.1153C61.2714 73.9138 61.1657 73.7576 61.0347 73.6468C60.9138 73.536 60.7677 73.4806 60.5965 73.4806C60.4151 73.4806 60.259 73.536 60.128 73.6468C60.0071 73.7576 59.9064 73.9138 59.8258 74.1153C59.7452 74.3067 59.6848 74.5333 59.6445 74.7953C59.6042 75.0471 59.584 75.3242 59.584 75.6264C59.584 75.9185 59.6042 76.1956 59.6445 76.4575C59.6848 76.7194 59.7452 76.9511 59.8258 77.1526C59.9064 77.344 60.0071 77.4951 60.128 77.6059C60.259 77.7167 60.4151 77.7722 60.5965 77.7722C60.7677 77.7722 60.9138 77.7167 61.0347 77.6059C61.1657 77.4951 61.2714 77.344 61.352 77.1526C61.4427 76.9511 61.5082 76.7194 61.5485 76.4575C61.5888 76.1956 61.6089 75.9185 61.6089 75.6264Z" fill="white"/>
<path d="M31.08 96.5855V88.6975L29.4783 89.9064L28.4054 88.0326L31.3369 85.8868H33.4525V96.5855H31.08Z" fill="white"/>
<path d="M41.9236 88.6824V89.8006H41.9538C42.0545 89.4178 42.2661 89.0904 42.5885 88.8184C42.9108 88.5363 43.3239 88.3953 43.8276 88.3953C44.3917 88.3953 44.8098 88.5313 45.0818 88.8033C45.3639 89.0753 45.5603 89.4077 45.6711 89.8006H45.7013C45.7719 89.6193 45.8625 89.448 45.9733 89.2868C46.0942 89.1156 46.2353 88.9645 46.3965 88.8335C46.5677 88.7025 46.7591 88.5967 46.9707 88.5162C47.1923 88.4356 47.4391 88.3953 47.7111 88.3953C48.1645 88.3953 48.5322 88.491 48.8142 88.6824C49.0963 88.8637 49.3129 89.1105 49.464 89.4228C49.6151 89.7351 49.7159 90.0927 49.7662 90.4957C49.8267 90.8987 49.8569 91.3167 49.8569 91.7499V96.5855H47.5147V91.7348C47.5147 91.4024 47.4643 91.1102 47.3636 90.8584C47.2628 90.6065 47.0714 90.4806 46.7893 90.4806C46.4972 90.4806 46.2705 90.6166 46.1093 90.8886C45.9582 91.1505 45.8827 91.4981 45.8827 91.9313V96.5855H43.5556V91.7348C43.5556 91.4024 43.5052 91.1102 43.4045 90.8584C43.3138 90.6065 43.1274 90.4806 42.8453 90.4806C42.5532 90.4806 42.3265 90.6166 42.1653 90.8886C42.0142 91.1505 41.9387 91.4981 41.9387 91.9313V96.5855H39.6116V88.6824H41.9236Z" fill="white"/>
<path d="M51.6385 96.5855V85.1615H54.0563V96.5855H51.6385Z" fill="white"/>
<path fill-rule="evenodd" clip-rule="evenodd" d="M65.888 36.8424H15.5177L15.5177 25.0547H11.1103V36.9377C4.88999 37.7045 0.0742188 43.0073 0.0742188 49.435V118.694C0.0742188 125.649 5.71211 131.287 12.6668 131.287H69.3335C76.2882 131.287 81.9261 125.649 81.9261 118.694V49.435C81.9261 42.804 76.8007 37.37 70.2954 36.8786V25.0547H65.888V36.8424ZM69.3335 41.2498H12.6668C8.14626 41.2498 4.48163 44.9145 4.48163 49.435V118.694C4.48163 123.215 8.14626 126.879 12.6668 126.879H69.3335C73.854 126.879 77.5187 123.215 77.5187 118.694V49.435C77.5187 44.9145 73.854 41.2498 69.3335 41.2498Z" fill="black"/>
<path fill-rule="evenodd" clip-rule="evenodd" d="M12.6669 26.1387C9.18955 26.1387 6.37061 23.3197 6.37061 19.8424V7.24978C6.37061 3.77243 9.18955 0.953485 12.6669 0.953485H69.3336C72.8109 0.953485 75.6299 3.77243 75.6299 7.24978V19.8424C75.6299 23.3197 72.8109 26.1387 69.3336 26.1387H12.6669Z" fill="#995630"/>
</svg>
