<svg width="82" height="132" viewBox="0 0 82 132" fill="none" xmlns="http://www.w3.org/2000/svg">
<rect x="3.52295" y="62.876" width="75.0302" height="40.974" fill="#69D5C3"/>
<path d="M21.3036 79.5855V71.6975L19.7018 72.9064L18.6289 71.0326L21.5605 68.8868H23.676V79.5855H21.3036Z" fill="white"/>
<path d="M33.353 74.2362C33.353 74.8406 33.3027 75.4702 33.2019 76.125C33.1113 76.7799 32.935 77.3843 32.673 77.9384C32.4212 78.4824 32.0635 78.9307 31.6001 79.2833C31.1468 79.6359 30.5575 79.8122 29.8321 79.8122C29.1068 79.8122 28.5124 79.6359 28.049 79.2833C27.5957 78.9307 27.2381 78.4824 26.9761 77.9384C26.7243 77.3843 26.553 76.7799 26.4624 76.125C26.3717 75.4702 26.3264 74.8406 26.3264 74.2362C26.3264 73.6317 26.3717 73.0021 26.4624 72.3473C26.553 71.6925 26.7243 71.093 26.9761 70.549C27.2381 69.995 27.5957 69.5416 28.049 69.189C28.5124 68.8365 29.1068 68.6602 29.8321 68.6602C30.5575 68.6602 31.1468 68.8365 31.6001 69.189C32.0635 69.5416 32.4212 69.995 32.673 70.549C32.935 71.093 33.1113 71.6925 33.2019 72.3473C33.3027 73.0021 33.353 73.6317 33.353 74.2362ZM30.9353 74.2362C30.9353 73.8836 30.9201 73.5058 30.8899 73.1028C30.8698 72.6999 30.8194 72.3271 30.7388 71.9846C30.6582 71.6421 30.5474 71.36 30.4064 71.1384C30.2653 70.9067 30.0739 70.7908 29.8321 70.7908C29.5904 70.7908 29.399 70.9067 29.2579 71.1384C29.1169 71.36 29.0061 71.6421 28.9255 71.9846C28.8449 72.3271 28.7895 72.6999 28.7593 73.1028C28.7391 73.5058 28.729 73.8836 28.729 74.2362C28.729 74.5988 28.7391 74.9816 28.7593 75.3846C28.7895 75.7876 28.8449 76.1603 28.9255 76.5028C29.0061 76.8353 29.1169 77.1173 29.2579 77.349C29.399 77.5707 29.5904 77.6815 29.8321 77.6815C30.0739 77.6815 30.2653 77.5707 30.4064 77.349C30.5474 77.1173 30.6582 76.8353 30.7388 76.5028C30.8194 76.1603 30.8698 75.7876 30.8899 75.3846C30.9201 74.9816 30.9353 74.5988 30.9353 74.2362Z" fill="white"/>
<path d="M41.0052 76.0344C41.0052 76.669 40.9145 77.2231 40.7332 77.6966C40.5619 78.16 40.3201 78.5529 40.0078 78.8753C39.7056 79.1876 39.348 79.4243 38.9349 79.5855C38.5219 79.7366 38.0837 79.8122 37.6203 79.8122C36.8043 79.8122 36.094 79.5855 35.4896 79.1322C34.8852 78.6788 34.4872 77.9938 34.2958 77.077L36.366 76.4273C36.4466 76.7799 36.5826 77.0821 36.774 77.3339C36.9755 77.5858 37.2375 77.7117 37.5598 77.7117C37.9326 77.7117 38.2096 77.5606 38.3909 77.2584C38.5823 76.9461 38.678 76.5633 38.678 76.1099C38.678 75.5559 38.5219 75.1479 38.2096 74.8859C37.9074 74.624 37.5397 74.493 37.1065 74.493C36.7942 74.493 36.4315 74.5434 36.0185 74.6442C35.6155 74.7348 35.268 74.8406 34.9758 74.9615L35.2025 68.8868H40.6274V70.9873H37.2274L37.1518 72.8308C37.2727 72.7805 37.4087 72.7402 37.5598 72.7099C37.721 72.6797 37.857 72.6646 37.9678 72.6646C38.4514 72.6646 38.8795 72.7452 39.2523 72.9064C39.6351 73.0676 39.9524 73.2942 40.2043 73.5864C40.4662 73.8785 40.6626 74.2311 40.7936 74.6442C40.9346 75.0572 41.0052 75.5206 41.0052 76.0344Z" fill="white"/>
<path d="M48.0256 71.6824V72.8006H48.0558C48.1565 72.4178 48.3681 72.0904 48.6905 71.8184C49.0128 71.5363 49.4259 71.3953 49.9296 71.3953C50.4937 71.3953 50.9118 71.5313 51.1838 71.8033C51.4659 72.0753 51.6623 72.4077 51.7731 72.8006H51.8033C51.8739 72.6193 51.9645 72.448 52.0753 72.2868C52.1962 72.1156 52.3373 71.9645 52.4985 71.8335C52.6697 71.7025 52.8611 71.5967 53.0727 71.5162C53.2943 71.4356 53.5411 71.3953 53.8131 71.3953C54.2665 71.3953 54.6342 71.491 54.9162 71.6824C55.1983 71.8637 55.4149 72.1105 55.566 72.4228C55.7171 72.7351 55.8179 73.0927 55.8682 73.4957C55.9287 73.8987 55.9589 74.3167 55.9589 74.7499V79.5855H53.6167V74.7348C53.6167 74.4024 53.5663 74.1102 53.4656 73.8584C53.3648 73.6065 53.1734 73.4806 52.8913 73.4806C52.5992 73.4806 52.3725 73.6166 52.2113 73.8886C52.0602 74.1505 51.9847 74.4981 51.9847 74.9313V79.5855H49.6576V74.7348C49.6576 74.4024 49.6072 74.1102 49.5065 73.8584C49.4158 73.6065 49.2294 73.4806 48.9473 73.4806C48.6552 73.4806 48.4285 73.6166 48.2673 73.8886C48.1162 74.1505 48.0407 74.4981 48.0407 74.9313V79.5855H45.7136V71.6824H48.0256Z" fill="white"/>
<path d="M63.8303 71.6824V79.0264C63.8303 80.3763 63.5482 81.4089 62.984 82.1242C62.4199 82.8495 61.5233 83.2122 60.2943 83.2122C59.7402 83.2122 59.2012 83.1114 58.6774 82.9099C58.1535 82.7185 57.7203 82.4767 57.3778 82.1846L58.4809 80.4317C58.7126 80.6332 58.9645 80.7994 59.2365 80.9304C59.5185 81.0613 59.8208 81.1268 60.1431 81.1268C60.6368 81.1268 60.9894 80.9556 61.2009 80.613C61.4226 80.2705 61.5334 79.8424 61.5334 79.3286V78.6788H61.5031C61.3923 78.9407 61.1908 79.1775 60.8987 79.389C60.6065 79.5905 60.2691 79.6913 59.8863 79.6913C59.4531 79.6913 59.0703 79.5905 58.7378 79.389C58.4154 79.1775 58.1434 78.8904 57.9218 78.5277C57.7002 78.155 57.534 77.7218 57.4231 77.2282C57.3123 76.7245 57.2569 76.1855 57.2569 75.6113C57.2569 75.0068 57.3123 74.4527 57.4231 73.949C57.544 73.4353 57.7153 72.997 57.9369 72.6344C58.1686 72.2616 58.4457 71.9695 58.768 71.7579C59.0904 71.5464 59.4631 71.4406 59.8863 71.4406C60.3396 71.4406 60.6922 71.5514 60.944 71.773C61.206 71.9947 61.3974 72.2767 61.5183 72.6193H61.5636V71.6824H63.8303ZM61.6089 75.6264C61.6089 75.3242 61.5888 75.0471 61.5485 74.7953C61.5082 74.5333 61.4427 74.3067 61.352 74.1153C61.2714 73.9138 61.1657 73.7576 61.0347 73.6468C60.9138 73.536 60.7677 73.4806 60.5965 73.4806C60.4151 73.4806 60.259 73.536 60.128 73.6468C60.0071 73.7576 59.9064 73.9138 59.8258 74.1153C59.7452 74.3067 59.6848 74.5333 59.6445 74.7953C59.6042 75.0471 59.584 75.3242 59.584 75.6264C59.584 75.9185 59.6042 76.1956 59.6445 76.4575C59.6848 76.7194 59.7452 76.9511 59.8258 77.1526C59.9064 77.344 60.0071 77.4951 60.128 77.6059C60.259 77.7167 60.4151 77.7722 60.5965 77.7722C60.7677 77.7722 60.9138 77.7167 61.0347 77.6059C61.1657 77.4951 61.2714 77.344 61.352 77.1526C61.4427 76.9511 61.5082 76.7194 61.5485 76.4575C61.5888 76.1956 61.6089 75.9185 61.6089 75.6264Z" fill="white"/>
<path d="M29.1842 91.2362C29.1842 91.8406 29.1338 92.4702 29.0331 93.125C28.9424 93.7799 28.7661 94.3843 28.5042 94.9384C28.2523 95.4824 27.8947 95.9307 27.4313 96.2833C26.978 96.6359 26.3886 96.8122 25.6633 96.8122C24.938 96.8122 24.3436 96.6359 23.8802 96.2833C23.4269 95.9307 23.0692 95.4824 22.8073 94.9384C22.5555 94.3843 22.3842 93.7799 22.2935 93.125C22.2029 92.4702 22.1575 91.8406 22.1575 91.2362C22.1575 90.6317 22.2029 90.0021 22.2935 89.3473C22.3842 88.6924 22.5555 88.093 22.8073 87.549C23.0692 86.995 23.4269 86.5416 23.8802 86.189C24.3436 85.8365 24.938 85.6602 25.6633 85.6602C26.3886 85.6602 26.978 85.8365 27.4313 86.189C27.8947 86.5416 28.2523 86.995 28.5042 87.549C28.7661 88.093 28.9424 88.6924 29.0331 89.3473C29.1338 90.0021 29.1842 90.6317 29.1842 91.2362ZM26.7664 91.2362C26.7664 90.8836 26.7513 90.5058 26.7211 90.1028C26.7009 89.6999 26.6506 89.3271 26.57 88.9846C26.4894 88.6421 26.3786 88.36 26.2375 88.1384C26.0965 87.9067 25.9051 87.7908 25.6633 87.7908C25.4215 87.7908 25.2301 87.9067 25.0891 88.1384C24.948 88.36 24.8372 88.6421 24.7566 88.9846C24.676 89.3271 24.6206 89.6999 24.5904 90.1028C24.5703 90.5058 24.5602 90.8836 24.5602 91.2362C24.5602 91.5988 24.5703 91.9816 24.5904 92.3846C24.6206 92.7876 24.676 93.1603 24.7566 93.5028C24.8372 93.8353 24.948 94.1173 25.0891 94.349C25.2301 94.5707 25.4215 94.6815 25.6633 94.6815C25.9051 94.6815 26.0965 94.5707 26.2375 94.349C26.3786 94.1173 26.4894 93.8353 26.57 93.5028C26.6506 93.1603 26.7009 92.7876 26.7211 92.3846C26.7513 91.9816 26.7664 91.5988 26.7664 91.2362Z" fill="white"/>
<path d="M31.8043 98.3686H30.0514L30.9581 94.0619H33.0283L31.8043 98.3686Z" fill="white"/>
<path d="M37.5697 96.5855H34.9403L38.0986 88.0175H34.4266V85.8868H40.7279V87.7002L37.5697 96.5855Z" fill="white"/>
<path d="M47.9296 88.6824V89.8006H47.9599C48.0606 89.4178 48.2722 89.0904 48.5945 88.8184C48.9169 88.5363 49.3299 88.3953 49.8336 88.3953C50.3978 88.3953 50.8159 88.5313 51.0879 88.8033C51.3699 89.0753 51.5664 89.4077 51.6772 89.8006H51.7074C51.7779 89.6193 51.8686 89.448 51.9794 89.2868C52.1003 89.1156 52.2413 88.9645 52.4025 88.8335C52.5738 88.7025 52.7652 88.5967 52.9768 88.5162C53.1984 88.4356 53.4452 88.3953 53.7172 88.3953C54.1705 88.3953 54.5382 88.491 54.8203 88.6824C55.1024 88.8637 55.319 89.1105 55.4701 89.4228C55.6212 89.7351 55.7219 90.0927 55.7723 90.4957C55.8328 90.8987 55.863 91.3167 55.863 91.7499V96.5855H53.5208V91.7348C53.5208 91.4024 53.4704 91.1102 53.3696 90.8584C53.2689 90.6065 53.0775 90.4806 52.7954 90.4806C52.5033 90.4806 52.2766 90.6166 52.1154 90.8886C51.9643 91.1505 51.8888 91.4981 51.8888 91.9313V96.5855H49.5616V91.7348C49.5616 91.4024 49.5113 91.1102 49.4105 90.8584C49.3199 90.6065 49.1335 90.4806 48.8514 90.4806C48.5593 90.4806 48.3326 90.6166 48.1714 90.8886C48.0203 91.1505 47.9448 91.4981 47.9448 91.9313V96.5855H45.6176V88.6824H47.9296Z" fill="white"/>
<path d="M57.6446 96.5855V85.1615H60.0623V96.5855H57.6446Z" fill="white"/>
<path fill-rule="evenodd" clip-rule="evenodd" d="M65.888 36.8424H15.5177L15.5177 25.0547H11.1103V36.9377C4.88999 37.7045 0.0742188 43.0073 0.0742188 49.435V118.694C0.0742188 125.649 5.71211 131.287 12.6668 131.287H69.3335C76.2882 131.287 81.9261 125.649 81.9261 118.694V49.435C81.9261 42.804 76.8007 37.37 70.2954 36.8786V25.0547H65.888V36.8424ZM69.3335 41.2498H12.6668C8.14626 41.2498 4.48163 44.9145 4.48163 49.435V118.694C4.48163 123.215 8.14626 126.879 12.6668 126.879H69.3335C73.854 126.879 77.5187 123.215 77.5187 118.694V49.435C77.5187 44.9145 73.854 41.2498 69.3335 41.2498Z" fill="black"/>
<path fill-rule="evenodd" clip-rule="evenodd" d="M12.6669 26.1387C9.18955 26.1387 6.37061 23.3197 6.37061 19.8424V7.24978C6.37061 3.77243 9.18955 0.953485 12.6669 0.953485H69.3336C72.8109 0.953485 75.6299 3.77243 75.6299 7.24978V19.8424C75.6299 23.3197 72.8109 26.1387 69.3336 26.1387H12.6669Z" fill="#69D5C3"/>
</svg>
