<svg width="82" height="132" viewBox="0 0 82 132" fill="none" xmlns="http://www.w3.org/2000/svg">
<rect x="3.52295" y="62.876" width="75.0302" height="40.974" fill="#992F7A"/>
<path d="M26.588 72.453C27.0615 72.453 27.4695 72.5437 27.812 72.725C28.1646 72.9064 28.4568 73.1532 28.6885 73.4655C28.9202 73.7778 29.0915 74.1505 29.2023 74.5837C29.3232 75.0068 29.3836 75.4652 29.3836 75.9588C29.3836 76.5733 29.298 77.1224 29.1267 77.6059C28.9555 78.0794 28.7137 78.4824 28.4014 78.8148C28.0891 79.1372 27.7214 79.384 27.2983 79.5553C26.8752 79.7265 26.4117 79.8122 25.908 79.8122C25.3943 79.8122 24.9208 79.7316 24.4876 79.5704C24.0544 79.3991 23.6817 79.1523 23.3694 78.8299C23.0571 78.4975 22.8103 78.0945 22.6289 77.621C22.4577 77.1476 22.372 76.6086 22.372 76.0042C22.372 75.3493 22.4577 74.76 22.6289 74.2362C22.8002 73.7123 23.0168 73.2086 23.2787 72.725L25.3187 68.8868H28.084L26.0138 72.5437L26.0289 72.5588C26.0793 72.5286 26.1599 72.5034 26.2707 72.4833C26.3916 72.4631 26.4974 72.453 26.588 72.453ZM27.0565 75.9286C27.0565 75.4047 26.9507 74.9816 26.7392 74.6593C26.5377 74.3268 26.2556 74.1606 25.8929 74.1606C25.5504 74.1606 25.2633 74.3268 25.0316 74.6593C24.81 74.9917 24.6992 75.4148 24.6992 75.9286C24.6992 76.4424 24.81 76.8655 25.0316 77.1979C25.2532 77.5304 25.5353 77.6966 25.8778 77.6966C26.2304 77.6966 26.5125 77.5304 26.724 77.1979C26.9457 76.8655 27.0565 76.4424 27.0565 75.9286Z" fill="white"/>
<path d="M37.3228 74.2362C37.3228 74.8406 37.2725 75.4702 37.1717 76.125C37.0811 76.7799 36.9048 77.3843 36.6428 77.9384C36.391 78.4824 36.0334 78.9307 35.5699 79.2833C35.1166 79.6359 34.5273 79.8122 33.8019 79.8122C33.0766 79.8122 32.4822 79.6359 32.0188 79.2833C31.5655 78.9307 31.2079 78.4824 30.9459 77.9384C30.6941 77.3843 30.5228 76.7799 30.4322 76.125C30.3415 75.4702 30.2962 74.8406 30.2962 74.2362C30.2962 73.6317 30.3415 73.0021 30.4322 72.3473C30.5228 71.6925 30.6941 71.093 30.9459 70.549C31.2079 69.995 31.5655 69.5416 32.0188 69.189C32.4822 68.8365 33.0766 68.6602 33.8019 68.6602C34.5273 68.6602 35.1166 68.8365 35.5699 69.189C36.0334 69.5416 36.391 69.995 36.6428 70.549C36.9048 71.093 37.0811 71.6925 37.1717 72.3473C37.2725 73.0021 37.3228 73.6317 37.3228 74.2362ZM34.9051 74.2362C34.9051 73.8836 34.8899 73.5058 34.8597 73.1028C34.8396 72.6999 34.7892 72.3271 34.7086 71.9846C34.628 71.6421 34.5172 71.36 34.3762 71.1384C34.2351 70.9067 34.0437 70.7908 33.8019 70.7908C33.5602 70.7908 33.3688 70.9067 33.2277 71.1384C33.0867 71.36 32.9759 71.6421 32.8953 71.9846C32.8147 72.3271 32.7593 72.6999 32.7291 73.1028C32.7089 73.5058 32.6988 73.8836 32.6988 74.2362C32.6988 74.5988 32.7089 74.9816 32.7291 75.3846C32.7593 75.7876 32.8147 76.1603 32.8953 76.5028C32.9759 76.8353 33.0867 77.1173 33.2277 77.349C33.3688 77.5707 33.5602 77.6815 33.8019 77.6815C34.0437 77.6815 34.2351 77.5707 34.3762 77.349C34.5172 77.1173 34.628 76.8353 34.7086 76.5028C34.7892 76.1603 34.8396 75.7876 34.8597 75.3846C34.8899 74.9816 34.9051 74.5988 34.9051 74.2362Z" fill="white"/>
<path d="M44.0561 71.6824V72.8006H44.0864C44.1871 72.4178 44.3986 72.0904 44.721 71.8184C45.0434 71.5363 45.4564 71.3953 45.9601 71.3953C46.5243 71.3953 46.9424 71.5313 47.2144 71.8033C47.4964 72.0753 47.6929 72.4077 47.8037 72.8006H47.8339C47.9044 72.6193 47.9951 72.448 48.1059 72.2868C48.2268 72.1156 48.3678 71.9645 48.529 71.8335C48.7003 71.7025 48.8917 71.5967 49.1032 71.5162C49.3249 71.4356 49.5717 71.3953 49.8437 71.3953C50.297 71.3953 50.6647 71.491 50.9468 71.6824C51.2289 71.8637 51.4455 72.1105 51.5966 72.4228C51.7477 72.7351 51.8484 73.0927 51.8988 73.4957C51.9592 73.8987 51.9895 74.3167 51.9895 74.7499V79.5855H49.6472V74.7348C49.6472 74.4024 49.5969 74.1102 49.4961 73.8584C49.3954 73.6065 49.204 73.4806 48.9219 73.4806C48.6298 73.4806 48.4031 73.6166 48.2419 73.8886C48.0908 74.1505 48.0152 74.4981 48.0152 74.9313V79.5855H45.6881V74.7348C45.6881 74.4024 45.6378 74.1102 45.537 73.8584C45.4464 73.6065 45.26 73.4806 44.9779 73.4806C44.6858 73.4806 44.4591 73.6166 44.2979 73.8886C44.1468 74.1505 44.0712 74.4981 44.0712 74.9313V79.5855H41.7441V71.6824H44.0561Z" fill="white"/>
<path d="M59.8608 71.6824V79.0264C59.8608 80.3763 59.5787 81.4089 59.0146 82.1242C58.4504 82.8495 57.5539 83.2122 56.3248 83.2122C55.7707 83.2122 55.2318 83.1114 54.7079 82.9099C54.1841 82.7185 53.7509 82.4767 53.4084 82.1846L54.5115 80.4317C54.7432 80.6332 54.995 80.7994 55.267 80.9304C55.5491 81.0613 55.8513 81.1268 56.1737 81.1268C56.6673 81.1268 57.0199 80.9556 57.2315 80.613C57.4531 80.2705 57.5639 79.8424 57.5639 79.3286V78.6788H57.5337C57.4229 78.9407 57.2214 79.1775 56.9293 79.389C56.6371 79.5905 56.2996 79.6913 55.9168 79.6913C55.4836 79.6913 55.1008 79.5905 54.7684 79.389C54.446 79.1775 54.174 78.8904 53.9524 78.5277C53.7307 78.155 53.5645 77.7218 53.4537 77.2282C53.3429 76.7245 53.2875 76.1855 53.2875 75.6113C53.2875 75.0068 53.3429 74.4527 53.4537 73.949C53.5746 73.4353 53.7459 72.997 53.9675 72.6344C54.1992 72.2616 54.4762 71.9695 54.7986 71.7579C55.121 71.5464 55.4937 71.4406 55.9168 71.4406C56.3702 71.4406 56.7227 71.5514 56.9746 71.773C57.2365 71.9947 57.4279 72.2767 57.5488 72.6193H57.5942V71.6824H59.8608ZM57.6395 75.6264C57.6395 75.3242 57.6193 75.0471 57.579 74.7953C57.5387 74.5333 57.4733 74.3067 57.3826 74.1153C57.302 73.9138 57.1962 73.7576 57.0653 73.6468C56.9444 73.536 56.7983 73.4806 56.627 73.4806C56.4457 73.4806 56.2896 73.536 56.1586 73.6468C56.0377 73.7576 55.937 73.9138 55.8564 74.1153C55.7758 74.3067 55.7153 74.5333 55.675 74.7953C55.6347 75.0471 55.6146 75.3242 55.6146 75.6264C55.6146 75.9185 55.6347 76.1956 55.675 76.4575C55.7153 76.7194 55.7758 76.9511 55.8564 77.1526C55.937 77.344 56.0377 77.4951 56.1586 77.6059C56.2896 77.7167 56.4457 77.7722 56.627 77.7722C56.7983 77.7722 56.9444 77.7167 57.0653 77.6059C57.1962 77.4951 57.302 77.344 57.3826 77.1526C57.4733 76.9511 57.5387 76.7194 57.579 76.4575C57.6193 76.1956 57.6395 75.9185 57.6395 75.6264Z" fill="white"/>
<path d="M29.1844 91.2362C29.1844 91.8406 29.134 92.4702 29.0333 93.125C28.9426 93.7799 28.7663 94.3843 28.5044 94.9384C28.2525 95.4824 27.8949 95.9307 27.4315 96.2833C26.9782 96.6359 26.3888 96.8122 25.6635 96.8122C24.9382 96.8122 24.3438 96.6359 23.8804 96.2833C23.427 95.9307 23.0694 95.4824 22.8075 94.9384C22.5556 94.3843 22.3844 93.7799 22.2937 93.125C22.203 92.4702 22.1577 91.8406 22.1577 91.2362C22.1577 90.6317 22.203 90.0021 22.2937 89.3473C22.3844 88.6924 22.5556 88.093 22.8075 87.549C23.0694 86.995 23.427 86.5416 23.8804 86.189C24.3438 85.8365 24.9382 85.6602 25.6635 85.6602C26.3888 85.6602 26.9782 85.8365 27.4315 86.189C27.8949 86.5416 28.2525 86.995 28.5044 87.549C28.7663 88.093 28.9426 88.6924 29.0333 89.3473C29.134 90.0021 29.1844 90.6317 29.1844 91.2362ZM26.7666 91.2362C26.7666 90.8836 26.7515 90.5058 26.7213 90.1028C26.7011 89.6999 26.6508 89.3271 26.5702 88.9846C26.4896 88.6421 26.3788 88.36 26.2377 88.1384C26.0967 87.9067 25.9053 87.7908 25.6635 87.7908C25.4217 87.7908 25.2303 87.9067 25.0893 88.1384C24.9482 88.36 24.8374 88.6421 24.7568 88.9846C24.6762 89.3271 24.6208 89.6999 24.5906 90.1028C24.5705 90.5058 24.5604 90.8836 24.5604 91.2362C24.5604 91.5988 24.5705 91.9816 24.5906 92.3846C24.6208 92.7876 24.6762 93.1603 24.7568 93.5028C24.8374 93.8353 24.9482 94.1173 25.0893 94.349C25.2303 94.5707 25.4217 94.6815 25.6635 94.6815C25.9053 94.6815 26.0967 94.5707 26.2377 94.349C26.3788 94.1173 26.4896 93.8353 26.5702 93.5028C26.6508 93.1603 26.7011 92.7876 26.7213 92.3846C26.7515 91.9816 26.7666 91.5988 26.7666 91.2362Z" fill="white"/>
<path d="M31.8045 98.3686H30.0516L30.9583 94.0619H33.0285L31.8045 98.3686Z" fill="white"/>
<path d="M40.1236 94.4397V96.5855H37.9779V94.4397H34.0641V92.3846L37.1921 85.8868H40.1236V92.445H41.2116V94.4397H40.1236ZM38.0232 88.2442H37.993L36.1645 92.445H38.0232V88.2442Z" fill="white"/>
<path d="M47.9298 88.6824V89.8006H47.9601C48.0608 89.4178 48.2723 89.0904 48.5947 88.8184C48.9171 88.5363 49.3301 88.3953 49.8338 88.3953C50.398 88.3953 50.8161 88.5313 51.0881 88.8033C51.3701 89.0753 51.5666 89.4077 51.6774 89.8006H51.7076C51.7781 89.6193 51.8688 89.448 51.9796 89.2868C52.1005 89.1156 52.2415 88.9645 52.4027 88.8335C52.574 88.7025 52.7654 88.5967 52.9769 88.5162C53.1986 88.4356 53.4454 88.3953 53.7174 88.3953C54.1707 88.3953 54.5384 88.491 54.8205 88.6824C55.1026 88.8637 55.3192 89.1105 55.4703 89.4228C55.6214 89.7351 55.7221 90.0927 55.7725 90.4957C55.8329 90.8987 55.8632 91.3167 55.8632 91.7499V96.5855H53.5209V91.7348C53.5209 91.4024 53.4706 91.1102 53.3698 90.8584C53.2691 90.6065 53.0777 90.4806 52.7956 90.4806C52.5035 90.4806 52.2768 90.6166 52.1156 90.8886C51.9645 91.1505 51.8889 91.4981 51.8889 91.9313V96.5855H49.5618V91.7348C49.5618 91.4024 49.5115 91.1102 49.4107 90.8584C49.3201 90.6065 49.1337 90.4806 48.8516 90.4806C48.5595 90.4806 48.3328 90.6166 48.1716 90.8886C48.0205 91.1505 47.9449 91.4981 47.9449 91.9313V96.5855H45.6178V88.6824H47.9298Z" fill="white"/>
<path d="M57.6447 96.5855V85.1615H60.0625V96.5855H57.6447Z" fill="white"/>
<path fill-rule="evenodd" clip-rule="evenodd" d="M65.888 36.8424H15.5177L15.5177 25.0547H11.1103V36.9377C4.88999 37.7045 0.0742188 43.0073 0.0742188 49.435V118.694C0.0742188 125.649 5.71211 131.287 12.6668 131.287H69.3335C76.2882 131.287 81.9261 125.649 81.9261 118.694V49.435C81.9261 42.804 76.8007 37.37 70.2954 36.8786V25.0547H65.888V36.8424ZM69.3335 41.2498H12.6668C8.14626 41.2498 4.48163 44.9145 4.48163 49.435V118.694C4.48163 123.215 8.14626 126.879 12.6668 126.879H69.3335C73.854 126.879 77.5187 123.215 77.5187 118.694V49.435C77.5187 44.9145 73.854 41.2498 69.3335 41.2498Z" fill="black"/>
<path fill-rule="evenodd" clip-rule="evenodd" d="M12.6669 26.1387C9.18955 26.1387 6.37061 23.3197 6.37061 19.8424V7.24978C6.37061 3.77243 9.18955 0.953485 12.6669 0.953485H69.3336C72.8109 0.953485 75.6299 3.77243 75.6299 7.24978V19.8424C75.6299 23.3197 72.8109 26.1387 69.3336 26.1387H12.6669Z" fill="#992F7A"/>
</svg>
