<svg width="140" height="141" viewBox="0 0 140 141" fill="none" xmlns="http://www.w3.org/2000/svg">
<rect width="140" height="140" transform="translate(0 0.120117)" fill="white"/>
<path fill-rule="evenodd" clip-rule="evenodd" d="M70 124.12C99.8234 124.12 124 99.9435 124 70.1201C124 40.2967 99.8234 16.1201 70 16.1201C40.1766 16.1201 16 40.2967 16 70.1201C16 99.9435 40.1766 124.12 70 124.12ZM70 130.12C103.137 130.12 130 103.257 130 70.1201C130 36.983 103.137 10.1201 70 10.1201C36.8629 10.1201 10 36.983 10 70.1201C10 103.257 36.8629 130.12 70 130.12Z" fill="#E9502E"/>
<path d="M97.598 100.122L97.598 100.122L87.6822 90.2063C86.8443 90.658 85.9046 90.9076 84.9215 90.9076C83.3544 90.9076 81.8784 90.2959 80.7709 89.1878L79.6488 88.0669C77.0009 88.3198 74.2585 87.4707 72.2258 85.438L47.6023 60.8145C47.2837 60.4958 47.1043 60.0635 47.1043 59.6125C47.1043 59.1615 47.2836 58.7292 47.6023 58.4105L47.9559 58.7641L47.6023 58.4105L49.2563 56.7566L43.4695 50.969L42.402 52.0365C41.738 52.7006 40.6621 52.7006 39.9981 52.0366C39.9981 52.0365 39.998 52.0365 39.998 52.0365M97.598 100.122L51.5629 42.1686C52.0316 41.6998 52.0316 40.9404 51.5629 40.4717C51.3285 40.2373 51.0215 40.1201 50.7145 40.1201C50.4074 40.1201 50.1004 40.2373 49.866 40.4717L40.3516 49.9861C39.8828 50.4549 39.8828 51.2142 40.3516 51.683L39.998 52.0365M97.598 100.122C98.262 100.786 99.3379 100.786 100.002 100.122C100.666 99.4581 100.666 98.3822 100.002 97.7182C100.002 97.7181 100.002 97.7181 100.002 97.7181L90.0881 87.8043C90.542 86.9646 90.7922 86.0223 90.7922 85.0369C90.7922 83.4699 90.1805 81.9938 89.0717 80.8863L87.947 79.7613C88.1973 77.1155 87.3483 74.3761 85.3185 72.3459L85.3184 72.3459L60.6949 47.7224C60.3631 47.3905 59.9272 47.2245 59.493 47.2245C59.0587 47.2245 58.6228 47.3905 58.291 47.7224L56.6367 49.3765L50.8494 43.5892M97.598 100.122L50.8494 43.5892M39.998 52.0365C39.334 51.3725 39.334 50.2966 39.9981 49.6325L49.5125 40.1181C49.8443 39.7863 50.2801 39.6201 50.7145 39.6201C51.1488 39.6201 51.5846 39.7863 51.9164 40.1181C52.5804 40.7821 52.5804 41.8581 51.9164 42.5221L50.8494 43.5892M39.998 52.0365L50.8494 43.5892M82.8514 87.1664C83.0106 87.0888 83.1687 87.007 83.3252 86.9206C83.2734 86.8774 83.2233 86.8317 83.1752 86.7835L83.1749 86.7832L82.8514 87.1664ZM82.8514 87.1664C82.8413 87.1566 82.8314 87.1468 82.8214 87.1369L82.8514 87.1664ZM86.6799 86.7719C87.14 86.3056 87.3922 85.6923 87.3922 85.0369C87.3922 84.4439 87.1854 83.8849 86.8046 83.4384C86.4134 84.1491 85.9285 84.8278 85.3184 85.4379L86.6799 86.7719ZM86.6799 86.7719C86.6789 86.7729 86.6778 86.7739 86.6767 86.7749L86.6799 86.7719ZM57.8391 52.9829L57.839 52.9829L54.0651 56.7559L54.0651 56.756L51.2083 59.6125L74.6297 83.0338C75.7716 84.1754 77.2704 84.7461 78.7715 84.7461C80.2737 84.7461 81.7724 84.1754 82.9144 83.0339C82.9144 83.0339 82.9145 83.0339 82.9145 83.0338M57.8391 52.9829L83.268 83.3875L82.9145 83.0338M57.8391 52.9829C57.8443 52.9777 57.8492 52.9725 57.8538 52.9675L59.493 51.3284L82.9144 74.7498L57.8391 52.9829ZM82.9145 83.0338C85.1976 80.7501 85.1976 77.0337 82.9144 74.7499L82.9145 83.0338ZM86.8193 87.3199C86.8151 87.3234 86.8108 87.3268 86.8066 87.3303C86.7877 87.3053 86.7709 87.2797 86.756 87.2539C86.776 87.2779 86.7972 87.2998 86.8193 87.3199ZM86.6499 86.8031C86.6486 86.8046 86.6469 86.8066 86.645 86.8091C86.6452 86.8085 86.6454 86.8081 86.6456 86.8078L86.6499 86.8031ZM86.6949 86.7589C86.6957 86.7583 86.6968 86.7578 86.6984 86.7573C86.6931 86.7611 86.6893 86.7641 86.6871 86.7659C86.6897 86.7635 86.6925 86.761 86.6949 86.7589ZM86.6675 86.7844C86.6676 86.7843 86.6678 86.7841 86.6679 86.784L86.6679 86.784L86.6678 86.7841L86.6677 86.7842L86.6676 86.7843L86.6675 86.7844L86.6675 86.7844ZM57.9221 52.8732C57.9225 52.8725 57.9207 52.8759 57.9184 52.8797L57.9211 52.875L57.9219 52.8737L57.9221 52.8733L57.9221 52.8732ZM51.6603 54.3527L45.8739 48.5652L48.4457 45.9934L54.2327 51.7804L51.6603 54.3527Z" fill="#E9502E" stroke="#E9502E"/>
</svg>
