<svg width="170" height="171" viewBox="0 0 170 171" fill="none" xmlns="http://www.w3.org/2000/svg">
<rect width="170" height="170" transform="translate(0 0.120117)" fill="white"/>
<rect x="47.5229" y="81.876" width="75.0302" height="40.974" fill="#992F7A"/>
<path d="M70.588 91.453C71.0615 91.453 71.4695 91.5437 71.812 91.725C72.1646 91.9064 72.4568 92.1532 72.6885 92.4655C72.9202 92.7778 73.0915 93.1505 73.2023 93.5837C73.3232 94.0068 73.3836 94.4652 73.3836 94.9588C73.3836 95.5733 73.298 96.1224 73.1267 96.6059C72.9555 97.0794 72.7137 97.4824 72.4014 97.8148C72.0891 98.1372 71.7214 98.384 71.2983 98.5553C70.8752 98.7265 70.4117 98.8122 69.908 98.8122C69.3943 98.8122 68.9208 98.7316 68.4876 98.5704C68.0544 98.3991 67.6817 98.1523 67.3694 97.8299C67.0571 97.4975 66.8103 97.0945 66.6289 96.621C66.4577 96.1476 66.372 95.6086 66.372 95.0042C66.372 94.3493 66.4577 93.76 66.6289 93.2362C66.8002 92.7123 67.0168 92.2086 67.2787 91.725L69.3187 87.8868H72.084L70.0138 91.5437L70.0289 91.5588C70.0793 91.5286 70.1599 91.5034 70.2707 91.4833C70.3916 91.4631 70.4974 91.453 70.588 91.453ZM71.0565 94.9286C71.0565 94.4047 70.9507 93.9816 70.7392 93.6593C70.5377 93.3268 70.2556 93.1606 69.8929 93.1606C69.5504 93.1606 69.2633 93.3268 69.0316 93.6593C68.81 93.9917 68.6992 94.4148 68.6992 94.9286C68.6992 95.4424 68.81 95.8655 69.0316 96.1979C69.2532 96.5304 69.5353 96.6966 69.8778 96.6966C70.2304 96.6966 70.5125 96.5304 70.724 96.1979C70.9457 95.8655 71.0565 95.4424 71.0565 94.9286Z" fill="white"/>
<path d="M81.3228 93.2362C81.3228 93.8406 81.2725 94.4702 81.1717 95.125C81.0811 95.7799 80.9048 96.3843 80.6428 96.9384C80.391 97.4824 80.0334 97.9307 79.5699 98.2833C79.1166 98.6359 78.5273 98.8122 77.8019 98.8122C77.0766 98.8122 76.4822 98.6359 76.0188 98.2833C75.5655 97.9307 75.2079 97.4824 74.9459 96.9384C74.6941 96.3843 74.5228 95.7799 74.4322 95.125C74.3415 94.4702 74.2962 93.8406 74.2962 93.2362C74.2962 92.6317 74.3415 92.0021 74.4322 91.3473C74.5228 90.6925 74.6941 90.093 74.9459 89.549C75.2079 88.995 75.5655 88.5416 76.0188 88.189C76.4822 87.8365 77.0766 87.6602 77.8019 87.6602C78.5273 87.6602 79.1166 87.8365 79.5699 88.189C80.0334 88.5416 80.391 88.995 80.6428 89.549C80.9048 90.093 81.0811 90.6925 81.1717 91.3473C81.2725 92.0021 81.3228 92.6317 81.3228 93.2362ZM78.9051 93.2362C78.9051 92.8836 78.8899 92.5058 78.8597 92.1028C78.8396 91.6999 78.7892 91.3271 78.7086 90.9846C78.628 90.6421 78.5172 90.36 78.3762 90.1384C78.2351 89.9067 78.0437 89.7908 77.8019 89.7908C77.5602 89.7908 77.3688 89.9067 77.2277 90.1384C77.0867 90.36 76.9759 90.6421 76.8953 90.9846C76.8147 91.3271 76.7593 91.6999 76.7291 92.1028C76.7089 92.5058 76.6988 92.8836 76.6988 93.2362C76.6988 93.5988 76.7089 93.9816 76.7291 94.3846C76.7593 94.7876 76.8147 95.1603 76.8953 95.5028C76.9759 95.8353 77.0867 96.1173 77.2277 96.349C77.3688 96.5707 77.5602 96.6815 77.8019 96.6815C78.0437 96.6815 78.2351 96.5707 78.3762 96.349C78.5172 96.1173 78.628 95.8353 78.7086 95.5028C78.7892 95.1603 78.8396 94.7876 78.8597 94.3846C78.8899 93.9816 78.9051 93.5988 78.9051 93.2362Z" fill="white"/>
<path d="M88.0561 90.6824V91.8006H88.0864C88.1871 91.4178 88.3986 91.0904 88.721 90.8184C89.0434 90.5363 89.4564 90.3953 89.9601 90.3953C90.5243 90.3953 90.9424 90.5313 91.2144 90.8033C91.4964 91.0753 91.6929 91.4077 91.8037 91.8006H91.8339C91.9044 91.6193 91.9951 91.448 92.1059 91.2868C92.2268 91.1156 92.3678 90.9645 92.529 90.8335C92.7003 90.7025 92.8917 90.5967 93.1032 90.5162C93.3249 90.4356 93.5717 90.3953 93.8437 90.3953C94.297 90.3953 94.6647 90.491 94.9468 90.6824C95.2289 90.8637 95.4455 91.1105 95.5966 91.4228C95.7477 91.7351 95.8484 92.0927 95.8988 92.4957C95.9592 92.8987 95.9895 93.3167 95.9895 93.7499V98.5855H93.6472V93.7348C93.6472 93.4024 93.5969 93.1102 93.4961 92.8584C93.3954 92.6065 93.204 92.4806 92.9219 92.4806C92.6298 92.4806 92.4031 92.6166 92.2419 92.8886C92.0908 93.1505 92.0152 93.4981 92.0152 93.9313V98.5855H89.6881V93.7348C89.6881 93.4024 89.6378 93.1102 89.537 92.8584C89.4464 92.6065 89.26 92.4806 88.9779 92.4806C88.6858 92.4806 88.4591 92.6166 88.2979 92.8886C88.1468 93.1505 88.0712 93.4981 88.0712 93.9313V98.5855H85.7441V90.6824H88.0561Z" fill="white"/>
<path d="M103.861 90.6824V98.0264C103.861 99.3763 103.579 100.409 103.015 101.124C102.45 101.849 101.554 102.212 100.325 102.212C99.7707 102.212 99.2318 102.111 98.7079 101.91C98.1841 101.719 97.7509 101.477 97.4084 101.185L98.5115 99.4317C98.7432 99.6332 98.995 99.7994 99.267 99.9304C99.5491 100.061 99.8513 100.127 100.174 100.127C100.667 100.127 101.02 99.9556 101.231 99.613C101.453 99.2705 101.564 98.8424 101.564 98.3286V97.6788H101.534C101.423 97.9407 101.221 98.1775 100.929 98.389C100.637 98.5905 100.3 98.6913 99.9168 98.6913C99.4836 98.6913 99.1008 98.5905 98.7684 98.389C98.446 98.1775 98.174 97.8904 97.9524 97.5277C97.7307 97.155 97.5645 96.7218 97.4537 96.2282C97.3429 95.7245 97.2875 95.1855 97.2875 94.6113C97.2875 94.0068 97.3429 93.4527 97.4537 92.949C97.5746 92.4353 97.7459 91.997 97.9675 91.6344C98.1992 91.2616 98.4762 90.9695 98.7986 90.7579C99.121 90.5464 99.4937 90.4406 99.9168 90.4406C100.37 90.4406 100.723 90.5514 100.975 90.773C101.237 90.9947 101.428 91.2767 101.549 91.6193H101.594V90.6824H103.861ZM101.639 94.6264C101.639 94.3242 101.619 94.0471 101.579 93.7953C101.539 93.5333 101.473 93.3067 101.383 93.1153C101.302 92.9138 101.196 92.7576 101.065 92.6468C100.944 92.536 100.798 92.4806 100.627 92.4806C100.446 92.4806 100.29 92.536 100.159 92.6468C100.038 92.7576 99.937 92.9138 99.8564 93.1153C99.7758 93.3067 99.7153 93.5333 99.675 93.7953C99.6347 94.0471 99.6146 94.3242 99.6146 94.6264C99.6146 94.9185 99.6347 95.1956 99.675 95.4575C99.7153 95.7194 99.7758 95.9511 99.8564 96.1526C99.937 96.344 100.038 96.4951 100.159 96.6059C100.29 96.7167 100.446 96.7722 100.627 96.7722C100.798 96.7722 100.944 96.7167 101.065 96.6059C101.196 96.4951 101.302 96.344 101.383 96.1526C101.473 95.9511 101.539 95.7194 101.579 95.4575C101.619 95.1956 101.639 94.9185 101.639 94.6264Z" fill="white"/>
<path d="M73.1844 110.236C73.1844 110.841 73.134 111.47 73.0333 112.125C72.9426 112.78 72.7663 113.384 72.5044 113.938C72.2525 114.482 71.8949 114.931 71.4315 115.283C70.9782 115.636 70.3888 115.812 69.6635 115.812C68.9382 115.812 68.3438 115.636 67.8804 115.283C67.427 114.931 67.0694 114.482 66.8075 113.938C66.5556 113.384 66.3844 112.78 66.2937 112.125C66.203 111.47 66.1577 110.841 66.1577 110.236C66.1577 109.632 66.203 109.002 66.2937 108.347C66.3844 107.692 66.5556 107.093 66.8075 106.549C67.0694 105.995 67.427 105.542 67.8804 105.189C68.3438 104.836 68.9382 104.66 69.6635 104.66C70.3888 104.66 70.9782 104.836 71.4315 105.189C71.8949 105.542 72.2525 105.995 72.5044 106.549C72.7663 107.093 72.9426 107.692 73.0333 108.347C73.134 109.002 73.1844 109.632 73.1844 110.236ZM70.7666 110.236C70.7666 109.884 70.7515 109.506 70.7213 109.103C70.7011 108.7 70.6508 108.327 70.5702 107.985C70.4896 107.642 70.3788 107.36 70.2377 107.138C70.0967 106.907 69.9053 106.791 69.6635 106.791C69.4217 106.791 69.2303 106.907 69.0893 107.138C68.9482 107.36 68.8374 107.642 68.7568 107.985C68.6762 108.327 68.6208 108.7 68.5906 109.103C68.5705 109.506 68.5604 109.884 68.5604 110.236C68.5604 110.599 68.5705 110.982 68.5906 111.385C68.6208 111.788 68.6762 112.16 68.7568 112.503C68.8374 112.835 68.9482 113.117 69.0893 113.349C69.2303 113.571 69.4217 113.681 69.6635 113.681C69.9053 113.681 70.0967 113.571 70.2377 113.349C70.3788 113.117 70.4896 112.835 70.5702 112.503C70.6508 112.16 70.7011 111.788 70.7213 111.385C70.7515 110.982 70.7666 110.599 70.7666 110.236Z" fill="white"/>
<path d="M75.8045 117.369H74.0516L74.9583 113.062H77.0285L75.8045 117.369Z" fill="white"/>
<path d="M84.1236 113.44V115.585H81.9779V113.44H78.0641V111.385L81.1921 104.887H84.1236V111.445H85.2116V113.44H84.1236ZM82.0232 107.244H81.993L80.1645 111.445H82.0232V107.244Z" fill="white"/>
<path d="M91.9298 107.682V108.801H91.9601C92.0608 108.418 92.2723 108.09 92.5947 107.818C92.9171 107.536 93.3301 107.395 93.8338 107.395C94.398 107.395 94.8161 107.531 95.0881 107.803C95.3701 108.075 95.5666 108.408 95.6774 108.801H95.7076C95.7781 108.619 95.8688 108.448 95.9796 108.287C96.1005 108.116 96.2415 107.964 96.4027 107.833C96.574 107.703 96.7654 107.597 96.9769 107.516C97.1986 107.436 97.4454 107.395 97.7174 107.395C98.1707 107.395 98.5384 107.491 98.8205 107.682C99.1026 107.864 99.3192 108.111 99.4703 108.423C99.6214 108.735 99.7221 109.093 99.7725 109.496C99.8329 109.899 99.8632 110.317 99.8632 110.75V115.585H97.5209V110.735C97.5209 110.402 97.4706 110.11 97.3698 109.858C97.2691 109.607 97.0777 109.481 96.7956 109.481C96.5035 109.481 96.2768 109.617 96.1156 109.889C95.9645 110.151 95.8889 110.498 95.8889 110.931V115.585H93.5618V110.735C93.5618 110.402 93.5115 110.11 93.4107 109.858C93.3201 109.607 93.1337 109.481 92.8516 109.481C92.5595 109.481 92.3328 109.617 92.1716 109.889C92.0205 110.151 91.9449 110.498 91.9449 110.931V115.585H89.6178V107.682H91.9298Z" fill="white"/>
<path d="M101.645 115.585V104.161H104.063V115.585H101.645Z" fill="white"/>
<path fill-rule="evenodd" clip-rule="evenodd" d="M109.888 55.8424H59.5177L59.5177 44.0547H55.1103V55.9377C48.89 56.7045 44.0742 62.0073 44.0742 68.435V137.694C44.0742 144.649 49.7121 150.287 56.6668 150.287H113.333C120.288 150.287 125.926 144.649 125.926 137.694V68.435C125.926 61.804 120.801 56.37 114.295 55.8786V44.0547H109.888V55.8424ZM113.333 60.2498H56.6668C52.1463 60.2498 48.4816 63.9145 48.4816 68.435V137.694C48.4816 142.215 52.1463 145.879 56.6668 145.879H113.333C117.854 145.879 121.519 142.215 121.519 137.694V68.435C121.519 63.9145 117.854 60.2498 113.333 60.2498Z" fill="black"/>
<path fill-rule="evenodd" clip-rule="evenodd" d="M56.6669 45.1387C53.1896 45.1387 50.3706 42.3197 50.3706 38.8424V26.2498C50.3706 22.7724 53.1896 19.9535 56.6669 19.9535H113.334C116.811 19.9535 119.63 22.7724 119.63 26.2498V38.8424C119.63 42.3197 116.811 45.1387 113.334 45.1387H56.6669Z" fill="#992F7A"/>
</svg>
