<svg width="170" height="171" viewBox="0 0 170 171" fill="none" xmlns="http://www.w3.org/2000/svg">
<rect width="170" height="170" transform="translate(0 0.120117)" fill="white"/>
<rect x="47.5229" y="81.876" width="75.0302" height="40.974" fill="#69D5C3"/>
<path d="M65.3036 98.5855V90.6975L63.7018 91.9064L62.6289 90.0326L65.5605 87.8868H67.676V98.5855H65.3036Z" fill="white"/>
<path d="M77.353 93.2362C77.353 93.8406 77.3027 94.4702 77.2019 95.125C77.1113 95.7799 76.935 96.3843 76.673 96.9384C76.4212 97.4824 76.0635 97.9307 75.6001 98.2833C75.1468 98.6359 74.5575 98.8122 73.8321 98.8122C73.1068 98.8122 72.5124 98.6359 72.049 98.2833C71.5957 97.9307 71.2381 97.4824 70.9761 96.9384C70.7243 96.3843 70.553 95.7799 70.4624 95.125C70.3717 94.4702 70.3264 93.8406 70.3264 93.2362C70.3264 92.6317 70.3717 92.0021 70.4624 91.3473C70.553 90.6925 70.7243 90.093 70.9761 89.549C71.2381 88.995 71.5957 88.5416 72.049 88.189C72.5124 87.8365 73.1068 87.6602 73.8321 87.6602C74.5575 87.6602 75.1468 87.8365 75.6001 88.189C76.0635 88.5416 76.4212 88.995 76.673 89.549C76.935 90.093 77.1113 90.6925 77.2019 91.3473C77.3027 92.0021 77.353 92.6317 77.353 93.2362ZM74.9353 93.2362C74.9353 92.8836 74.9201 92.5058 74.8899 92.1028C74.8698 91.6999 74.8194 91.3271 74.7388 90.9846C74.6582 90.6421 74.5474 90.36 74.4064 90.1384C74.2653 89.9067 74.0739 89.7908 73.8321 89.7908C73.5904 89.7908 73.399 89.9067 73.2579 90.1384C73.1169 90.36 73.0061 90.6421 72.9255 90.9846C72.8449 91.3271 72.7895 91.6999 72.7593 92.1028C72.7391 92.5058 72.729 92.8836 72.729 93.2362C72.729 93.5988 72.7391 93.9816 72.7593 94.3846C72.7895 94.7876 72.8449 95.1603 72.9255 95.5028C73.0061 95.8353 73.1169 96.1173 73.2579 96.349C73.399 96.5707 73.5904 96.6815 73.8321 96.6815C74.0739 96.6815 74.2653 96.5707 74.4064 96.349C74.5474 96.1173 74.6582 95.8353 74.7388 95.5028C74.8194 95.1603 74.8698 94.7876 74.8899 94.3846C74.9201 93.9816 74.9353 93.5988 74.9353 93.2362Z" fill="white"/>
<path d="M85.0052 95.0344C85.0052 95.669 84.9145 96.2231 84.7332 96.6966C84.5619 97.16 84.3201 97.5529 84.0078 97.8753C83.7056 98.1876 83.348 98.4243 82.9349 98.5855C82.5219 98.7366 82.0837 98.8122 81.6203 98.8122C80.8043 98.8122 80.094 98.5855 79.4896 98.1322C78.8852 97.6788 78.4872 96.9938 78.2958 96.077L80.366 95.4273C80.4466 95.7799 80.5826 96.0821 80.774 96.3339C80.9755 96.5858 81.2375 96.7117 81.5598 96.7117C81.9326 96.7117 82.2096 96.5606 82.3909 96.2584C82.5823 95.9461 82.678 95.5633 82.678 95.1099C82.678 94.5559 82.5219 94.1479 82.2096 93.8859C81.9074 93.624 81.5397 93.493 81.1065 93.493C80.7942 93.493 80.4315 93.5434 80.0185 93.6442C79.6155 93.7348 79.268 93.8406 78.9758 93.9615L79.2025 87.8868H84.6274V89.9873H81.2274L81.1518 91.8308C81.2727 91.7805 81.4087 91.7402 81.5598 91.7099C81.721 91.6797 81.857 91.6646 81.9678 91.6646C82.4514 91.6646 82.8795 91.7452 83.2523 91.9064C83.6351 92.0676 83.9524 92.2942 84.2043 92.5864C84.4662 92.8785 84.6626 93.2311 84.7936 93.6442C84.9346 94.0572 85.0052 94.5206 85.0052 95.0344Z" fill="white"/>
<path d="M92.0256 90.6824V91.8006H92.0558C92.1565 91.4178 92.3681 91.0904 92.6905 90.8184C93.0128 90.5363 93.4259 90.3953 93.9296 90.3953C94.4937 90.3953 94.9118 90.5313 95.1838 90.8033C95.4659 91.0753 95.6623 91.4077 95.7731 91.8006H95.8033C95.8739 91.6193 95.9645 91.448 96.0753 91.2868C96.1962 91.1156 96.3373 90.9645 96.4985 90.8335C96.6697 90.7025 96.8611 90.5967 97.0727 90.5162C97.2943 90.4356 97.5411 90.3953 97.8131 90.3953C98.2665 90.3953 98.6342 90.491 98.9162 90.6824C99.1983 90.8637 99.4149 91.1105 99.566 91.4228C99.7171 91.7351 99.8179 92.0927 99.8682 92.4957C99.9287 92.8987 99.9589 93.3167 99.9589 93.7499V98.5855H97.6167V93.7348C97.6167 93.4024 97.5663 93.1102 97.4656 92.8584C97.3648 92.6065 97.1734 92.4806 96.8913 92.4806C96.5992 92.4806 96.3725 92.6166 96.2113 92.8886C96.0602 93.1505 95.9847 93.4981 95.9847 93.9313V98.5855H93.6576V93.7348C93.6576 93.4024 93.6072 93.1102 93.5065 92.8584C93.4158 92.6065 93.2294 92.4806 92.9473 92.4806C92.6552 92.4806 92.4285 92.6166 92.2673 92.8886C92.1162 93.1505 92.0407 93.4981 92.0407 93.9313V98.5855H89.7136V90.6824H92.0256Z" fill="white"/>
<path d="M107.83 90.6824V98.0264C107.83 99.3763 107.548 100.409 106.984 101.124C106.42 101.849 105.523 102.212 104.294 102.212C103.74 102.212 103.201 102.111 102.677 101.91C102.154 101.719 101.72 101.477 101.378 101.185L102.481 99.4317C102.713 99.6332 102.964 99.7994 103.236 99.9304C103.519 100.061 103.821 100.127 104.143 100.127C104.637 100.127 104.989 99.9556 105.201 99.613C105.423 99.2705 105.533 98.8424 105.533 98.3286V97.6788H105.503C105.392 97.9407 105.191 98.1775 104.899 98.389C104.607 98.5905 104.269 98.6913 103.886 98.6913C103.453 98.6913 103.07 98.5905 102.738 98.389C102.415 98.1775 102.143 97.8904 101.922 97.5277C101.7 97.155 101.534 96.7218 101.423 96.2282C101.312 95.7245 101.257 95.1855 101.257 94.6113C101.257 94.0068 101.312 93.4527 101.423 92.949C101.544 92.4353 101.715 91.997 101.937 91.6344C102.169 91.2616 102.446 90.9695 102.768 90.7579C103.09 90.5464 103.463 90.4406 103.886 90.4406C104.34 90.4406 104.692 90.5514 104.944 90.773C105.206 90.9947 105.397 91.2767 105.518 91.6193H105.564V90.6824H107.83ZM105.609 94.6264C105.609 94.3242 105.589 94.0471 105.548 93.7953C105.508 93.5333 105.443 93.3067 105.352 93.1153C105.271 92.9138 105.166 92.7576 105.035 92.6468C104.914 92.536 104.768 92.4806 104.596 92.4806C104.415 92.4806 104.259 92.536 104.128 92.6468C104.007 92.7576 103.906 92.9138 103.826 93.1153C103.745 93.3067 103.685 93.5333 103.644 93.7953C103.604 94.0471 103.584 94.3242 103.584 94.6264C103.584 94.9185 103.604 95.1956 103.644 95.4575C103.685 95.7194 103.745 95.9511 103.826 96.1526C103.906 96.344 104.007 96.4951 104.128 96.6059C104.259 96.7167 104.415 96.7722 104.596 96.7722C104.768 96.7722 104.914 96.7167 105.035 96.6059C105.166 96.4951 105.271 96.344 105.352 96.1526C105.443 95.9511 105.508 95.7194 105.548 95.4575C105.589 95.1956 105.609 94.9185 105.609 94.6264Z" fill="white"/>
<path d="M73.1842 110.236C73.1842 110.841 73.1338 111.47 73.0331 112.125C72.9424 112.78 72.7661 113.384 72.5042 113.938C72.2523 114.482 71.8947 114.931 71.4313 115.283C70.978 115.636 70.3886 115.812 69.6633 115.812C68.938 115.812 68.3436 115.636 67.8802 115.283C67.4269 114.931 67.0692 114.482 66.8073 113.938C66.5555 113.384 66.3842 112.78 66.2935 112.125C66.2029 111.47 66.1575 110.841 66.1575 110.236C66.1575 109.632 66.2029 109.002 66.2935 108.347C66.3842 107.692 66.5555 107.093 66.8073 106.549C67.0692 105.995 67.4269 105.542 67.8802 105.189C68.3436 104.836 68.938 104.66 69.6633 104.66C70.3886 104.66 70.978 104.836 71.4313 105.189C71.8947 105.542 72.2523 105.995 72.5042 106.549C72.7661 107.093 72.9424 107.692 73.0331 108.347C73.1338 109.002 73.1842 109.632 73.1842 110.236ZM70.7664 110.236C70.7664 109.884 70.7513 109.506 70.7211 109.103C70.7009 108.7 70.6506 108.327 70.57 107.985C70.4894 107.642 70.3786 107.36 70.2375 107.138C70.0965 106.907 69.9051 106.791 69.6633 106.791C69.4215 106.791 69.2301 106.907 69.0891 107.138C68.948 107.36 68.8372 107.642 68.7566 107.985C68.676 108.327 68.6206 108.7 68.5904 109.103C68.5703 109.506 68.5602 109.884 68.5602 110.236C68.5602 110.599 68.5703 110.982 68.5904 111.385C68.6206 111.788 68.676 112.16 68.7566 112.503C68.8372 112.835 68.948 113.117 69.0891 113.349C69.2301 113.571 69.4215 113.681 69.6633 113.681C69.9051 113.681 70.0965 113.571 70.2375 113.349C70.3786 113.117 70.4894 112.835 70.57 112.503C70.6506 112.16 70.7009 111.788 70.7211 111.385C70.7513 110.982 70.7664 110.599 70.7664 110.236Z" fill="white"/>
<path d="M75.8043 117.369H74.0514L74.9581 113.062H77.0283L75.8043 117.369Z" fill="white"/>
<path d="M81.5697 115.585H78.9403L82.0986 107.017H78.4266V104.887H84.7279V106.7L81.5697 115.585Z" fill="white"/>
<path d="M91.9296 107.682V108.801H91.9599C92.0606 108.418 92.2722 108.09 92.5945 107.818C92.9169 107.536 93.3299 107.395 93.8336 107.395C94.3978 107.395 94.8159 107.531 95.0879 107.803C95.3699 108.075 95.5664 108.408 95.6772 108.801H95.7074C95.7779 108.619 95.8686 108.448 95.9794 108.287C96.1003 108.116 96.2413 107.964 96.4025 107.833C96.5738 107.703 96.7652 107.597 96.9768 107.516C97.1984 107.436 97.4452 107.395 97.7172 107.395C98.1705 107.395 98.5382 107.491 98.8203 107.682C99.1024 107.864 99.319 108.111 99.4701 108.423C99.6212 108.735 99.7219 109.093 99.7723 109.496C99.8328 109.899 99.863 110.317 99.863 110.75V115.585H97.5208V110.735C97.5208 110.402 97.4704 110.11 97.3696 109.858C97.2689 109.607 97.0775 109.481 96.7954 109.481C96.5033 109.481 96.2766 109.617 96.1154 109.889C95.9643 110.151 95.8888 110.498 95.8888 110.931V115.585H93.5616V110.735C93.5616 110.402 93.5113 110.11 93.4105 109.858C93.3199 109.607 93.1335 109.481 92.8514 109.481C92.5593 109.481 92.3326 109.617 92.1714 109.889C92.0203 110.151 91.9448 110.498 91.9448 110.931V115.585H89.6176V107.682H91.9296Z" fill="white"/>
<path d="M101.645 115.585V104.161H104.062V115.585H101.645Z" fill="white"/>
<path fill-rule="evenodd" clip-rule="evenodd" d="M109.888 55.8424H59.5177L59.5177 44.0547H55.1103V55.9377C48.89 56.7045 44.0742 62.0073 44.0742 68.435V137.694C44.0742 144.649 49.7121 150.287 56.6668 150.287H113.333C120.288 150.287 125.926 144.649 125.926 137.694V68.435C125.926 61.804 120.801 56.37 114.295 55.8786V44.0547H109.888V55.8424ZM113.333 60.2498H56.6668C52.1463 60.2498 48.4816 63.9145 48.4816 68.435V137.694C48.4816 142.215 52.1463 145.879 56.6668 145.879H113.333C117.854 145.879 121.519 142.215 121.519 137.694V68.435C121.519 63.9145 117.854 60.2498 113.333 60.2498Z" fill="black"/>
<path fill-rule="evenodd" clip-rule="evenodd" d="M56.6669 45.1387C53.1896 45.1387 50.3706 42.3197 50.3706 38.8424V26.2498C50.3706 22.7724 53.1896 19.9535 56.6669 19.9535H113.334C116.811 19.9535 119.63 22.7724 119.63 26.2498V38.8424C119.63 42.3197 116.811 45.1387 113.334 45.1387H56.6669Z" fill="#69D5C3"/>
</svg>
