<svg width="170" height="171" viewBox="0 0 170 171" fill="none" xmlns="http://www.w3.org/2000/svg">
<g clip-path="url(#clip0_4323_3426)">
<rect width="170" height="170" transform="translate(0 0.120117)" fill="white"/>
<rect x="47.5229" y="81.876" width="75.0302" height="40.974" fill="#D2D2D2"/>
<path d="M65.3036 98.5855V90.6975L63.7018 91.9064L62.6289 90.0326L65.5605 87.8868H67.676V98.5855H65.3036Z" fill="#D2D2D2"/>
<path d="M77.0659 95.0344C77.0659 95.669 76.9753 96.2231 76.7939 96.6966C76.6227 97.16 76.3809 97.5529 76.0686 97.8753C75.7664 98.1876 75.4087 98.4243 74.9957 98.5855C74.5827 98.7366 74.1444 98.8122 73.681 98.8122C72.865 98.8122 72.1548 98.5855 71.5504 98.1322C70.9459 97.6788 70.548 96.9938 70.3566 96.077L72.4268 95.4273C72.5074 95.7799 72.6434 96.0821 72.8348 96.3339C73.0363 96.5858 73.2982 96.7117 73.6206 96.7117C73.9933 96.7117 74.2704 96.5606 74.4517 96.2584C74.6431 95.9461 74.7388 95.5633 74.7388 95.1099C74.7388 94.5559 74.5827 94.1479 74.2704 93.8859C73.9681 93.624 73.6004 93.493 73.1673 93.493C72.855 93.493 72.4923 93.5434 72.0793 93.6442C71.6763 93.7348 71.3287 93.8406 71.0366 93.9615L71.2633 87.8868H76.6881V89.9873H73.2881L73.2126 91.8308C73.3335 91.7805 73.4695 91.7402 73.6206 91.7099C73.7818 91.6797 73.9178 91.6646 74.0286 91.6646C74.5121 91.6646 74.9403 91.7452 75.313 91.9064C75.6958 92.0676 76.0132 92.2942 76.265 92.5864C76.527 92.8785 76.7234 93.2311 76.8544 93.6442C76.9954 94.0572 77.0659 94.5206 77.0659 95.0344Z" fill="#D2D2D2"/>
<path d="M85.2923 93.2362C85.2923 93.8406 85.2419 94.4702 85.1412 95.125C85.0505 95.7799 84.8742 96.3843 84.6123 96.9384C84.3604 97.4824 84.0028 97.9307 83.5394 98.2833C83.086 98.6359 82.4967 98.8122 81.7714 98.8122C81.046 98.8122 80.4517 98.6359 79.9883 98.2833C79.5349 97.9307 79.1773 97.4824 78.9154 96.9384C78.6635 96.3843 78.4923 95.7799 78.4016 95.125C78.3109 94.4702 78.2656 93.8406 78.2656 93.2362C78.2656 92.6317 78.3109 92.0021 78.4016 91.3473C78.4923 90.6925 78.6635 90.093 78.9154 89.549C79.1773 88.995 79.5349 88.5416 79.9883 88.189C80.4517 87.8365 81.046 87.6602 81.7714 87.6602C82.4967 87.6602 83.086 87.8365 83.5394 88.189C84.0028 88.5416 84.3604 88.995 84.6123 89.549C84.8742 90.093 85.0505 90.6925 85.1412 91.3473C85.2419 92.0021 85.2923 92.6317 85.2923 93.2362ZM82.8745 93.2362C82.8745 92.8836 82.8594 92.5058 82.8292 92.1028C82.809 91.6999 82.7586 91.3271 82.678 90.9846C82.5975 90.6421 82.4866 90.36 82.3456 90.1384C82.2046 89.9067 82.0132 89.7908 81.7714 89.7908C81.5296 89.7908 81.3382 89.9067 81.1972 90.1384C81.0561 90.36 80.9453 90.6421 80.8647 90.9846C80.7841 91.3271 80.7287 91.6999 80.6985 92.1028C80.6783 92.5058 80.6683 92.8836 80.6683 93.2362C80.6683 93.5988 80.6783 93.9816 80.6985 94.3846C80.7287 94.7876 80.7841 95.1603 80.8647 95.5028C80.9453 95.8353 81.0561 96.1173 81.1972 96.349C81.3382 96.5707 81.5296 96.6815 81.7714 96.6815C82.0132 96.6815 82.2046 96.5707 82.3456 96.349C82.4866 96.1173 82.5975 95.8353 82.678 95.5028C82.7586 95.1603 82.809 94.7876 82.8292 94.3846C82.8594 93.9816 82.8745 93.5988 82.8745 93.2362Z" fill="#D2D2D2"/>
<path d="M92.0256 90.6824V91.8006H92.0558C92.1565 91.4178 92.3681 91.0904 92.6905 90.8184C93.0128 90.5363 93.4259 90.3953 93.9296 90.3953C94.4937 90.3953 94.9118 90.5313 95.1838 90.8033C95.4659 91.0753 95.6623 91.4077 95.7731 91.8006H95.8033C95.8739 91.6193 95.9645 91.448 96.0753 91.2868C96.1962 91.1156 96.3373 90.9645 96.4985 90.8335C96.6697 90.7025 96.8611 90.5967 97.0727 90.5162C97.2943 90.4356 97.5411 90.3953 97.8131 90.3953C98.2665 90.3953 98.6342 90.491 98.9162 90.6824C99.1983 90.8637 99.4149 91.1105 99.566 91.4228C99.7171 91.7351 99.8179 92.0927 99.8682 92.4957C99.9287 92.8987 99.9589 93.3167 99.9589 93.7499V98.5855H97.6167V93.7348C97.6167 93.4024 97.5663 93.1102 97.4656 92.8584C97.3648 92.6065 97.1734 92.4806 96.8913 92.4806C96.5992 92.4806 96.3725 92.6166 96.2113 92.8886C96.0602 93.1505 95.9847 93.4981 95.9847 93.9313V98.5855H93.6576V93.7348C93.6576 93.4024 93.6072 93.1102 93.5065 92.8584C93.4158 92.6065 93.2294 92.4806 92.9473 92.4806C92.6552 92.4806 92.4285 92.6166 92.2673 92.8886C92.1162 93.1505 92.0407 93.4981 92.0407 93.9313V98.5855H89.7136V90.6824H92.0256Z" fill="#D2D2D2"/>
<path d="M107.83 90.6824V98.0264C107.83 99.3763 107.548 100.409 106.984 101.124C106.42 101.849 105.523 102.212 104.294 102.212C103.74 102.212 103.201 102.111 102.677 101.91C102.154 101.719 101.72 101.477 101.378 101.185L102.481 99.4317C102.713 99.6332 102.964 99.7994 103.236 99.9304C103.519 100.061 103.821 100.127 104.143 100.127C104.637 100.127 104.989 99.9556 105.201 99.613C105.423 99.2705 105.533 98.8424 105.533 98.3286V97.6788H105.503C105.392 97.9407 105.191 98.1775 104.899 98.389C104.607 98.5905 104.269 98.6913 103.886 98.6913C103.453 98.6913 103.07 98.5905 102.738 98.389C102.415 98.1775 102.143 97.8904 101.922 97.5277C101.7 97.155 101.534 96.7218 101.423 96.2282C101.312 95.7245 101.257 95.1855 101.257 94.6113C101.257 94.0068 101.312 93.4527 101.423 92.949C101.544 92.4353 101.715 91.997 101.937 91.6344C102.169 91.2616 102.446 90.9695 102.768 90.7579C103.09 90.5464 103.463 90.4406 103.886 90.4406C104.34 90.4406 104.692 90.5514 104.944 90.773C105.206 90.9947 105.397 91.2767 105.518 91.6193H105.564V90.6824H107.83ZM105.609 94.6264C105.609 94.3242 105.589 94.0471 105.548 93.7953C105.508 93.5333 105.443 93.3067 105.352 93.1153C105.271 92.9138 105.166 92.7576 105.035 92.6468C104.914 92.536 104.768 92.4806 104.596 92.4806C104.415 92.4806 104.259 92.536 104.128 92.6468C104.007 92.7576 103.906 92.9138 103.826 93.1153C103.745 93.3067 103.685 93.5333 103.644 93.7953C103.604 94.0471 103.584 94.3242 103.584 94.6264C103.584 94.9185 103.604 95.1956 103.644 95.4575C103.685 95.7194 103.745 95.9511 103.826 96.1526C103.906 96.344 104.007 96.4951 104.128 96.6059C104.259 96.7167 104.415 96.7722 104.596 96.7722C104.768 96.7722 104.914 96.7167 105.035 96.6059C105.166 96.4951 105.271 96.344 105.352 96.1526C105.443 95.9511 105.508 95.7194 105.548 95.4575C105.589 95.1956 105.609 94.9185 105.609 94.6264Z" fill="#D2D2D2"/>
<path d="M75.08 115.585V107.697L73.4783 108.906L72.4054 107.033L75.3369 104.887H77.4525V115.585H75.08Z" fill="#D2D2D2"/>
<path d="M85.9236 107.682V108.801H85.9538C86.0545 108.418 86.2661 108.09 86.5885 107.818C86.9108 107.536 87.3239 107.395 87.8276 107.395C88.3917 107.395 88.8098 107.531 89.0818 107.803C89.3639 108.075 89.5603 108.408 89.6711 108.801H89.7013C89.7719 108.619 89.8625 108.448 89.9733 108.287C90.0942 108.116 90.2353 107.964 90.3965 107.833C90.5677 107.703 90.7591 107.597 90.9707 107.516C91.1923 107.436 91.4391 107.395 91.7111 107.395C92.1645 107.395 92.5322 107.491 92.8142 107.682C93.0963 107.864 93.3129 108.111 93.464 108.423C93.6151 108.735 93.7159 109.093 93.7662 109.496C93.8267 109.899 93.8569 110.317 93.8569 110.75V115.585H91.5147V110.735C91.5147 110.402 91.4643 110.11 91.3636 109.858C91.2628 109.607 91.0714 109.481 90.7893 109.481C90.4972 109.481 90.2705 109.617 90.1093 109.889C89.9582 110.151 89.8827 110.498 89.8827 110.931V115.585H87.5556V110.735C87.5556 110.402 87.5052 110.11 87.4045 109.858C87.3138 109.607 87.1274 109.481 86.8453 109.481C86.5532 109.481 86.3265 109.617 86.1653 109.889C86.0142 110.151 85.9387 110.498 85.9387 110.931V115.585H83.6116V107.682H85.9236Z" fill="#D2D2D2"/>
<path d="M95.6385 115.585V104.161H98.0563V115.585H95.6385Z" fill="#D2D2D2"/>
<path fill-rule="evenodd" clip-rule="evenodd" d="M109.888 55.8424H59.5177L59.5177 44.0547H55.1103V55.9377C48.89 56.7045 44.0742 62.0073 44.0742 68.435V137.694C44.0742 144.649 49.7121 150.287 56.6668 150.287H113.333C120.288 150.287 125.926 144.649 125.926 137.694V68.435C125.926 61.804 120.801 56.37 114.295 55.8786V44.0547H109.888V55.8424ZM113.333 60.2498H56.6668C52.1463 60.2498 48.4816 63.9145 48.4816 68.435V137.694C48.4816 142.215 52.1463 145.879 56.6668 145.879H113.333C117.854 145.879 121.519 142.215 121.519 137.694V68.435C121.519 63.9145 117.854 60.2498 113.333 60.2498Z" fill="#D2D2D2"/>
<path fill-rule="evenodd" clip-rule="evenodd" d="M56.6669 45.1387C53.1896 45.1387 50.3706 42.3197 50.3706 38.8424V26.2498C50.3706 22.7724 53.1896 19.9535 56.6669 19.9535H113.334C116.811 19.9535 119.63 22.7724 119.63 26.2498V38.8424C119.63 42.3197 116.811 45.1387 113.334 45.1387H56.6669Z" fill="#D2D2D2"/>
<g filter="url(#filter0_d_4323_3426)">
<ellipse cx="114.408" cy="62.4147" rx="53.1706" ry="53.1706" fill="#E9502E"/>
<path d="M166.079 62.4147C166.079 90.9516 142.945 114.085 114.408 114.085C85.871 114.085 62.7373 90.9516 62.7373 62.4147C62.7373 33.8779 85.871 10.7441 114.408 10.7441C142.945 10.7441 166.079 33.8779 166.079 62.4147Z" stroke="white" stroke-width="3"/>
</g>
<path d="M76.3311 43.3087L79.4432 44.4414C79.8771 44.5994 80.2729 44.7881 80.6308 45.0077C80.9886 45.2273 81.2736 45.4874 81.4858 45.7879C81.7088 46.0835 81.8428 46.4271 81.8879 46.8187C81.9437 47.2053 81.8812 47.6471 81.7003 48.1441C81.5223 48.6332 81.2941 49.0147 81.0157 49.2886C80.7374 49.5625 80.4242 49.7479 80.0763 49.8446C79.7285 49.9413 79.3494 49.9641 78.9391 49.9131C78.5318 49.8542 78.1072 49.7443 77.6654 49.5835L76.3164 49.0925L75.1277 52.3585L73.2818 51.6866L76.3311 43.3087ZM76.885 47.5305L78.1156 47.9785C78.2813 48.0388 78.4448 48.0804 78.6062 48.1034C78.7754 48.1293 78.9321 48.1283 79.0763 48.1003C79.2312 48.0674 79.3672 48.0007 79.4841 47.9003C79.6118 47.7949 79.7116 47.6436 79.7833 47.4464C79.8609 47.2334 79.8713 47.0451 79.8147 46.8816C79.7689 46.713 79.68 46.5645 79.548 46.4361C79.424 46.3106 79.2702 46.2054 79.0866 46.1207C78.9059 46.0282 78.7287 45.9503 78.5552 45.8871L77.6085 45.5426L76.885 47.5305Z" fill="white"/>
<path d="M82.9562 45.7201L86.1985 46.9002C86.6245 47.0552 87.0111 47.2451 87.3581 47.4697C87.716 47.6892 88.001 47.9493 88.2132 48.2499C88.4362 48.5455 88.5702 48.8891 88.6153 49.2807C88.6711 49.6673 88.61 50.1052 88.432 50.5943C88.2167 51.1859 87.8791 51.6348 87.4192 51.9409C86.9623 52.2392 86.4178 52.3358 85.786 52.2309L86.6282 56.5443L84.4154 55.7389L83.8829 51.7527L82.9718 51.4211L81.7529 54.7699L79.9069 54.098L82.9562 45.7201ZM83.5403 49.8591L84.6289 50.2553C84.7946 50.3156 84.9696 50.3748 85.1539 50.433C85.349 50.4861 85.5315 50.5124 85.7015 50.5117C85.8744 50.5031 86.0311 50.453 86.1717 50.3612C86.3202 50.2723 86.4361 50.1135 86.5193 49.8847C86.5969 49.6717 86.6152 49.4863 86.5744 49.3285C86.5335 49.1707 86.4575 49.0358 86.3464 48.9239C86.2381 48.8041 86.1015 48.7008 85.9366 48.6139C85.7717 48.5271 85.6064 48.4535 85.4407 48.3933L84.2337 47.9539L83.5403 49.8591ZM86.0467 43.8565L86.4562 45.0509L87.5258 44.3949L89.1233 44.9763L87.0949 46.1678L85.1661 45.4658L84.4137 43.2622L86.0467 43.8565Z" fill="white"/>
<path d="M89.7773 48.2028L91.6233 48.8746L88.574 57.2525L86.728 56.5806L89.7773 48.2028Z" fill="white"/>
<path d="M92.4741 49.1843L95.5862 50.317C96.0201 50.4749 96.416 50.6637 96.7738 50.8833C97.1316 51.1029 97.4167 51.3629 97.6289 51.6635C97.8518 51.9591 97.9859 52.3027 98.0309 52.6943C98.0868 53.0809 98.0242 53.5227 97.8433 54.0197C97.6653 54.5088 97.4371 54.8903 97.1588 55.1642C96.8804 55.4381 96.5673 55.6234 96.2194 55.7202C95.8715 55.8169 95.4924 55.8397 95.0822 55.7887C94.6748 55.7298 94.2502 55.6199 93.8085 55.4591L92.4595 54.9681L91.2708 58.2341L89.4248 57.5622L92.4741 49.1843ZM93.028 53.4061L94.2586 53.854C94.4243 53.9143 94.5878 53.956 94.7492 53.979C94.9184 54.0049 95.0752 54.0038 95.2193 53.9759C95.3743 53.943 95.5102 53.8763 95.6271 53.7759C95.7548 53.6705 95.8546 53.5192 95.9264 53.322C96.0039 53.109 96.0144 52.9207 95.9577 52.7572C95.9119 52.5886 95.823 52.4401 95.6911 52.3117C95.567 52.1861 95.4132 52.081 95.2296 51.9963C95.0489 51.9038 94.8718 51.8259 94.6982 51.7627L93.7515 51.4182L93.028 53.4061Z" fill="white"/>
<path d="M99.0993 51.5957L102.342 52.7758C102.768 52.9308 103.154 53.1206 103.501 53.3452C103.859 53.5648 104.144 53.8249 104.356 54.1255C104.579 54.4211 104.713 54.7647 104.758 55.1563C104.814 55.5429 104.753 55.9807 104.575 56.4698C104.36 57.0615 104.022 57.5104 103.562 57.8165C103.105 58.1148 102.561 58.2114 101.929 58.1065L102.771 62.4199L100.558 61.6145L100.026 57.6283L99.1148 57.2966L97.8959 60.6454L96.05 59.9736L99.0993 51.5957ZM99.6833 55.7347L100.772 56.1309C100.938 56.1912 101.113 56.2504 101.297 56.3086C101.492 56.3617 101.675 56.3879 101.845 56.3873C102.017 56.3787 102.174 56.3286 102.315 56.2368C102.463 56.1479 102.579 55.9891 102.662 55.7603C102.74 55.5473 102.758 55.3619 102.717 55.2041C102.677 55.0463 102.601 54.9114 102.489 54.7995C102.381 54.6797 102.245 54.5764 102.08 54.4895C101.915 54.4027 101.749 54.3291 101.584 54.2688L100.377 53.8295L99.6833 55.7347Z" fill="white"/>
<path d="M108.701 55.0905L110.228 55.6461L110.823 65.3505L108.74 64.5925L108.665 62.5548L105.41 61.3704L104.066 62.8912L102.031 62.1504L108.701 55.0905ZM108.524 57.7865L106.559 60.0194L108.606 60.7645L108.524 57.7865Z" fill="white"/>
<path d="M112.33 56.4113L114.437 57.178L114.509 63.4223L114.533 63.4309L118.637 58.7069L120.613 59.4262L114.109 66.5464L112.63 66.0081L112.33 56.4113Z" fill="white"/>
<path d="M125.853 67.1625C125.672 67.6595 125.43 68.0898 125.128 68.4533C124.826 68.8169 124.469 69.0979 124.058 69.2965C123.654 69.4979 123.199 69.605 122.694 69.6178C122.19 69.6305 121.649 69.5321 121.073 69.3225C120.489 69.11 120.008 68.8366 119.63 68.5023C119.251 68.1679 118.968 67.7924 118.78 67.3756C118.6 66.9617 118.511 66.5184 118.514 66.0458C118.516 65.5731 118.608 65.0883 118.788 64.5913L120.662 59.4439L122.508 60.1157L120.66 65.1922C120.566 65.4525 120.517 65.7075 120.516 65.9571C120.522 66.2095 120.57 66.4459 120.66 66.6661C120.752 66.8784 120.884 67.0692 121.055 67.2386C121.236 67.4029 121.449 67.5295 121.693 67.6185C121.938 67.7075 122.179 67.746 122.415 67.7339C122.655 67.7138 122.878 67.6522 123.086 67.549C123.296 67.4379 123.481 67.2863 123.64 67.0941C123.807 66.9048 123.938 66.68 124.033 66.4196L125.88 61.3432L127.726 62.0151L125.853 67.1625Z" fill="white"/>
<path d="M130.907 69.4845C130.766 69.871 130.594 70.2328 130.391 70.5698C130.196 70.9098 129.952 71.1873 129.659 71.4023C129.37 71.6095 129.016 71.7353 128.597 71.7797C128.19 71.819 127.702 71.7353 127.134 71.5286C126.472 71.2874 125.969 70.9257 125.626 70.4436C125.284 69.9616 125.167 69.3608 125.277 68.6415L127.12 68.8432C127.069 69.0569 127.097 69.2635 127.203 69.4629C127.317 69.6652 127.476 69.8037 127.681 69.8784C127.894 69.9559 128.079 69.9649 128.234 69.9054C128.393 69.838 128.528 69.7355 128.641 69.5978C128.754 69.4602 128.847 69.302 128.921 69.1235C129.006 68.9399 129.077 68.7692 129.134 68.6114L131.089 63.2392L132.935 63.911L130.907 69.4845Z" fill="white"/>
<path d="M133.764 64.2125L139.456 66.2842L138.835 67.9881L134.99 66.5884L134.421 68.1504L138.054 69.4726L137.434 71.1766L133.801 69.8543L133.181 71.5583L137.239 73.0356L136.619 74.7396L130.714 72.5904L133.764 64.2125Z" fill="white"/>
<path d="M140.318 66.5981L143.111 67.6145L143.05 73.7834L143.073 73.792L147.004 69.0315L149.785 70.0436L146.735 78.4215L144.889 77.7496L147.228 71.3242L147.204 71.3156L142.665 76.9399L141.256 76.4274L141.477 69.231L141.453 69.2224L139.115 75.6478L137.269 74.9759L140.318 66.5981Z" fill="white"/>
<path d="M150.735 70.3896L156.427 72.4612L155.807 74.1652L151.961 72.7654L151.392 74.3274L155.025 75.6496L154.405 77.3536L150.772 76.0314L150.152 77.7354L154.211 79.2126L153.591 80.9166L147.686 78.7675L150.735 70.3896Z" fill="white"/>
</g>
<defs>
<filter id="filter0_d_4323_3426" x="57.2373" y="9.24414" width="114.341" height="114.341" filterUnits="userSpaceOnUse" color-interpolation-filters="sRGB">
<feFlood flood-opacity="0" result="BackgroundImageFix"/>
<feColorMatrix in="SourceAlpha" type="matrix" values="0 0 0 0 0 0 0 0 0 0 0 0 0 0 0 0 0 0 127 0" result="hardAlpha"/>
<feOffset dy="4"/>
<feGaussianBlur stdDeviation="2"/>
<feComposite in2="hardAlpha" operator="out"/>
<feColorMatrix type="matrix" values="0 0 0 0 0 0 0 0 0 0 0 0 0 0 0 0 0 0 0.25 0"/>
<feBlend mode="normal" in2="BackgroundImageFix" result="effect1_dropShadow_4323_3426"/>
<feBlend mode="normal" in="SourceGraphic" in2="effect1_dropShadow_4323_3426" result="shape"/>
</filter>
<clipPath id="clip0_4323_3426">
<rect width="170" height="170" fill="white" transform="translate(0 0.120117)"/>
</clipPath>
</defs>
</svg>
