<svg width="170" height="171" viewBox="0 0 170 171" fill="none" xmlns="http://www.w3.org/2000/svg">
<rect width="170" height="170" transform="translate(0 0.120117)" fill="white"/>
<rect x="47.5234" y="81.8762" width="75.0302" height="40.974" fill="#747474"/>
<path d="M69.0774 98.1204V90.2904L67.4874 91.4904L66.4224 89.6304L69.3324 87.5004H71.4324V98.1204H69.0774ZM80.7383 90.4254C80.7383 90.7754 80.6933 91.1004 80.6033 91.4004C80.5133 91.7004 80.3933 91.9854 80.2433 92.2554C80.0933 92.5254 79.9233 92.7854 79.7333 93.0354C79.5433 93.2854 79.3483 93.5254 79.1483 93.7554L77.1683 96.0504H80.6033V98.1204H74.3183V95.9904L77.5433 92.2854C77.8033 91.9854 78.0083 91.6804 78.1583 91.3704C78.3083 91.0504 78.3833 90.7454 78.3833 90.4554C78.3833 90.1454 78.3083 89.8804 78.1583 89.6604C78.0183 89.4404 77.7933 89.3304 77.4833 89.3304C77.1933 89.3304 76.9533 89.4504 76.7633 89.6904C76.5733 89.9204 76.4583 90.2604 76.4183 90.7104L74.1683 90.5004C74.2883 89.4204 74.6533 88.6154 75.2633 88.0854C75.8833 87.5454 76.6483 87.2754 77.5583 87.2754C78.0483 87.2754 78.4883 87.3504 78.8783 87.5004C79.2683 87.6504 79.5983 87.8604 79.8683 88.1304C80.1483 88.4004 80.3633 88.7304 80.5133 89.1204C80.6633 89.5104 80.7383 89.9454 80.7383 90.4254ZM87.7221 90.2754V91.3854H87.7521C87.8521 91.0054 88.0621 90.6804 88.3821 90.4104C88.7021 90.1304 89.1121 89.9904 89.6121 89.9904C90.1721 89.9904 90.5871 90.1254 90.8571 90.3954C91.1371 90.6654 91.3321 90.9954 91.4421 91.3854H91.4721C91.5421 91.2054 91.6321 91.0354 91.7421 90.8754C91.8621 90.7054 92.0021 90.5554 92.1621 90.4254C92.3321 90.2954 92.5221 90.1904 92.7321 90.1104C92.9521 90.0304 93.1971 89.9904 93.4671 89.9904C93.9171 89.9904 94.2821 90.0854 94.5621 90.2754C94.8421 90.4554 95.0571 90.7004 95.2071 91.0104C95.3571 91.3204 95.4571 91.6754 95.5071 92.0754C95.5671 92.4754 95.5971 92.8904 95.5971 93.3204V98.1204H93.2721V93.3054C93.2721 92.9754 93.2221 92.6854 93.1221 92.4354C93.0221 92.1854 92.8321 92.0604 92.5521 92.0604C92.2621 92.0604 92.0371 92.1954 91.8771 92.4654C91.7271 92.7254 91.6521 93.0704 91.6521 93.5004V98.1204H89.3421V93.3054C89.3421 92.9754 89.2921 92.6854 89.1921 92.4354C89.1021 92.1854 88.9171 92.0604 88.6371 92.0604C88.3471 92.0604 88.1221 92.1954 87.9621 92.4654C87.8121 92.7254 87.7371 93.0704 87.7371 93.5004V98.1204H85.4271V90.2754H87.7221ZM103.411 90.2754V97.5654C103.411 98.9054 103.131 99.9304 102.571 100.64C102.011 101.36 101.121 101.72 99.9005 101.72C99.3505 101.72 98.8155 101.62 98.2955 101.42C97.7755 101.23 97.3455 100.99 97.0055 100.7L98.1005 98.9604C98.3305 99.1604 98.5805 99.3254 98.8505 99.4554C99.1305 99.5854 99.4305 99.6504 99.7505 99.6504C100.241 99.6504 100.591 99.4804 100.801 99.1404C101.021 98.8004 101.131 98.3754 101.131 97.8654V97.2204H101.101C100.991 97.4804 100.791 97.7154 100.501 97.9254C100.211 98.1254 99.8755 98.2254 99.4955 98.2254C99.0655 98.2254 98.6855 98.1254 98.3555 97.9254C98.0355 97.7154 97.7655 97.4304 97.5455 97.0704C97.3255 96.7004 97.1605 96.2704 97.0505 95.7804C96.9405 95.2804 96.8855 94.7454 96.8855 94.1754C96.8855 93.5754 96.9405 93.0254 97.0505 92.5254C97.1705 92.0154 97.3405 91.5804 97.5605 91.2204C97.7905 90.8504 98.0655 90.5604 98.3855 90.3504C98.7055 90.1404 99.0755 90.0354 99.4955 90.0354C99.9455 90.0354 100.296 90.1454 100.546 90.3654C100.806 90.5854 100.996 90.8654 101.116 91.2054H101.161V90.2754H103.411ZM101.206 94.1904C101.206 93.8904 101.186 93.6154 101.146 93.3654C101.106 93.1054 101.041 92.8804 100.951 92.6904C100.871 92.4904 100.766 92.3354 100.636 92.2254C100.516 92.1154 100.371 92.0604 100.201 92.0604C100.021 92.0604 99.8655 92.1154 99.7355 92.2254C99.6155 92.3354 99.5155 92.4904 99.4355 92.6904C99.3555 92.8804 99.2955 93.1054 99.2555 93.3654C99.2155 93.6154 99.1955 93.8904 99.1955 94.1904C99.1955 94.4804 99.2155 94.7554 99.2555 95.0154C99.2955 95.2754 99.3555 95.5054 99.4355 95.7054C99.5155 95.8954 99.6155 96.0454 99.7355 96.1554C99.8655 96.2654 100.021 96.3204 100.201 96.3204C100.371 96.3204 100.516 96.2654 100.636 96.1554C100.766 96.0454 100.871 95.8954 100.951 95.7054C101.041 95.5054 101.106 95.2754 101.146 95.0154C101.186 94.7554 101.206 94.4804 101.206 94.1904ZM72.9597 110.81C72.9597 111.41 72.9097 112.035 72.8097 112.685C72.7197 113.335 72.5447 113.935 72.2847 114.485C72.0347 115.025 71.6797 115.47 71.2197 115.82C70.7697 116.17 70.1847 116.345 69.4647 116.345C68.7447 116.345 68.1547 116.17 67.6947 115.82C67.2447 115.47 66.8897 115.025 66.6297 114.485C66.3797 113.935 66.2097 113.335 66.1197 112.685C66.0297 112.035 65.9847 111.41 65.9847 110.81C65.9847 110.21 66.0297 109.585 66.1197 108.935C66.2097 108.285 66.3797 107.69 66.6297 107.15C66.8897 106.6 67.2447 106.15 67.6947 105.8C68.1547 105.45 68.7447 105.275 69.4647 105.275C70.1847 105.275 70.7697 105.45 71.2197 105.8C71.6797 106.15 72.0347 106.6 72.2847 107.15C72.5447 107.69 72.7197 108.285 72.8097 108.935C72.9097 109.585 72.9597 110.21 72.9597 110.81ZM70.5597 110.81C70.5597 110.46 70.5447 110.085 70.5147 109.685C70.4947 109.285 70.4447 108.915 70.3647 108.575C70.2847 108.235 70.1747 107.955 70.0347 107.735C69.8947 107.505 69.7047 107.39 69.4647 107.39C69.2247 107.39 69.0347 107.505 68.8947 107.735C68.7547 107.955 68.6447 108.235 68.5647 108.575C68.4847 108.915 68.4297 109.285 68.3997 109.685C68.3797 110.085 68.3697 110.46 68.3697 110.81C68.3697 111.17 68.3797 111.55 68.3997 111.95C68.4297 112.35 68.4847 112.72 68.5647 113.06C68.6447 113.39 68.7547 113.67 68.8947 113.9C69.0347 114.12 69.2247 114.23 69.4647 114.23C69.7047 114.23 69.8947 114.12 70.0347 113.9C70.1747 113.67 70.2847 113.39 70.3647 113.06C70.4447 112.72 70.4947 112.35 70.5147 111.95C70.5447 111.55 70.5597 111.17 70.5597 110.81ZM75.5605 117.89H73.8205L74.7205 113.615H76.7755L75.5605 117.89ZM83.8185 113.99V116.12H81.6885V113.99H77.8035V111.95L80.9085 105.5H83.8185V112.01H84.8985V113.99H83.8185ZM81.7335 107.84H81.7035L79.8885 112.01H81.7335V107.84ZM91.5673 108.275V109.385H91.5973C91.6973 109.005 91.9073 108.68 92.2273 108.41C92.5473 108.13 92.9573 107.99 93.4573 107.99C94.0173 107.99 94.4323 108.125 94.7023 108.395C94.9823 108.665 95.1773 108.995 95.2873 109.385H95.3173C95.3873 109.205 95.4773 109.035 95.5873 108.875C95.7073 108.705 95.8473 108.555 96.0073 108.425C96.1773 108.295 96.3673 108.19 96.5773 108.11C96.7973 108.03 97.0423 107.99 97.3123 107.99C97.7623 107.99 98.1273 108.085 98.4073 108.275C98.6873 108.455 98.9023 108.7 99.0523 109.01C99.2023 109.32 99.3023 109.675 99.3523 110.075C99.4123 110.475 99.4423 110.89 99.4423 111.32V116.12H97.1173V111.305C97.1173 110.975 97.0673 110.685 96.9673 110.435C96.8673 110.185 96.6773 110.06 96.3973 110.06C96.1073 110.06 95.8823 110.195 95.7223 110.465C95.5723 110.725 95.4973 111.07 95.4973 111.5V116.12H93.1873V111.305C93.1873 110.975 93.1373 110.685 93.0373 110.435C92.9473 110.185 92.7623 110.06 92.4823 110.06C92.1923 110.06 91.9673 110.195 91.8073 110.465C91.6573 110.725 91.5823 111.07 91.5823 111.5V116.12H89.2723V108.275H91.5673ZM101.211 116.12V104.78H103.611V116.12H101.211Z" fill="white"/>
<path fill-rule="evenodd" clip-rule="evenodd" d="M109.888 55.8422H59.5177L59.5177 44.0544H55.1103V55.9374C48.89 56.7042 44.0742 62.0071 44.0742 68.4348V137.694C44.0742 144.649 49.7121 150.287 56.6668 150.287H113.333C120.288 150.287 125.926 144.649 125.926 137.694V68.4348C125.926 61.8037 120.801 56.3698 114.295 55.8784V44.0544H109.888V55.8422ZM113.333 60.2496H56.6668C52.1463 60.2496 48.4816 63.9142 48.4816 68.4348V137.694C48.4816 142.215 52.1463 145.879 56.6668 145.879H113.333C117.854 145.879 121.519 142.215 121.519 137.694V68.4348C121.519 63.9142 117.854 60.2496 113.333 60.2496Z" fill="black"/>
<path fill-rule="evenodd" clip-rule="evenodd" d="M56.6674 45.1387C53.19 45.1387 50.3711 42.3197 50.3711 38.8424V26.2498C50.3711 22.7724 53.19 19.9535 56.6674 19.9535H113.334C116.811 19.9535 119.63 22.7724 119.63 26.2498V38.8424C119.63 42.3197 116.811 45.1387 113.334 45.1387H56.6674Z" fill="#747474"/>
<g filter="url(#filter0_d_5205_46501)">
<ellipse cx="116.481" cy="33.4815" rx="31.4815" ry="31.4815" fill="#5BA600"/>
<path d="M146.463 33.4815C146.463 50.0398 133.04 63.463 116.481 63.463C99.9232 63.463 86.5 50.0398 86.5 33.4815C86.5 16.9232 99.9232 3.5 116.481 3.5C133.04 3.5 146.463 16.9232 146.463 33.4815Z" stroke="white" stroke-width="3"/>
</g>
<path d="M97.0493 35.4937L100.579 22.3206L102.677 22.8829L103.413 31.1564L103.45 31.1661L105.469 23.6308L107.512 24.1784L103.982 37.3515L102.012 36.8235L101.334 27.8224L101.298 27.8127L99.0927 36.0413L97.0493 35.4937Z" fill="white"/>
<path d="M109.305 35.2967C109.171 35.7954 109.157 36.1892 109.262 36.4781C109.37 36.7548 109.655 36.9551 110.118 37.079C110.58 37.2028 110.927 37.172 111.159 36.9865C111.395 36.7889 111.579 36.4407 111.713 35.942L113.502 29.2642C113.636 28.7655 113.648 28.3778 113.54 28.1011C113.435 27.8122 113.151 27.6058 112.689 27.482C112.227 27.3581 111.878 27.395 111.643 27.5926C111.41 27.7781 111.227 28.1202 111.094 28.6189L109.305 35.2967ZM108.846 27.958C108.97 27.4957 109.154 27.0758 109.399 26.6981C109.656 26.3236 109.965 26.0218 110.326 25.7927C110.699 25.5669 111.122 25.4258 111.593 25.3696C112.08 25.3045 112.621 25.3518 113.217 25.5115C113.813 25.6712 114.3 25.8993 114.676 26.1958C115.069 26.4834 115.364 26.8168 115.562 27.1958C115.773 27.5781 115.889 27.994 115.912 28.4434C115.947 28.8961 115.903 29.3535 115.779 29.8157L113.961 36.6029C113.837 37.0652 113.646 37.4835 113.39 37.8579C113.145 38.2356 112.836 38.5374 112.463 38.7633C112.101 38.9924 111.677 39.1396 111.191 39.2047C110.719 39.2609 110.186 39.2092 109.59 39.0494C108.994 38.8897 108.499 38.6661 108.107 38.3785C107.73 38.0819 107.437 37.7425 107.226 37.3602C107.028 36.9812 106.911 36.5653 106.876 36.1126C106.853 35.6632 106.904 35.2074 107.027 34.7452L108.846 27.958Z" fill="white"/>
<path d="M123.44 28.4463L125.666 29.0427L119.381 41.4776L117.119 40.8714L117.894 26.9601L120.12 27.5565L119.312 37.1374L119.349 37.1472L123.44 28.4463Z" fill="white"/>
<path d="M130.511 29.5977L128.996 29.1919L131.142 26.9508L133.605 27.6108L130.511 29.5977ZM123.402 42.5548L126.931 29.3817L132.989 31.0048L132.461 32.9753L128.666 31.9584L127.756 35.352L130.676 36.1342L130.148 38.1047L127.228 37.3225L126.192 41.1905L130.242 42.2758L129.714 44.2463L123.402 42.5548Z" fill="white"/>
<defs>
<filter id="filter0_d_5205_46501" x="81" y="2" width="70.9648" height="70.9629" filterUnits="userSpaceOnUse" color-interpolation-filters="sRGB">
<feFlood flood-opacity="0" result="BackgroundImageFix"/>
<feColorMatrix in="SourceAlpha" type="matrix" values="0 0 0 0 0 0 0 0 0 0 0 0 0 0 0 0 0 0 127 0" result="hardAlpha"/>
<feOffset dy="4"/>
<feGaussianBlur stdDeviation="2"/>
<feComposite in2="hardAlpha" operator="out"/>
<feColorMatrix type="matrix" values="0 0 0 0 0 0 0 0 0 0 0 0 0 0 0 0 0 0 0.25 0"/>
<feBlend mode="normal" in2="BackgroundImageFix" result="effect1_dropShadow_5205_46501"/>
<feBlend mode="normal" in="SourceGraphic" in2="effect1_dropShadow_5205_46501" result="shape"/>
</filter>
</defs>
</svg>
