<svg width="170" height="171" viewBox="0 0 170 171" fill="none" xmlns="http://www.w3.org/2000/svg">
<rect width="170" height="170" transform="translate(0 0.120117)" fill="white"/>
<rect x="47.5229" y="81.876" width="75.0302" height="40.974" fill="#995630"/>
<path d="M65.3036 98.5855V90.6975L63.7018 91.9064L62.6289 90.0326L65.5605 87.8868H67.676V98.5855H65.3036Z" fill="white"/>
<path d="M77.0659 95.0344C77.0659 95.669 76.9753 96.2231 76.7939 96.6966C76.6227 97.16 76.3809 97.5529 76.0686 97.8753C75.7664 98.1876 75.4087 98.4243 74.9957 98.5855C74.5827 98.7366 74.1444 98.8122 73.681 98.8122C72.865 98.8122 72.1548 98.5855 71.5504 98.1322C70.9459 97.6788 70.548 96.9938 70.3566 96.077L72.4268 95.4273C72.5074 95.7799 72.6434 96.0821 72.8348 96.3339C73.0363 96.5858 73.2982 96.7117 73.6206 96.7117C73.9933 96.7117 74.2704 96.5606 74.4517 96.2584C74.6431 95.9461 74.7388 95.5633 74.7388 95.1099C74.7388 94.5559 74.5827 94.1479 74.2704 93.8859C73.9681 93.624 73.6004 93.493 73.1673 93.493C72.855 93.493 72.4923 93.5434 72.0793 93.6442C71.6763 93.7348 71.3287 93.8406 71.0366 93.9615L71.2633 87.8868H76.6881V89.9873H73.2881L73.2126 91.8308C73.3335 91.7805 73.4695 91.7402 73.6206 91.7099C73.7818 91.6797 73.9178 91.6646 74.0286 91.6646C74.5121 91.6646 74.9403 91.7452 75.313 91.9064C75.6958 92.0676 76.0132 92.2942 76.265 92.5864C76.527 92.8785 76.7234 93.2311 76.8544 93.6442C76.9954 94.0572 77.0659 94.5206 77.0659 95.0344Z" fill="white"/>
<path d="M85.2923 93.2362C85.2923 93.8406 85.2419 94.4702 85.1412 95.125C85.0505 95.7799 84.8742 96.3843 84.6123 96.9384C84.3604 97.4824 84.0028 97.9307 83.5394 98.2833C83.086 98.6359 82.4967 98.8122 81.7714 98.8122C81.046 98.8122 80.4517 98.6359 79.9883 98.2833C79.5349 97.9307 79.1773 97.4824 78.9154 96.9384C78.6635 96.3843 78.4923 95.7799 78.4016 95.125C78.3109 94.4702 78.2656 93.8406 78.2656 93.2362C78.2656 92.6317 78.3109 92.0021 78.4016 91.3473C78.4923 90.6925 78.6635 90.093 78.9154 89.549C79.1773 88.995 79.5349 88.5416 79.9883 88.189C80.4517 87.8365 81.046 87.6602 81.7714 87.6602C82.4967 87.6602 83.086 87.8365 83.5394 88.189C84.0028 88.5416 84.3604 88.995 84.6123 89.549C84.8742 90.093 85.0505 90.6925 85.1412 91.3473C85.2419 92.0021 85.2923 92.6317 85.2923 93.2362ZM82.8745 93.2362C82.8745 92.8836 82.8594 92.5058 82.8292 92.1028C82.809 91.6999 82.7586 91.3271 82.678 90.9846C82.5975 90.6421 82.4866 90.36 82.3456 90.1384C82.2046 89.9067 82.0132 89.7908 81.7714 89.7908C81.5296 89.7908 81.3382 89.9067 81.1972 90.1384C81.0561 90.36 80.9453 90.6421 80.8647 90.9846C80.7841 91.3271 80.7287 91.6999 80.6985 92.1028C80.6783 92.5058 80.6683 92.8836 80.6683 93.2362C80.6683 93.5988 80.6783 93.9816 80.6985 94.3846C80.7287 94.7876 80.7841 95.1603 80.8647 95.5028C80.9453 95.8353 81.0561 96.1173 81.1972 96.349C81.3382 96.5707 81.5296 96.6815 81.7714 96.6815C82.0132 96.6815 82.2046 96.5707 82.3456 96.349C82.4866 96.1173 82.5975 95.8353 82.678 95.5028C82.7586 95.1603 82.809 94.7876 82.8292 94.3846C82.8594 93.9816 82.8745 93.5988 82.8745 93.2362Z" fill="white"/>
<path d="M92.0256 90.6824V91.8006H92.0558C92.1565 91.4178 92.3681 91.0904 92.6905 90.8184C93.0128 90.5363 93.4259 90.3953 93.9296 90.3953C94.4937 90.3953 94.9118 90.5313 95.1838 90.8033C95.4659 91.0753 95.6623 91.4077 95.7731 91.8006H95.8033C95.8739 91.6193 95.9645 91.448 96.0753 91.2868C96.1962 91.1156 96.3373 90.9645 96.4985 90.8335C96.6697 90.7025 96.8611 90.5967 97.0727 90.5162C97.2943 90.4356 97.5411 90.3953 97.8131 90.3953C98.2665 90.3953 98.6342 90.491 98.9162 90.6824C99.1983 90.8637 99.4149 91.1105 99.566 91.4228C99.7171 91.7351 99.8179 92.0927 99.8682 92.4957C99.9287 92.8987 99.9589 93.3167 99.9589 93.7499V98.5855H97.6167V93.7348C97.6167 93.4024 97.5663 93.1102 97.4656 92.8584C97.3648 92.6065 97.1734 92.4806 96.8913 92.4806C96.5992 92.4806 96.3725 92.6166 96.2113 92.8886C96.0602 93.1505 95.9847 93.4981 95.9847 93.9313V98.5855H93.6576V93.7348C93.6576 93.4024 93.6072 93.1102 93.5065 92.8584C93.4158 92.6065 93.2294 92.4806 92.9473 92.4806C92.6552 92.4806 92.4285 92.6166 92.2673 92.8886C92.1162 93.1505 92.0407 93.4981 92.0407 93.9313V98.5855H89.7136V90.6824H92.0256Z" fill="white"/>
<path d="M107.83 90.6824V98.0264C107.83 99.3763 107.548 100.409 106.984 101.124C106.42 101.849 105.523 102.212 104.294 102.212C103.74 102.212 103.201 102.111 102.677 101.91C102.154 101.719 101.72 101.477 101.378 101.185L102.481 99.4317C102.713 99.6332 102.964 99.7994 103.236 99.9304C103.519 100.061 103.821 100.127 104.143 100.127C104.637 100.127 104.989 99.9556 105.201 99.613C105.423 99.2705 105.533 98.8424 105.533 98.3286V97.6788H105.503C105.392 97.9407 105.191 98.1775 104.899 98.389C104.607 98.5905 104.269 98.6913 103.886 98.6913C103.453 98.6913 103.07 98.5905 102.738 98.389C102.415 98.1775 102.143 97.8904 101.922 97.5277C101.7 97.155 101.534 96.7218 101.423 96.2282C101.312 95.7245 101.257 95.1855 101.257 94.6113C101.257 94.0068 101.312 93.4527 101.423 92.949C101.544 92.4353 101.715 91.997 101.937 91.6344C102.169 91.2616 102.446 90.9695 102.768 90.7579C103.09 90.5464 103.463 90.4406 103.886 90.4406C104.34 90.4406 104.692 90.5514 104.944 90.773C105.206 90.9947 105.397 91.2767 105.518 91.6193H105.564V90.6824H107.83ZM105.609 94.6264C105.609 94.3242 105.589 94.0471 105.548 93.7953C105.508 93.5333 105.443 93.3067 105.352 93.1153C105.271 92.9138 105.166 92.7576 105.035 92.6468C104.914 92.536 104.768 92.4806 104.596 92.4806C104.415 92.4806 104.259 92.536 104.128 92.6468C104.007 92.7576 103.906 92.9138 103.826 93.1153C103.745 93.3067 103.685 93.5333 103.644 93.7953C103.604 94.0471 103.584 94.3242 103.584 94.6264C103.584 94.9185 103.604 95.1956 103.644 95.4575C103.685 95.7194 103.745 95.9511 103.826 96.1526C103.906 96.344 104.007 96.4951 104.128 96.6059C104.259 96.7167 104.415 96.7722 104.596 96.7722C104.768 96.7722 104.914 96.7167 105.035 96.6059C105.166 96.4951 105.271 96.344 105.352 96.1526C105.443 95.9511 105.508 95.7194 105.548 95.4575C105.589 95.1956 105.609 94.9185 105.609 94.6264Z" fill="white"/>
<path d="M75.08 115.585V107.697L73.4783 108.906L72.4054 107.033L75.3369 104.887H77.4525V115.585H75.08Z" fill="white"/>
<path d="M85.9236 107.682V108.801H85.9538C86.0545 108.418 86.2661 108.09 86.5885 107.818C86.9108 107.536 87.3239 107.395 87.8276 107.395C88.3917 107.395 88.8098 107.531 89.0818 107.803C89.3639 108.075 89.5603 108.408 89.6711 108.801H89.7013C89.7719 108.619 89.8625 108.448 89.9733 108.287C90.0942 108.116 90.2353 107.964 90.3965 107.833C90.5677 107.703 90.7591 107.597 90.9707 107.516C91.1923 107.436 91.4391 107.395 91.7111 107.395C92.1645 107.395 92.5322 107.491 92.8142 107.682C93.0963 107.864 93.3129 108.111 93.464 108.423C93.6151 108.735 93.7159 109.093 93.7662 109.496C93.8267 109.899 93.8569 110.317 93.8569 110.75V115.585H91.5147V110.735C91.5147 110.402 91.4643 110.11 91.3636 109.858C91.2628 109.607 91.0714 109.481 90.7893 109.481C90.4972 109.481 90.2705 109.617 90.1093 109.889C89.9582 110.151 89.8827 110.498 89.8827 110.931V115.585H87.5556V110.735C87.5556 110.402 87.5052 110.11 87.4045 109.858C87.3138 109.607 87.1274 109.481 86.8453 109.481C86.5532 109.481 86.3265 109.617 86.1653 109.889C86.0142 110.151 85.9387 110.498 85.9387 110.931V115.585H83.6116V107.682H85.9236Z" fill="white"/>
<path d="M95.6385 115.585V104.161H98.0563V115.585H95.6385Z" fill="white"/>
<path fill-rule="evenodd" clip-rule="evenodd" d="M109.888 55.8424H59.5177L59.5177 44.0547H55.1103V55.9377C48.89 56.7045 44.0742 62.0073 44.0742 68.435V137.694C44.0742 144.649 49.7121 150.287 56.6668 150.287H113.333C120.288 150.287 125.926 144.649 125.926 137.694V68.435C125.926 61.804 120.801 56.37 114.295 55.8786V44.0547H109.888V55.8424ZM113.333 60.2498H56.6668C52.1463 60.2498 48.4816 63.9145 48.4816 68.435V137.694C48.4816 142.215 52.1463 145.879 56.6668 145.879H113.333C117.854 145.879 121.519 142.215 121.519 137.694V68.435C121.519 63.9145 117.854 60.2498 113.333 60.2498Z" fill="black"/>
<path fill-rule="evenodd" clip-rule="evenodd" d="M56.6669 45.1387C53.1896 45.1387 50.3706 42.3197 50.3706 38.8424V26.2498C50.3706 22.7724 53.1896 19.9535 56.6669 19.9535H113.334C116.811 19.9535 119.63 22.7724 119.63 26.2498V38.8424C119.63 42.3197 116.811 45.1387 113.334 45.1387H56.6669Z" fill="#995630"/>
</svg>
