<svg width="170" height="171" viewBox="0 0 170 171" fill="none" xmlns="http://www.w3.org/2000/svg">
<rect width="170" height="170" transform="translate(0 0.120117)" fill="white"/>
<rect x="47.5229" y="81.876" width="75.0302" height="40.974" fill="#D5D13C"/>
<path d="M69.1871 95.4575C69.1871 96.0015 69.0964 96.48 68.9151 96.893C68.7438 97.3061 68.5071 97.6587 68.2049 97.9508C67.9027 98.2329 67.545 98.4445 67.132 98.5855C66.729 98.7366 66.2908 98.8122 65.8173 98.8122C64.9409 98.8122 64.1904 98.5905 63.5658 98.1473C62.9412 97.6939 62.5281 97.0089 62.3267 96.0922L64.4573 95.5482C64.5379 95.9007 64.679 96.1879 64.8804 96.4095C65.0819 96.6311 65.359 96.7419 65.7115 96.7419C65.903 96.7419 66.0692 96.7016 66.2102 96.621C66.3513 96.5405 66.4671 96.4347 66.5578 96.3037C66.6585 96.1727 66.729 96.0267 66.7693 95.8655C66.8197 95.6942 66.8449 95.523 66.8449 95.3517C66.8449 94.8883 66.7089 94.5458 66.4369 94.3242C66.175 94.1025 65.8224 93.9917 65.3791 93.9917H64.8351V92.2086H65.4395C65.8425 92.2086 66.1498 92.0927 66.3613 91.861C66.583 91.6193 66.6938 91.2868 66.6938 90.8637C66.6938 90.5917 66.6132 90.3348 66.452 90.093C66.3009 89.8513 66.0541 89.7304 65.7115 89.7304C65.4194 89.7304 65.1927 89.8261 65.0315 90.0175C64.8704 90.2089 64.7495 90.4507 64.6689 90.7428L62.5987 90.229C62.7195 89.7656 62.8908 89.3727 63.1124 89.0504C63.3441 88.728 63.601 88.4661 63.8831 88.2646C64.1753 88.053 64.4926 87.9019 64.8351 87.8113C65.1776 87.7105 65.5252 87.6602 65.8778 87.6602C66.2707 87.6602 66.6484 87.7206 67.0111 87.8415C67.3838 87.9624 67.7163 88.1437 68.0084 88.3855C68.3006 88.6273 68.5323 88.9295 68.7035 89.2922C68.8849 89.6548 68.9755 90.0779 68.9755 90.5615C68.9755 91.1861 68.8395 91.715 68.5675 92.1482C68.3056 92.5713 67.953 92.8533 67.5098 92.9944V93.0397C68.0235 93.1807 68.4315 93.4729 68.7338 93.9162C69.036 94.3594 69.1871 94.8732 69.1871 95.4575Z" fill="white"/>
<path d="M77.353 93.2362C77.353 93.8406 77.3026 94.4702 77.2019 95.125C77.1112 95.7799 76.9349 96.3843 76.673 96.9384C76.4212 97.4824 76.0635 97.9307 75.6001 98.2833C75.1468 98.6359 74.5575 98.8122 73.8321 98.8122C73.1068 98.8122 72.5124 98.6359 72.049 98.2833C71.5957 97.9307 71.238 97.4824 70.9761 96.9384C70.7243 96.3843 70.553 95.7799 70.4623 95.125C70.3717 94.4702 70.3263 93.8406 70.3263 93.2362C70.3263 92.6317 70.3717 92.0021 70.4623 91.3473C70.553 90.6925 70.7243 90.093 70.9761 89.549C71.238 88.995 71.5957 88.5416 72.049 88.189C72.5124 87.8365 73.1068 87.6602 73.8321 87.6602C74.5575 87.6602 75.1468 87.8365 75.6001 88.189C76.0635 88.5416 76.4212 88.995 76.673 89.549C76.9349 90.093 77.1112 90.6925 77.2019 91.3473C77.3026 92.0021 77.353 92.6317 77.353 93.2362ZM74.9352 93.2362C74.9352 92.8836 74.9201 92.5058 74.8899 92.1028C74.8697 91.6999 74.8194 91.3271 74.7388 90.9846C74.6582 90.6421 74.5474 90.36 74.4063 90.1384C74.2653 89.9067 74.0739 89.7908 73.8321 89.7908C73.5903 89.7908 73.3989 89.9067 73.2579 90.1384C73.1169 90.36 73.006 90.6421 72.9254 90.9846C72.8449 91.3271 72.7894 91.6999 72.7592 92.1028C72.7391 92.5058 72.729 92.8836 72.729 93.2362C72.729 93.5988 72.7391 93.9816 72.7592 94.3846C72.7894 94.7876 72.8449 95.1603 72.9254 95.5028C73.006 95.8353 73.1169 96.1173 73.2579 96.349C73.3989 96.5707 73.5903 96.6815 73.8321 96.6815C74.0739 96.6815 74.2653 96.5707 74.4063 96.349C74.5474 96.1173 74.6582 95.8353 74.7388 95.5028C74.8194 95.1603 74.8697 94.7876 74.8899 94.3846C74.9201 93.9816 74.9352 93.5988 74.9352 93.2362Z" fill="white"/>
<path d="M85.2922 93.2362C85.2922 93.8406 85.2419 94.4702 85.1411 95.125C85.0505 95.7799 84.8742 96.3843 84.6122 96.9384C84.3604 97.4824 84.0028 97.9307 83.5394 98.2833C83.086 98.6359 82.4967 98.8122 81.7714 98.8122C81.046 98.8122 80.4516 98.6359 79.9882 98.2833C79.5349 97.9307 79.1773 97.4824 78.9154 96.9384C78.6635 96.3843 78.4922 95.7799 78.4016 95.125C78.3109 94.4702 78.2656 93.8406 78.2656 93.2362C78.2656 92.6317 78.3109 92.0021 78.4016 91.3473C78.4922 90.6925 78.6635 90.093 78.9154 89.549C79.1773 88.995 79.5349 88.5416 79.9882 88.189C80.4516 87.8365 81.046 87.6602 81.7714 87.6602C82.4967 87.6602 83.086 87.8365 83.5394 88.189C84.0028 88.5416 84.3604 88.995 84.6122 89.549C84.8742 90.093 85.0505 90.6925 85.1411 91.3473C85.2419 92.0021 85.2922 92.6317 85.2922 93.2362ZM82.8745 93.2362C82.8745 92.8836 82.8594 92.5058 82.8291 92.1028C82.809 91.6999 82.7586 91.3271 82.678 90.9846C82.5974 90.6421 82.4866 90.36 82.3456 90.1384C82.2045 89.9067 82.0131 89.7908 81.7714 89.7908C81.5296 89.7908 81.3382 89.9067 81.1971 90.1384C81.0561 90.36 80.9453 90.6421 80.8647 90.9846C80.7841 91.3271 80.7287 91.6999 80.6985 92.1028C80.6783 92.5058 80.6682 92.8836 80.6682 93.2362C80.6682 93.5988 80.6783 93.9816 80.6985 94.3846C80.7287 94.7876 80.7841 95.1603 80.8647 95.5028C80.9453 95.8353 81.0561 96.1173 81.1971 96.349C81.3382 96.5707 81.5296 96.6815 81.7714 96.6815C82.0131 96.6815 82.2045 96.5707 82.3456 96.349C82.4866 96.1173 82.5974 95.8353 82.678 95.5028C82.7586 95.1603 82.809 94.7876 82.8291 94.3846C82.8594 93.9816 82.8745 93.5988 82.8745 93.2362Z" fill="white"/>
<path d="M92.0255 90.6824V91.8006H92.0558C92.1565 91.4178 92.3681 91.0904 92.6904 90.8184C93.0128 90.5363 93.4258 90.3953 93.9295 90.3953C94.4937 90.3953 94.9118 90.5313 95.1838 90.8033C95.4658 91.0753 95.6623 91.4077 95.7731 91.8006H95.8033C95.8738 91.6193 95.9645 91.448 96.0753 91.2868C96.1962 91.1156 96.3372 90.9645 96.4984 90.8335C96.6697 90.7025 96.8611 90.5967 97.0727 90.5162C97.2943 90.4356 97.5411 90.3953 97.8131 90.3953C98.2664 90.3953 98.6341 90.491 98.9162 90.6824C99.1983 90.8637 99.4149 91.1105 99.566 91.4228C99.7171 91.7351 99.8178 92.0927 99.8682 92.4957C99.9286 92.8987 99.9589 93.3167 99.9589 93.7499V98.5855H97.6166V93.7348C97.6166 93.4024 97.5663 93.1102 97.4655 92.8584C97.3648 92.6065 97.1734 92.4806 96.8913 92.4806C96.5992 92.4806 96.3725 92.6166 96.2113 92.8886C96.0602 93.1505 95.9846 93.4981 95.9846 93.9313V98.5855H93.6575V93.7348C93.6575 93.4024 93.6072 93.1102 93.5064 92.8584C93.4158 92.6065 93.2294 92.4806 92.9473 92.4806C92.6552 92.4806 92.4285 92.6166 92.2673 92.8886C92.1162 93.1505 92.0407 93.4981 92.0407 93.9313V98.5855H89.7135V90.6824H92.0255Z" fill="white"/>
<path d="M107.83 90.6824V98.0264C107.83 99.3763 107.548 100.409 106.984 101.124C106.42 101.849 105.523 102.212 104.294 102.212C103.74 102.212 103.201 102.111 102.677 101.91C102.153 101.719 101.72 101.477 101.378 101.185L102.481 99.4317C102.713 99.6332 102.964 99.7994 103.236 99.9304C103.519 100.061 103.821 100.127 104.143 100.127C104.637 100.127 104.989 99.9556 105.201 99.613C105.423 99.2705 105.533 98.8424 105.533 98.3286V97.6788H105.503C105.392 97.9407 105.191 98.1775 104.899 98.389C104.607 98.5905 104.269 98.6913 103.886 98.6913C103.453 98.6913 103.07 98.5905 102.738 98.389C102.415 98.1775 102.143 97.8904 101.922 97.5277C101.7 97.155 101.534 96.7218 101.423 96.2282C101.312 95.7245 101.257 95.1855 101.257 94.6113C101.257 94.0068 101.312 93.4527 101.423 92.949C101.544 92.4353 101.715 91.997 101.937 91.6344C102.169 91.2616 102.446 90.9695 102.768 90.7579C103.09 90.5464 103.463 90.4406 103.886 90.4406C104.34 90.4406 104.692 90.5514 104.944 90.773C105.206 90.9947 105.397 91.2767 105.518 91.6193H105.564V90.6824H107.83ZM105.609 94.6264C105.609 94.3242 105.589 94.0471 105.548 93.7953C105.508 93.5333 105.443 93.3067 105.352 93.1153C105.271 92.9138 105.166 92.7576 105.035 92.6468C104.914 92.536 104.768 92.4806 104.596 92.4806C104.415 92.4806 104.259 92.536 104.128 92.6468C104.007 92.7576 103.906 92.9138 103.826 93.1153C103.745 93.3067 103.685 93.5333 103.644 93.7953C103.604 94.0471 103.584 94.3242 103.584 94.6264C103.584 94.9185 103.604 95.1956 103.644 95.4575C103.685 95.7194 103.745 95.9511 103.826 96.1526C103.906 96.344 104.007 96.4951 104.128 96.6059C104.259 96.7167 104.415 96.7722 104.596 96.7722C104.768 96.7722 104.914 96.7167 105.035 96.6059C105.166 96.4951 105.271 96.344 105.352 96.1526C105.443 95.9511 105.508 95.7194 105.548 95.4575C105.589 95.1956 105.609 94.9185 105.609 94.6264Z" fill="white"/>
<path d="M78.888 107.833C78.888 108.186 78.8427 108.513 78.752 108.816C78.6614 109.118 78.5405 109.405 78.3894 109.677C78.2382 109.949 78.067 110.211 77.8756 110.463C77.6842 110.715 77.4877 110.956 77.2862 111.188L75.2916 113.5H78.752V115.585H72.4205V113.44L75.6694 109.707C75.9313 109.405 76.1378 109.098 76.2889 108.785C76.44 108.463 76.5156 108.156 76.5156 107.864C76.5156 107.551 76.44 107.284 76.2889 107.063C76.1479 106.841 75.9212 106.73 75.6089 106.73C75.3168 106.73 75.075 106.851 74.8836 107.093C74.6922 107.325 74.5763 107.667 74.536 108.121L72.2694 107.909C72.3902 106.821 72.7579 106.01 73.3725 105.476C73.9971 104.932 74.7677 104.66 75.6845 104.66C76.1781 104.66 76.6214 104.736 77.0142 104.887C77.4071 105.038 77.7396 105.249 78.0116 105.521C78.2937 105.793 78.5102 106.126 78.6614 106.519C78.8125 106.912 78.888 107.35 78.888 107.833Z" fill="white"/>
<path d="M85.9235 107.682V108.801H85.9538C86.0545 108.418 86.2661 108.09 86.5884 107.818C86.9108 107.536 87.3238 107.395 87.8275 107.395C88.3917 107.395 88.8098 107.531 89.0818 107.803C89.3638 108.075 89.5603 108.408 89.6711 108.801H89.7013C89.7718 108.619 89.8625 108.448 89.9733 108.287C90.0942 108.116 90.2352 107.964 90.3964 107.833C90.5677 107.703 90.7591 107.597 90.9707 107.516C91.1923 107.436 91.4391 107.395 91.7111 107.395C92.1644 107.395 92.5321 107.491 92.8142 107.682C93.0963 107.864 93.3129 108.111 93.464 108.423C93.6151 108.735 93.7158 109.093 93.7662 109.496C93.8267 109.899 93.8569 110.317 93.8569 110.75V115.585H91.5147V110.735C91.5147 110.402 91.4643 110.11 91.3635 109.858C91.2628 109.607 91.0714 109.481 90.7893 109.481C90.4972 109.481 90.2705 109.617 90.1093 109.889C89.9582 110.151 89.8827 110.498 89.8827 110.931V115.585H87.5555V110.735C87.5555 110.402 87.5052 110.11 87.4044 109.858C87.3138 109.607 87.1274 109.481 86.8453 109.481C86.5532 109.481 86.3265 109.617 86.1653 109.889C86.0142 110.151 85.9387 110.498 85.9387 110.931V115.585H83.6115V107.682H85.9235Z" fill="white"/>
<path d="M95.6385 115.585V104.161H98.0562V115.585H95.6385Z" fill="white"/>
<path fill-rule="evenodd" clip-rule="evenodd" d="M109.888 55.8424H59.5177L59.5177 44.0547H55.1103V55.9377C48.89 56.7045 44.0742 62.0073 44.0742 68.435V137.694C44.0742 144.649 49.7121 150.287 56.6668 150.287H113.333C120.288 150.287 125.926 144.649 125.926 137.694V68.435C125.926 61.804 120.801 56.37 114.295 55.8786V44.0547H109.888V55.8424ZM113.333 60.2498H56.6668C52.1463 60.2498 48.4816 63.9145 48.4816 68.435V137.694C48.4816 142.215 52.1463 145.879 56.6668 145.879H113.333C117.854 145.879 121.519 142.215 121.519 137.694V68.435C121.519 63.9145 117.854 60.2498 113.333 60.2498Z" fill="black"/>
<path fill-rule="evenodd" clip-rule="evenodd" d="M56.6669 45.1387C53.1896 45.1387 50.3706 42.3197 50.3706 38.8424V26.2498C50.3706 22.7724 53.1896 19.9535 56.6669 19.9535H113.334C116.811 19.9535 119.63 22.7724 119.63 26.2498V38.8424C119.63 42.3197 116.811 45.1387 113.334 45.1387H56.6669Z" fill="#D5D13C"/>
<g filter="url(#filter0_d_4323_499)">
<ellipse cx="123.552" cy="40.7256" rx="31.4815" ry="31.4815" fill="#5BA600"/>
<path d="M153.534 40.7256C153.534 57.2839 140.111 70.7071 123.552 70.7071C106.994 70.7071 93.5708 57.2839 93.5708 40.7256C93.5708 24.1673 106.994 10.7441 123.552 10.7441C140.111 10.7441 153.534 24.1673 153.534 40.7256Z" stroke="white" stroke-width="3"/>
</g>
<path d="M105.625 43.0924L109.155 29.9193L111.253 30.4815L111.989 38.755L112.025 38.7648L114.044 31.2295L116.088 31.777L112.558 44.9501L110.588 44.4221L109.91 35.4211L109.873 35.4113L107.668 43.6399L105.625 43.0924Z" fill="white"/>
<path d="M117.88 42.8953C117.747 43.394 117.732 43.7878 117.837 44.0767C117.946 44.3535 118.231 44.5537 118.693 44.6776C119.156 44.8014 119.503 44.7706 119.735 44.5852C119.97 44.3875 120.155 44.0393 120.289 43.5406L122.078 36.8629C122.212 36.3642 122.224 35.9764 122.116 35.6997C122.011 35.4108 121.727 35.2044 121.265 35.0806C120.803 34.9567 120.454 34.9936 120.218 35.1913C119.986 35.3767 119.803 35.7188 119.67 36.2175L117.88 42.8953ZM117.422 35.5566C117.546 35.0944 117.73 34.6744 117.974 34.2967C118.231 33.9223 118.54 33.6205 118.901 33.3914C119.275 33.1655 119.697 33.0244 120.169 32.9682C120.655 32.9031 121.197 32.9504 121.793 33.1101C122.389 33.2698 122.875 33.4979 123.252 33.7944C123.644 34.0821 123.94 34.4154 124.138 34.7944C124.348 35.1767 124.465 35.5926 124.488 36.042C124.523 36.4947 124.479 36.9521 124.355 37.4143L122.536 44.2016C122.412 44.6638 122.222 45.0821 121.965 45.4566C121.721 45.8343 121.412 46.1361 121.038 46.3619C120.677 46.5911 120.253 46.7382 119.766 46.8033C119.295 46.8595 118.761 46.8078 118.165 46.6481C117.569 46.4884 117.075 46.2647 116.683 45.9771C116.306 45.6806 116.012 45.3412 115.802 44.9588C115.604 44.5798 115.487 44.1639 115.452 43.7113C115.429 43.2619 115.479 42.806 115.603 42.3438L117.422 35.5566Z" fill="white"/>
<path d="M132.016 36.0449L134.242 36.6414L127.957 49.0763L125.695 48.47L126.469 34.5587L128.695 35.1552L127.888 44.7361L127.925 44.7458L132.016 36.0449Z" fill="white"/>
<path d="M139.086 37.1963L137.572 36.7906L139.717 34.5495L142.18 35.2095L139.086 37.1963ZM131.977 50.1534L135.507 36.9803L141.564 38.6034L141.036 40.5739L137.241 39.557L136.332 42.9507L139.251 43.7329L138.723 45.7034L135.804 44.9212L134.768 48.7892L138.818 49.8745L138.29 51.845L131.977 50.1534Z" fill="white"/>
<defs>
<filter id="filter0_d_4323_499" x="88.0708" y="9.24414" width="70.9629" height="70.9629" filterUnits="userSpaceOnUse" color-interpolation-filters="sRGB">
<feFlood flood-opacity="0" result="BackgroundImageFix"/>
<feColorMatrix in="SourceAlpha" type="matrix" values="0 0 0 0 0 0 0 0 0 0 0 0 0 0 0 0 0 0 127 0" result="hardAlpha"/>
<feOffset dy="4"/>
<feGaussianBlur stdDeviation="2"/>
<feComposite in2="hardAlpha" operator="out"/>
<feColorMatrix type="matrix" values="0 0 0 0 0 0 0 0 0 0 0 0 0 0 0 0 0 0 0.25 0"/>
<feBlend mode="normal" in2="BackgroundImageFix" result="effect1_dropShadow_4323_499"/>
<feBlend mode="normal" in="SourceGraphic" in2="effect1_dropShadow_4323_499" result="shape"/>
</filter>
</defs>
</svg>
