<svg width="170" height="171" viewBox="0 0 170 171" fill="none" xmlns="http://www.w3.org/2000/svg">
<rect width="170" height="170" transform="translate(0 0.120117)" fill="white"/>
<rect x="47.5229" y="81.876" width="75.0302" height="40.974" fill="#3172C8"/>
<path d="M72.8419 95.4575C72.8419 96.0015 72.7512 96.48 72.5699 96.893C72.3986 97.3061 72.1619 97.6587 71.8597 97.9508C71.5574 98.2329 71.1998 98.4445 70.7868 98.5855C70.3838 98.7366 69.9456 98.8122 69.4721 98.8122C68.5957 98.8122 67.8451 98.5905 67.2206 98.1473C66.596 97.6939 66.1829 97.0089 65.9814 96.0922L68.1121 95.5482C68.1927 95.9007 68.3337 96.1879 68.5352 96.4095C68.7367 96.6311 69.0137 96.7419 69.3663 96.7419C69.5577 96.7419 69.724 96.7016 69.865 96.621C70.006 96.5405 70.1219 96.4347 70.2126 96.3037C70.3133 96.1727 70.3838 96.0267 70.4241 95.8655C70.4745 95.6942 70.4997 95.523 70.4997 95.3517C70.4997 94.8883 70.3637 94.5458 70.0917 94.3242C69.8297 94.1025 69.4771 93.9917 69.0339 93.9917H68.4899V92.2086H69.0943C69.4973 92.2086 69.8046 92.0927 70.0161 91.861C70.2377 91.6193 70.3486 91.2868 70.3486 90.8637C70.3486 90.5917 70.268 90.3348 70.1068 90.093C69.9557 89.8513 69.7089 89.7304 69.3663 89.7304C69.0742 89.7304 68.8475 89.8261 68.6863 90.0175C68.5251 90.2089 68.4043 90.4507 68.3237 90.7428L66.2534 90.229C66.3743 89.7656 66.5456 89.3727 66.7672 89.0504C66.9989 88.728 67.2558 88.4661 67.5379 88.2646C67.83 88.053 68.1474 87.9019 68.4899 87.8113C68.8324 87.7105 69.18 87.6602 69.5326 87.6602C69.9254 87.6602 70.3032 87.7206 70.6659 87.8415C71.0386 87.9624 71.3711 88.1437 71.6632 88.3855C71.9554 88.6273 72.1871 88.9295 72.3583 89.2922C72.5397 89.6548 72.6303 90.0779 72.6303 90.5615C72.6303 91.1861 72.4943 91.715 72.2223 92.1482C71.9604 92.5713 71.6078 92.8533 71.1646 92.9944V93.0397C71.6783 93.1807 72.0863 93.4729 72.3886 93.9162C72.6908 94.3594 72.8419 94.8732 72.8419 95.4575Z" fill="white"/>
<path d="M81.0078 93.2362C81.0078 93.8406 80.9574 94.4702 80.8567 95.125C80.766 95.7799 80.5897 96.3843 80.3278 96.9384C80.0759 97.4824 79.7183 97.9307 79.2549 98.2833C78.8016 98.6359 78.2122 98.8122 77.4869 98.8122C76.7616 98.8122 76.1672 98.6359 75.7038 98.2833C75.2505 97.9307 74.8928 97.4824 74.6309 96.9384C74.3791 96.3843 74.2078 95.7799 74.1171 95.125C74.0265 94.4702 73.9811 93.8406 73.9811 93.2362C73.9811 92.6317 74.0265 92.0021 74.1171 91.3473C74.2078 90.6925 74.3791 90.093 74.6309 89.549C74.8928 88.995 75.2505 88.5416 75.7038 88.189C76.1672 87.8365 76.7616 87.6602 77.4869 87.6602C78.2122 87.6602 78.8016 87.8365 79.2549 88.189C79.7183 88.5416 80.0759 88.995 80.3278 89.549C80.5897 90.093 80.766 90.6925 80.8567 91.3473C80.9574 92.0021 81.0078 92.6317 81.0078 93.2362ZM78.59 93.2362C78.59 92.8836 78.5749 92.5058 78.5447 92.1028C78.5245 91.6999 78.4742 91.3271 78.3936 90.9846C78.313 90.6421 78.2022 90.36 78.0611 90.1384C77.9201 89.9067 77.7287 89.7908 77.4869 89.7908C77.2451 89.7908 77.0537 89.9067 76.9127 90.1384C76.7716 90.36 76.6608 90.6421 76.5802 90.9846C76.4996 91.3271 76.4442 91.6999 76.414 92.1028C76.3939 92.5058 76.3838 92.8836 76.3838 93.2362C76.3838 93.5988 76.3939 93.9816 76.414 94.3846C76.4442 94.7876 76.4996 95.1603 76.5802 95.5028C76.6608 95.8353 76.7716 96.1173 76.9127 96.349C77.0537 96.5707 77.2451 96.6815 77.4869 96.6815C77.7287 96.6815 77.9201 96.5707 78.0611 96.349C78.2022 96.1173 78.313 95.8353 78.3936 95.5028C78.4742 95.1603 78.5245 94.7876 78.5447 94.3846C78.5749 93.9816 78.59 93.5988 78.59 93.2362Z" fill="white"/>
<path d="M87.7411 90.6824V91.8006H87.7713C87.8721 91.4178 88.0836 91.0904 88.406 90.8184C88.7283 90.5363 89.1414 90.3953 89.6451 90.3953C90.2092 90.3953 90.6273 90.5313 90.8993 90.8033C91.1814 91.0753 91.3778 91.4077 91.4886 91.8006H91.5189C91.5894 91.6193 91.6801 91.448 91.7909 91.2868C91.9118 91.1156 92.0528 90.9645 92.214 90.8335C92.3852 90.7025 92.5766 90.5967 92.7882 90.5162C93.0098 90.4356 93.2566 90.3953 93.5286 90.3953C93.982 90.3953 94.3497 90.491 94.6318 90.6824C94.9138 90.8637 95.1304 91.1105 95.2815 91.4228C95.4326 91.7351 95.5334 92.0927 95.5838 92.4957C95.6442 92.8987 95.6744 93.3167 95.6744 93.7499V98.5855H93.3322V93.7348C93.3322 93.4024 93.2818 93.1102 93.1811 92.8584C93.0804 92.6065 92.8889 92.4806 92.6069 92.4806C92.3147 92.4806 92.0881 92.6166 91.9269 92.8886C91.7758 93.1505 91.7002 93.4981 91.7002 93.9313V98.5855H89.3731V93.7348C89.3731 93.4024 89.3227 93.1102 89.222 92.8584C89.1313 92.6065 88.9449 92.4806 88.6629 92.4806C88.3707 92.4806 88.1441 92.6166 87.9829 92.8886C87.8318 93.1505 87.7562 93.4981 87.7562 93.9313V98.5855H85.4291V90.6824H87.7411Z" fill="white"/>
<path d="M103.546 90.6824V98.0264C103.546 99.3763 103.264 100.409 102.7 101.124C102.135 101.849 101.239 102.212 100.01 102.212C99.4557 102.212 98.9167 102.111 98.3929 101.91C97.869 101.719 97.4359 101.477 97.0933 101.185L98.1964 99.4317C98.4281 99.6332 98.68 99.7994 98.952 99.9304C99.2341 100.061 99.5363 100.127 99.8587 100.127C100.352 100.127 100.705 99.9556 100.916 99.613C101.138 99.2705 101.249 98.8424 101.249 98.3286V97.6788H101.219C101.108 97.9407 100.906 98.1775 100.614 98.389C100.322 98.5905 99.9846 98.6913 99.6018 98.6913C99.1686 98.6913 98.7858 98.5905 98.4533 98.389C98.131 98.1775 97.859 97.8904 97.6373 97.5277C97.4157 97.155 97.2495 96.7218 97.1387 96.2282C97.0279 95.7245 96.9724 95.1855 96.9724 94.6113C96.9724 94.0068 97.0279 93.4527 97.1387 92.949C97.2596 92.4353 97.4308 91.997 97.6524 91.6344C97.8841 91.2616 98.1612 90.9695 98.4836 90.7579C98.8059 90.5464 99.1787 90.4406 99.6018 90.4406C100.055 90.4406 100.408 90.5514 100.66 90.773C100.921 90.9947 101.113 91.2767 101.234 91.6193H101.279V90.6824H103.546ZM101.324 94.6264C101.324 94.3242 101.304 94.0471 101.264 93.7953C101.224 93.5333 101.158 93.3067 101.068 93.1153C100.987 92.9138 100.881 92.7576 100.75 92.6468C100.629 92.536 100.483 92.4806 100.312 92.4806C100.131 92.4806 99.9745 92.536 99.8436 92.6468C99.7227 92.7576 99.6219 92.9138 99.5413 93.1153C99.4607 93.3067 99.4003 93.5333 99.36 93.7953C99.3197 94.0471 99.2996 94.3242 99.2996 94.6264C99.2996 94.9185 99.3197 95.1956 99.36 95.4575C99.4003 95.7194 99.4607 95.9511 99.5413 96.1526C99.6219 96.344 99.7227 96.4951 99.8436 96.6059C99.9745 96.7167 100.131 96.7722 100.312 96.7722C100.483 96.7722 100.629 96.7167 100.75 96.6059C100.881 96.4951 100.987 96.344 101.068 96.1526C101.158 95.9511 101.224 95.7194 101.264 95.4575C101.304 95.1956 101.324 94.9185 101.324 94.6264Z" fill="white"/>
<path d="M74.7652 115.585V107.697L73.1634 108.906L72.0905 107.033L75.0221 104.887H77.1376V115.585H74.7652Z" fill="white"/>
<path d="M85.6087 107.682V108.801H85.6389C85.7397 108.418 85.9512 108.09 86.2736 107.818C86.596 107.536 87.009 107.395 87.5127 107.395C88.0769 107.395 88.4949 107.531 88.7669 107.803C89.049 108.075 89.2455 108.408 89.3563 108.801H89.3865C89.457 108.619 89.5477 108.448 89.6585 108.287C89.7794 108.116 89.9204 107.964 90.0816 107.833C90.2529 107.703 90.4443 107.597 90.6558 107.516C90.8775 107.436 91.1243 107.395 91.3963 107.395C91.8496 107.395 92.2173 107.491 92.4994 107.682C92.7815 107.864 92.998 108.111 93.1492 108.423C93.3003 108.735 93.401 109.093 93.4514 109.496C93.5118 109.899 93.542 110.317 93.542 110.75V115.585H91.1998V110.735C91.1998 110.402 91.1495 110.11 91.0487 109.858C90.948 109.607 90.7566 109.481 90.4745 109.481C90.1823 109.481 89.9557 109.617 89.7945 109.889C89.6434 110.151 89.5678 110.498 89.5678 110.931V115.585H87.2407V110.735C87.2407 110.402 87.1903 110.11 87.0896 109.858C86.9989 109.607 86.8126 109.481 86.5305 109.481C86.2383 109.481 86.0117 109.617 85.8505 109.889C85.6994 110.151 85.6238 110.498 85.6238 110.931V115.585H83.2967V107.682H85.6087Z" fill="white"/>
<path d="M95.3236 115.585V104.161H97.7414V115.585H95.3236Z" fill="white"/>
<path fill-rule="evenodd" clip-rule="evenodd" d="M109.888 55.8424H59.5177L59.5177 44.0547H55.1103V55.9377C48.89 56.7045 44.0742 62.0073 44.0742 68.435V137.694C44.0742 144.649 49.7121 150.287 56.6668 150.287H113.333C120.288 150.287 125.926 144.649 125.926 137.694V68.435C125.926 61.804 120.801 56.37 114.295 55.8786V44.0547H109.888V55.8424ZM113.333 60.2498H56.6668C52.1463 60.2498 48.4816 63.9145 48.4816 68.435V137.694C48.4816 142.215 52.1463 145.879 56.6668 145.879H113.333C117.854 145.879 121.519 142.215 121.519 137.694V68.435C121.519 63.9145 117.854 60.2498 113.333 60.2498Z" fill="black"/>
<path fill-rule="evenodd" clip-rule="evenodd" d="M56.6669 45.1387C53.1896 45.1387 50.3706 42.3197 50.3706 38.8424V26.2498C50.3706 22.7724 53.1896 19.9535 56.6669 19.9535H113.334C116.811 19.9535 119.63 22.7724 119.63 26.2498V38.8424C119.63 42.3197 116.811 45.1387 113.334 45.1387H56.6669Z" fill="#3172C8"/>
</svg>
