<svg width="60" height="61" viewBox="0 0 60 61" fill="none" xmlns="http://www.w3.org/2000/svg">
<path id="Exclude" fill-rule="evenodd" clip-rule="evenodd" d="M60 30.4192C60 46.9877 46.5685 60.4192 30 60.4192C13.4315 60.4192 0 46.9877 0 30.4192C0 13.8506 13.4315 0.419189 30 0.419189C46.5685 0.419189 60 13.8506 60 30.4192ZM13.89 18.3367L28.02 32.4667C28.56 33.0067 29.28 33.2767 30.045 33.2767C30.81 33.2767 31.53 32.9617 32.07 32.4667L46.2 18.3367C46.155 18.3367 46.11 18.3254 46.065 18.3142C46.02 18.3029 45.975 18.2917 45.93 18.2917H14.16C14.07 18.3367 13.98 18.3367 13.89 18.3367ZM30 35.0767C31.26 35.0767 32.43 34.5817 33.285 33.7267L47.685 19.3717C47.865 19.6867 48 20.0917 48 20.4967V40.3867C48 41.5567 47.055 42.5467 45.84 42.5467H14.16C12.99 42.5467 12 41.6017 12 40.3867V20.4967C12 20.0917 12.135 19.6867 12.315 19.3267L26.715 33.7267C27.615 34.5817 28.74 35.0767 30 35.0767Z" fill="#E9502E"/>
</svg>
