<svg width="140" height="141" viewBox="0 0 140 141" fill="none" xmlns="http://www.w3.org/2000/svg">
<rect width="140" height="140" transform="translate(0 0.120117)" fill="white"/>
<path fill-rule="evenodd" clip-rule="evenodd" d="M70 124.12C99.8234 124.12 124 99.9435 124 70.1201C124 40.2967 99.8234 16.1201 70 16.1201C40.1766 16.1201 16 40.2967 16 70.1201C16 99.9435 40.1766 124.12 70 124.12ZM70 130.12C103.137 130.12 130 103.257 130 70.1201C130 36.983 103.137 10.1201 70 10.1201C36.8629 10.1201 10 36.983 10 70.1201C10 103.257 36.8629 130.12 70 130.12Z" fill="#E9502E"/>
<path d="M83.374 34.6201H56.7003C53.5505 34.6201 50.9688 37.2019 50.9688 40.3517V96.9412C50.9688 100.091 53.5505 102.673 56.7003 102.673H58.6319V104.236C58.6319 105.054 59.3252 105.62 60.0161 105.62H61.8582C62.6767 105.62 63.2424 104.927 63.2424 104.236V102.673H76.7582V104.236C76.7582 105.028 77.3505 105.62 78.1424 105.62H79.9845C80.803 105.62 81.3687 104.927 81.3687 104.236V102.673H83.3003C86.4502 102.673 89.0319 100.091 89.0319 96.9412V40.3517C89.0319 37.2112 86.533 34.6201 83.374 34.6201ZM56.7003 39.2306H83.374C83.9821 39.2306 84.4951 39.7436 84.4951 40.3517V58.2727H55.653V40.3517C55.653 39.7127 56.1222 39.2306 56.7003 39.2306ZM83.374 97.9885H56.7003C56.0923 97.9885 55.5793 97.4756 55.5793 96.8675V62.8833H84.4214V96.9412C84.4214 97.4911 83.9668 97.9885 83.374 97.9885Z" fill="#E9502E" stroke="#E9502E"/>
<path d="M62.0793 66.083H60.2372C59.4188 66.083 58.853 66.7763 58.853 67.4672V72.7725C58.853 73.5644 59.4453 74.1567 60.2372 74.1567H62.0793C62.8978 74.1567 63.4636 73.4634 63.4636 72.7725V67.5025C63.5125 67.105 63.3381 66.7478 63.0961 66.5058C62.8428 66.2525 62.4785 66.083 62.0793 66.083Z" fill="#E9502E" stroke="#E9502E"/>
<path d="M60.3107 54.999H62.1528C62.9713 54.999 63.537 54.3057 63.537 53.6148V48.3095C63.537 47.5176 62.9448 46.9253 62.1528 46.9253H60.3107C59.4923 46.9253 58.9265 47.6186 58.9265 48.3095V53.5834C58.88 53.9965 59.0369 54.3613 59.3043 54.6138C59.5717 54.8664 59.9379 54.999 60.3107 54.999Z" fill="#E9502E" stroke="#E9502E"/>
</svg>
