<svg width="140" height="141" viewBox="0 0 140 141" fill="none" xmlns="http://www.w3.org/2000/svg">
<g id="frost">
<rect width="140" height="140" transform="translate(0 0.120117)" fill="white"/>
<path id="Union" fill-rule="evenodd" clip-rule="evenodd" d="M124 70.1201C124 99.9435 99.8234 124.12 70 124.12C57.1259 124.12 45.3041 119.615 36.0251 112.095L111.975 36.1452C119.495 45.4242 124 57.246 124 70.1201ZM116.239 31.8815C124.834 42.2637 130 55.5886 130 70.1201C130 103.257 103.137 130.12 70 130.12C36.8629 130.12 10 103.257 10 70.1201C10 36.983 36.8629 10.1201 70 10.1201C88.0417 10.1201 104.224 18.0832 115.223 30.6864L116.328 31.792L116.239 31.8815ZM31.5744 108.06L107.94 31.6945C98.1881 22.0646 84.7883 16.1201 70 16.1201C40.1766 16.1201 16 40.2967 16 70.1201C16 84.9084 21.9445 98.3082 31.5744 108.06Z" fill="black"/>
<g id="Vector">
<mask id="path-2-outside-1_4321_3268" maskUnits="userSpaceOnUse" x="33" y="29.8022" width="73" height="81" fill="black">
<rect fill="white" x="33" y="29.8022" width="73" height="81"/>
<path d="M102.437 78.1905L92.6077 80.7772L85.2615 76.535C86.0892 74.5691 86.6066 72.3963 86.6066 70.12C86.6066 67.8437 86.1927 65.6709 85.2615 63.705L92.6077 59.4628L102.437 62.0495C102.644 62.0495 102.748 62.153 102.954 62.153C103.886 62.153 104.713 61.5322 104.92 60.601C105.231 59.4628 104.61 58.3247 103.472 58.1177L97.6776 56.5657L103.265 53.3582C104.3 52.7374 104.61 51.4958 103.989 50.5646C103.368 49.5299 102.127 49.2195 101.196 49.8403L95.6083 53.0478L97.1603 47.2536C97.4707 46.1155 96.8499 44.9773 95.7117 44.7704C94.5736 44.46 93.4354 45.0808 93.2285 46.2189L90.6418 56.0484L83.1921 60.2906C80.6054 56.8761 76.5702 54.3929 72.1211 53.8756V45.2877L79.2604 38.1485C80.0881 37.3207 80.0881 36.0791 79.2604 35.2514C78.4326 34.4236 77.191 34.4236 76.3633 35.2514L72.0176 39.2866V32.8716C72.0176 31.7335 71.0864 30.8022 69.9483 30.8022C68.8101 30.8022 67.8789 31.7335 67.8789 32.8716V39.2866L63.6367 35.0444C62.809 34.2167 61.5674 34.2167 60.7396 35.0444C59.9119 35.8722 59.9119 37.1138 60.7396 37.9415L67.8789 45.0808V53.6686C63.3263 54.186 59.3946 56.6692 56.8079 60.0836L49.3582 55.8414L46.7715 46.012C46.4611 44.8739 45.3229 44.2531 44.2883 44.5635C43.1501 44.8739 42.5293 46.012 42.8397 47.0467L44.3917 52.8409L38.8045 49.6334C37.7698 49.0126 36.5282 49.4264 36.0108 50.3577C35.39 51.3923 35.8039 52.6339 36.7351 53.1513L42.3224 56.3588L36.5282 57.9108C35.39 58.2212 34.7692 59.3593 35.0796 60.394C35.2866 61.3252 36.1143 61.946 37.0455 61.946C37.2525 61.946 37.3559 61.946 37.5629 61.8426L47.3923 59.2559L54.7385 63.4981C53.9108 65.4639 53.3934 67.6368 53.3934 69.9131C53.3934 72.1893 53.8073 74.3622 54.7385 76.3281L47.3923 80.5702L37.5629 77.9835C36.4247 77.6731 35.2866 78.2939 35.0796 79.4321C34.7692 80.5702 35.39 81.7084 36.5282 81.9153L42.3224 83.4673L36.7351 86.6748C35.7004 87.2956 35.39 88.5372 36.0108 89.4685C36.4247 90.0893 37.0455 90.5031 37.7698 90.5031C38.0802 90.5031 38.4941 90.3997 38.8045 90.1927L44.3917 86.9852L42.8397 92.7794C42.5293 93.9176 43.1501 95.0557 44.2883 95.2627C44.4952 95.2627 44.5987 95.3661 44.8056 95.3661C45.7368 95.3661 46.5646 94.7453 46.7715 93.8141L49.3582 83.9847L56.8079 79.7425C59.3946 83.1569 63.4298 85.6402 67.8789 86.1575V94.7453L60.7396 101.885C59.9119 102.712 59.9119 103.954 60.7396 104.782C61.1535 105.196 61.6708 105.402 62.1882 105.402C62.7055 105.402 63.2229 105.196 63.6367 104.782L67.8789 100.54V107.368C67.8789 108.507 68.8101 109.438 69.9483 109.438C71.0864 109.438 72.0176 108.507 72.0176 107.368V100.953L76.2598 105.196C76.6737 105.609 77.191 105.816 77.7083 105.816C78.2257 105.816 78.743 105.609 79.1569 105.196C79.9846 104.368 79.9846 103.126 79.1569 102.298L72.0176 95.0557V86.4679C76.5702 85.9506 80.502 83.4673 83.0887 80.0529L90.5383 84.2951L93.125 94.1245C93.332 95.0557 94.1597 95.6765 95.0909 95.6765C95.2979 95.6765 95.4013 95.6765 95.6083 95.5731C96.7464 95.2626 97.3672 94.1245 97.0568 93.0898L95.5048 87.2956L101.092 90.5031C101.402 90.7101 101.816 90.8135 102.127 90.8135C102.851 90.8135 103.575 90.3997 103.886 89.7789C104.506 88.7442 104.093 87.5026 103.161 86.9852L97.5742 83.7777L103.368 82.2257C104.506 81.9153 105.127 80.7772 104.817 79.7425C104.506 78.7078 103.472 77.8801 102.437 78.1905ZM69.9483 82.5361C63.1194 82.5361 57.5321 76.9489 57.5321 70.12C57.5321 63.2911 63.1194 57.7039 69.9483 57.7039C76.7771 57.7039 82.3644 63.2911 82.3644 70.12C82.3644 76.9489 76.7771 82.5361 69.9483 82.5361Z"/>
</mask>
<path d="M102.437 78.1905L92.6077 80.7772L85.2615 76.535C86.0892 74.5691 86.6066 72.3963 86.6066 70.12C86.6066 67.8437 86.1927 65.6709 85.2615 63.705L92.6077 59.4628L102.437 62.0495C102.644 62.0495 102.748 62.153 102.954 62.153C103.886 62.153 104.713 61.5322 104.92 60.601C105.231 59.4628 104.61 58.3247 103.472 58.1177L97.6776 56.5657L103.265 53.3582C104.3 52.7374 104.61 51.4958 103.989 50.5646C103.368 49.5299 102.127 49.2195 101.196 49.8403L95.6083 53.0478L97.1603 47.2536C97.4707 46.1155 96.8499 44.9773 95.7117 44.7704C94.5736 44.46 93.4354 45.0808 93.2285 46.2189L90.6418 56.0484L83.1921 60.2906C80.6054 56.8761 76.5702 54.3929 72.1211 53.8756V45.2877L79.2604 38.1485C80.0881 37.3207 80.0881 36.0791 79.2604 35.2514C78.4326 34.4236 77.191 34.4236 76.3633 35.2514L72.0176 39.2866V32.8716C72.0176 31.7335 71.0864 30.8022 69.9483 30.8022C68.8101 30.8022 67.8789 31.7335 67.8789 32.8716V39.2866L63.6367 35.0444C62.809 34.2167 61.5674 34.2167 60.7396 35.0444C59.9119 35.8722 59.9119 37.1138 60.7396 37.9415L67.8789 45.0808V53.6686C63.3263 54.186 59.3946 56.6692 56.8079 60.0836L49.3582 55.8414L46.7715 46.012C46.4611 44.8739 45.3229 44.2531 44.2883 44.5635C43.1501 44.8739 42.5293 46.012 42.8397 47.0467L44.3917 52.8409L38.8045 49.6334C37.7698 49.0126 36.5282 49.4264 36.0108 50.3577C35.39 51.3923 35.8039 52.6339 36.7351 53.1513L42.3224 56.3588L36.5282 57.9108C35.39 58.2212 34.7692 59.3593 35.0796 60.394C35.2866 61.3252 36.1143 61.946 37.0455 61.946C37.2525 61.946 37.3559 61.946 37.5629 61.8426L47.3923 59.2559L54.7385 63.4981C53.9108 65.4639 53.3934 67.6368 53.3934 69.9131C53.3934 72.1893 53.8073 74.3622 54.7385 76.3281L47.3923 80.5702L37.5629 77.9835C36.4247 77.6731 35.2866 78.2939 35.0796 79.4321C34.7692 80.5702 35.39 81.7084 36.5282 81.9153L42.3224 83.4673L36.7351 86.6748C35.7004 87.2956 35.39 88.5372 36.0108 89.4685C36.4247 90.0893 37.0455 90.5031 37.7698 90.5031C38.0802 90.5031 38.4941 90.3997 38.8045 90.1927L44.3917 86.9852L42.8397 92.7794C42.5293 93.9176 43.1501 95.0557 44.2883 95.2627C44.4952 95.2627 44.5987 95.3661 44.8056 95.3661C45.7368 95.3661 46.5646 94.7453 46.7715 93.8141L49.3582 83.9847L56.8079 79.7425C59.3946 83.1569 63.4298 85.6402 67.8789 86.1575V94.7453L60.7396 101.885C59.9119 102.712 59.9119 103.954 60.7396 104.782C61.1535 105.196 61.6708 105.402 62.1882 105.402C62.7055 105.402 63.2229 105.196 63.6367 104.782L67.8789 100.54V107.368C67.8789 108.507 68.8101 109.438 69.9483 109.438C71.0864 109.438 72.0176 108.507 72.0176 107.368V100.953L76.2598 105.196C76.6737 105.609 77.191 105.816 77.7083 105.816C78.2257 105.816 78.743 105.609 79.1569 105.196C79.9846 104.368 79.9846 103.126 79.1569 102.298L72.0176 95.0557V86.4679C76.5702 85.9506 80.502 83.4673 83.0887 80.0529L90.5383 84.2951L93.125 94.1245C93.332 95.0557 94.1597 95.6765 95.0909 95.6765C95.2979 95.6765 95.4013 95.6765 95.6083 95.5731C96.7464 95.2626 97.3672 94.1245 97.0568 93.0898L95.5048 87.2956L101.092 90.5031C101.402 90.7101 101.816 90.8135 102.127 90.8135C102.851 90.8135 103.575 90.3997 103.886 89.7789C104.506 88.7442 104.093 87.5026 103.161 86.9852L97.5742 83.7777L103.368 82.2257C104.506 81.9153 105.127 80.7772 104.817 79.7425C104.506 78.7078 103.472 77.8801 102.437 78.1905ZM69.9483 82.5361C63.1194 82.5361 57.5321 76.9489 57.5321 70.12C57.5321 63.2911 63.1194 57.7039 69.9483 57.7039C76.7771 57.7039 82.3644 63.2911 82.3644 70.12C82.3644 76.9489 76.7771 82.5361 69.9483 82.5361Z" fill="black"/>
<path d="M102.437 78.1905L92.6077 80.7772L85.2615 76.535C86.0892 74.5691 86.6066 72.3963 86.6066 70.12C86.6066 67.8437 86.1927 65.6709 85.2615 63.705L92.6077 59.4628L102.437 62.0495C102.644 62.0495 102.748 62.153 102.954 62.153C103.886 62.153 104.713 61.5322 104.92 60.601C105.231 59.4628 104.61 58.3247 103.472 58.1177L97.6776 56.5657L103.265 53.3582C104.3 52.7374 104.61 51.4958 103.989 50.5646C103.368 49.5299 102.127 49.2195 101.196 49.8403L95.6083 53.0478L97.1603 47.2536C97.4707 46.1155 96.8499 44.9773 95.7117 44.7704C94.5736 44.46 93.4354 45.0808 93.2285 46.2189L90.6418 56.0484L83.1921 60.2906C80.6054 56.8761 76.5702 54.3929 72.1211 53.8756V45.2877L79.2604 38.1485C80.0881 37.3207 80.0881 36.0791 79.2604 35.2514C78.4326 34.4236 77.191 34.4236 76.3633 35.2514L72.0176 39.2866V32.8716C72.0176 31.7335 71.0864 30.8022 69.9483 30.8022C68.8101 30.8022 67.8789 31.7335 67.8789 32.8716V39.2866L63.6367 35.0444C62.809 34.2167 61.5674 34.2167 60.7396 35.0444C59.9119 35.8722 59.9119 37.1138 60.7396 37.9415L67.8789 45.0808V53.6686C63.3263 54.186 59.3946 56.6692 56.8079 60.0836L49.3582 55.8414L46.7715 46.012C46.4611 44.8739 45.3229 44.2531 44.2883 44.5635C43.1501 44.8739 42.5293 46.012 42.8397 47.0467L44.3917 52.8409L38.8045 49.6334C37.7698 49.0126 36.5282 49.4264 36.0108 50.3577C35.39 51.3923 35.8039 52.6339 36.7351 53.1513L42.3224 56.3588L36.5282 57.9108C35.39 58.2212 34.7692 59.3593 35.0796 60.394C35.2866 61.3252 36.1143 61.946 37.0455 61.946C37.2525 61.946 37.3559 61.946 37.5629 61.8426L47.3923 59.2559L54.7385 63.4981C53.9108 65.4639 53.3934 67.6368 53.3934 69.9131C53.3934 72.1893 53.8073 74.3622 54.7385 76.3281L47.3923 80.5702L37.5629 77.9835C36.4247 77.6731 35.2866 78.2939 35.0796 79.4321C34.7692 80.5702 35.39 81.7084 36.5282 81.9153L42.3224 83.4673L36.7351 86.6748C35.7004 87.2956 35.39 88.5372 36.0108 89.4685C36.4247 90.0893 37.0455 90.5031 37.7698 90.5031C38.0802 90.5031 38.4941 90.3997 38.8045 90.1927L44.3917 86.9852L42.8397 92.7794C42.5293 93.9176 43.1501 95.0557 44.2883 95.2627C44.4952 95.2627 44.5987 95.3661 44.8056 95.3661C45.7368 95.3661 46.5646 94.7453 46.7715 93.8141L49.3582 83.9847L56.8079 79.7425C59.3946 83.1569 63.4298 85.6402 67.8789 86.1575V94.7453L60.7396 101.885C59.9119 102.712 59.9119 103.954 60.7396 104.782C61.1535 105.196 61.6708 105.402 62.1882 105.402C62.7055 105.402 63.2229 105.196 63.6367 104.782L67.8789 100.54V107.368C67.8789 108.507 68.8101 109.438 69.9483 109.438C71.0864 109.438 72.0176 108.507 72.0176 107.368V100.953L76.2598 105.196C76.6737 105.609 77.191 105.816 77.7083 105.816C78.2257 105.816 78.743 105.609 79.1569 105.196C79.9846 104.368 79.9846 103.126 79.1569 102.298L72.0176 95.0557V86.4679C76.5702 85.9506 80.502 83.4673 83.0887 80.0529L90.5383 84.2951L93.125 94.1245C93.332 95.0557 94.1597 95.6765 95.0909 95.6765C95.2979 95.6765 95.4013 95.6765 95.6083 95.5731C96.7464 95.2626 97.3672 94.1245 97.0568 93.0898L95.5048 87.2956L101.092 90.5031C101.402 90.7101 101.816 90.8135 102.127 90.8135C102.851 90.8135 103.575 90.3997 103.886 89.7789C104.506 88.7442 104.093 87.5026 103.161 86.9852L97.5742 83.7777L103.368 82.2257C104.506 81.9153 105.127 80.7772 104.817 79.7425C104.506 78.7078 103.472 77.8801 102.437 78.1905ZM69.9483 82.5361C63.1194 82.5361 57.5321 76.9489 57.5321 70.12C57.5321 63.2911 63.1194 57.7039 69.9483 57.7039C76.7771 57.7039 82.3644 63.2911 82.3644 70.12C82.3644 76.9489 76.7771 82.5361 69.9483 82.5361Z" stroke="black" stroke-width="2" mask="url(#path-2-outside-1_4321_3268)"/>
</g>
</g>
</svg>
