<svg width="82" height="132" viewBox="0 0 82 132" fill="none" xmlns="http://www.w3.org/2000/svg">
<rect x="3.52295" y="62.876" width="75.0302" height="40.974" fill="#3172C8"/>
<path d="M28.8419 76.4575C28.8419 77.0015 28.7512 77.48 28.5699 77.893C28.3986 78.3061 28.1619 78.6587 27.8597 78.9508C27.5574 79.2329 27.1998 79.4445 26.7868 79.5855C26.3838 79.7366 25.9456 79.8122 25.4721 79.8122C24.5957 79.8122 23.8451 79.5905 23.2206 79.1473C22.596 78.6939 22.1829 78.0089 21.9814 77.0922L24.1121 76.5482C24.1927 76.9007 24.3337 77.1879 24.5352 77.4095C24.7367 77.6311 25.0137 77.7419 25.3663 77.7419C25.5577 77.7419 25.724 77.7016 25.865 77.621C26.006 77.5405 26.1219 77.4347 26.2126 77.3037C26.3133 77.1727 26.3838 77.0267 26.4241 76.8655C26.4745 76.6942 26.4997 76.523 26.4997 76.3517C26.4997 75.8883 26.3637 75.5458 26.0917 75.3242C25.8297 75.1025 25.4771 74.9917 25.0339 74.9917H24.4899V73.2086H25.0943C25.4973 73.2086 25.8046 73.0927 26.0161 72.861C26.2377 72.6193 26.3486 72.2868 26.3486 71.8637C26.3486 71.5917 26.268 71.3348 26.1068 71.093C25.9557 70.8513 25.7089 70.7304 25.3663 70.7304C25.0742 70.7304 24.8475 70.8261 24.6863 71.0175C24.5251 71.2089 24.4043 71.4507 24.3237 71.7428L22.2534 71.229C22.3743 70.7656 22.5456 70.3727 22.7672 70.0504C22.9989 69.728 23.2558 69.4661 23.5379 69.2646C23.83 69.053 24.1474 68.9019 24.4899 68.8113C24.8324 68.7105 25.18 68.6602 25.5326 68.6602C25.9254 68.6602 26.3032 68.7206 26.6659 68.8415C27.0386 68.9624 27.3711 69.1437 27.6632 69.3855C27.9554 69.6273 28.1871 69.9295 28.3583 70.2922C28.5397 70.6548 28.6303 71.0779 28.6303 71.5615C28.6303 72.1861 28.4943 72.715 28.2223 73.1482C27.9604 73.5713 27.6078 73.8533 27.1646 73.9944V74.0397C27.6783 74.1807 28.0863 74.4729 28.3886 74.9162C28.6908 75.3594 28.8419 75.8732 28.8419 76.4575Z" fill="white"/>
<path d="M37.0078 74.2362C37.0078 74.8406 36.9574 75.4702 36.8567 76.125C36.766 76.7799 36.5897 77.3843 36.3278 77.9384C36.0759 78.4824 35.7183 78.9307 35.2549 79.2833C34.8016 79.6359 34.2122 79.8122 33.4869 79.8122C32.7616 79.8122 32.1672 79.6359 31.7038 79.2833C31.2505 78.9307 30.8928 78.4824 30.6309 77.9384C30.3791 77.3843 30.2078 76.7799 30.1171 76.125C30.0265 75.4702 29.9811 74.8406 29.9811 74.2362C29.9811 73.6317 30.0265 73.0021 30.1171 72.3473C30.2078 71.6925 30.3791 71.093 30.6309 70.549C30.8928 69.995 31.2505 69.5416 31.7038 69.189C32.1672 68.8365 32.7616 68.6602 33.4869 68.6602C34.2122 68.6602 34.8016 68.8365 35.2549 69.189C35.7183 69.5416 36.0759 69.995 36.3278 70.549C36.5897 71.093 36.766 71.6925 36.8567 72.3473C36.9574 73.0021 37.0078 73.6317 37.0078 74.2362ZM34.59 74.2362C34.59 73.8836 34.5749 73.5058 34.5447 73.1028C34.5245 72.6999 34.4742 72.3271 34.3936 71.9846C34.313 71.6421 34.2022 71.36 34.0611 71.1384C33.9201 70.9067 33.7287 70.7908 33.4869 70.7908C33.2451 70.7908 33.0537 70.9067 32.9127 71.1384C32.7716 71.36 32.6608 71.6421 32.5802 71.9846C32.4996 72.3271 32.4442 72.6999 32.414 73.1028C32.3939 73.5058 32.3838 73.8836 32.3838 74.2362C32.3838 74.5988 32.3939 74.9816 32.414 75.3846C32.4442 75.7876 32.4996 76.1603 32.5802 76.5028C32.6608 76.8353 32.7716 77.1173 32.9127 77.349C33.0537 77.5707 33.2451 77.6815 33.4869 77.6815C33.7287 77.6815 33.9201 77.5707 34.0611 77.349C34.2022 77.1173 34.313 76.8353 34.3936 76.5028C34.4742 76.1603 34.5245 75.7876 34.5447 75.3846C34.5749 74.9816 34.59 74.5988 34.59 74.2362Z" fill="white"/>
<path d="M43.7411 71.6824V72.8006H43.7713C43.8721 72.4178 44.0836 72.0904 44.406 71.8184C44.7283 71.5363 45.1414 71.3953 45.6451 71.3953C46.2092 71.3953 46.6273 71.5313 46.8993 71.8033C47.1814 72.0753 47.3778 72.4077 47.4886 72.8006H47.5189C47.5894 72.6193 47.6801 72.448 47.7909 72.2868C47.9118 72.1156 48.0528 71.9645 48.214 71.8335C48.3852 71.7025 48.5766 71.5967 48.7882 71.5162C49.0098 71.4356 49.2566 71.3953 49.5286 71.3953C49.982 71.3953 50.3497 71.491 50.6318 71.6824C50.9138 71.8637 51.1304 72.1105 51.2815 72.4228C51.4326 72.7351 51.5334 73.0927 51.5838 73.4957C51.6442 73.8987 51.6744 74.3167 51.6744 74.7499V79.5855H49.3322V74.7348C49.3322 74.4024 49.2818 74.1102 49.1811 73.8584C49.0804 73.6065 48.8889 73.4806 48.6069 73.4806C48.3147 73.4806 48.0881 73.6166 47.9269 73.8886C47.7758 74.1505 47.7002 74.4981 47.7002 74.9313V79.5855H45.3731V74.7348C45.3731 74.4024 45.3227 74.1102 45.222 73.8584C45.1313 73.6065 44.9449 73.4806 44.6629 73.4806C44.3707 73.4806 44.1441 73.6166 43.9829 73.8886C43.8318 74.1505 43.7562 74.4981 43.7562 74.9313V79.5855H41.4291V71.6824H43.7411Z" fill="white"/>
<path d="M59.5458 71.6824V79.0264C59.5458 80.3763 59.2637 81.4089 58.6996 82.1242C58.1354 82.8495 57.2388 83.2122 56.0098 83.2122C55.4557 83.2122 54.9167 83.1114 54.3929 82.9099C53.869 82.7185 53.4359 82.4767 53.0933 82.1846L54.1964 80.4317C54.4282 80.6332 54.68 80.7994 54.952 80.9304C55.2341 81.0613 55.5363 81.1268 55.8587 81.1268C56.3523 81.1268 56.7049 80.9556 56.9164 80.613C57.1381 80.2705 57.2489 79.8424 57.2489 79.3286V78.6788H57.2187C57.1079 78.9407 56.9064 79.1775 56.6142 79.389C56.3221 79.5905 55.9846 79.6913 55.6018 79.6913C55.1686 79.6913 54.7858 79.5905 54.4533 79.389C54.131 79.1775 53.859 78.8904 53.6373 78.5277C53.4157 78.155 53.2495 77.7218 53.1387 77.2282C53.0279 76.7245 52.9724 76.1855 52.9724 75.6113C52.9724 75.0068 53.0279 74.4527 53.1387 73.949C53.2596 73.4353 53.4308 72.997 53.6524 72.6344C53.8841 72.2616 54.1612 71.9695 54.4836 71.7579C54.8059 71.5464 55.1787 71.4406 55.6018 71.4406C56.0551 71.4406 56.4077 71.5514 56.6596 71.773C56.9215 71.9947 57.1129 72.2767 57.2338 72.6193H57.2791V71.6824H59.5458ZM57.3244 75.6264C57.3244 75.3242 57.3043 75.0471 57.264 74.7953C57.2237 74.5333 57.1582 74.3067 57.0676 74.1153C56.987 73.9138 56.8812 73.7576 56.7502 73.6468C56.6293 73.536 56.4833 73.4806 56.312 73.4806C56.1307 73.4806 55.9745 73.536 55.8436 73.6468C55.7227 73.7576 55.6219 73.9138 55.5413 74.1153C55.4607 74.3067 55.4003 74.5333 55.36 74.7953C55.3197 75.0471 55.2996 75.3242 55.2996 75.6264C55.2996 75.9185 55.3197 76.1956 55.36 76.4575C55.4003 76.7194 55.4607 76.9511 55.5413 77.1526C55.6219 77.344 55.7227 77.4951 55.8436 77.6059C55.9745 77.7167 56.1307 77.7722 56.312 77.7722C56.4833 77.7722 56.6293 77.7167 56.7502 77.6059C56.8812 77.4951 56.987 77.344 57.0676 77.1526C57.1582 76.9511 57.2237 76.7194 57.264 76.4575C57.3043 76.1956 57.3244 75.9185 57.3244 75.6264Z" fill="white"/>
<path d="M30.7652 96.5855V88.6975L29.1634 89.9064L28.0905 88.0326L31.0221 85.8868H33.1376V96.5855H30.7652Z" fill="white"/>
<path d="M41.6087 88.6824V89.8006H41.6389C41.7397 89.4178 41.9512 89.0904 42.2736 88.8184C42.596 88.5363 43.009 88.3953 43.5127 88.3953C44.0769 88.3953 44.4949 88.5313 44.7669 88.8033C45.049 89.0753 45.2455 89.4077 45.3563 89.8006H45.3865C45.457 89.6193 45.5477 89.448 45.6585 89.2868C45.7794 89.1156 45.9204 88.9645 46.0816 88.8335C46.2529 88.7025 46.4443 88.5967 46.6558 88.5162C46.8775 88.4356 47.1243 88.3953 47.3963 88.3953C47.8496 88.3953 48.2173 88.491 48.4994 88.6824C48.7815 88.8637 48.998 89.1105 49.1492 89.4228C49.3003 89.7351 49.401 90.0927 49.4514 90.4957C49.5118 90.8987 49.542 91.3167 49.542 91.7499V96.5855H47.1998V91.7348C47.1998 91.4024 47.1495 91.1102 47.0487 90.8584C46.948 90.6065 46.7566 90.4806 46.4745 90.4806C46.1823 90.4806 45.9557 90.6166 45.7945 90.8886C45.6434 91.1505 45.5678 91.4981 45.5678 91.9313V96.5855H43.2407V91.7348C43.2407 91.4024 43.1903 91.1102 43.0896 90.8584C42.9989 90.6065 42.8126 90.4806 42.5305 90.4806C42.2383 90.4806 42.0117 90.6166 41.8505 90.8886C41.6994 91.1505 41.6238 91.4981 41.6238 91.9313V96.5855H39.2967V88.6824H41.6087Z" fill="white"/>
<path d="M51.3236 96.5855V85.1615H53.7414V96.5855H51.3236Z" fill="white"/>
<path fill-rule="evenodd" clip-rule="evenodd" d="M65.888 36.8424H15.5177L15.5177 25.0547H11.1103V36.9377C4.88999 37.7045 0.0742188 43.0073 0.0742188 49.435V118.694C0.0742188 125.649 5.71211 131.287 12.6668 131.287H69.3335C76.2882 131.287 81.9261 125.649 81.9261 118.694V49.435C81.9261 42.804 76.8007 37.37 70.2954 36.8786V25.0547H65.888V36.8424ZM69.3335 41.2498H12.6668C8.14626 41.2498 4.48163 44.9145 4.48163 49.435V118.694C4.48163 123.215 8.14626 126.879 12.6668 126.879H69.3335C73.854 126.879 77.5187 123.215 77.5187 118.694V49.435C77.5187 44.9145 73.854 41.2498 69.3335 41.2498Z" fill="black"/>
<path fill-rule="evenodd" clip-rule="evenodd" d="M12.6669 26.1387C9.18955 26.1387 6.37061 23.3197 6.37061 19.8424V7.24978C6.37061 3.77243 9.18955 0.953485 12.6669 0.953485H69.3336C72.8109 0.953485 75.6299 3.77243 75.6299 7.24978V19.8424C75.6299 23.3197 72.8109 26.1387 69.3336 26.1387H12.6669Z" fill="#3172C8"/>
</svg>
