<svg width="98" height="121" viewBox="0 0 98 121" fill="none" xmlns="http://www.w3.org/2000/svg">
<g id="Group">
<g id="Group_2">
<g id="Group_3">
<path id="Vector" d="M39.107 71.4475C38.5089 71.4475 37.9084 71.5026 37.3174 71.6129C33.7874 72.2755 30.8673 75.212 30.2176 78.7561C29.9783 80.0602 30.8415 81.3126 32.1456 81.5507C32.2933 81.5777 32.4387 81.5906 32.5818 81.5906C33.7194 81.5906 34.7303 80.7802 34.9414 79.6215C35.2369 78.0161 36.6067 76.6334 38.1993 76.3343C38.4971 76.2792 38.8068 76.2511 39.107 76.2511C40.4345 76.2511 41.5088 75.1757 41.5088 73.8493C41.5088 72.5229 40.4345 71.4475 39.107 71.4475Z" fill="#F04E2A"/>
<path id="Vector_2" d="M73.0342 51.4224C73.8981 49.8984 74.5418 48.2377 74.8665 46.4645C75.9736 40.5222 73.7665 34.4884 69.1083 30.718C66.6925 28.7607 65.3063 26.0693 65.3063 23.3344V2.81609C65.3063 1.48971 64.2321 0.414307 62.9045 0.414307H57.5732C56.7593 0.414307 56.0017 0.82594 55.5584 1.50731L52.9878 5.46298L48.7823 1.14141C48.3296 0.677002 47.7081 0.414307 47.0607 0.414307H35.0964C33.7688 0.414307 32.6946 1.48971 32.6946 2.81609V23.3344C32.6946 26.0693 31.3084 28.7607 28.8925 30.718C24.2344 34.4884 22.0273 40.5222 23.1344 46.4575C23.4591 48.233 24.1032 49.8955 24.9675 51.4208C22.78 55.5134 21.5723 60.0846 21.5723 64.7851C21.5723 68.495 22.2972 72.0629 23.6644 75.4272C23.4532 76.0807 23.26 76.7426 23.1344 77.4285C22.0273 83.3708 24.2344 89.4046 28.8925 93.1749C31.3084 95.1323 32.6946 97.8237 32.6946 100.559V118.013C32.6946 119.339 33.7688 120.414 35.0964 120.414H40.4277C41.2416 120.414 41.9991 120.003 42.4424 119.321L45.0131 115.366L49.2186 119.687C49.6712 120.152 50.2928 120.414 50.9402 120.414H62.9045C64.2321 120.414 65.3063 119.339 65.3063 118.013V100.559C65.3063 97.8237 66.6925 95.1323 69.1083 93.1749C73.7665 89.4046 75.9736 83.3708 74.8665 77.4355C74.7407 76.7479 74.5474 76.0842 74.3357 75.4293C75.7034 72.0644 76.4286 68.4957 76.4286 64.7851C76.4286 60.0852 75.2211 55.5147 73.0342 51.4224ZM31.9135 34.4521C35.4623 31.5777 37.4981 27.5258 37.4981 23.3344V5.21787H46.0475L51.6415 10.9678C52.1504 11.4909 52.8588 11.7559 53.5976 11.6832C54.3247 11.6129 54.9791 11.2141 55.3778 10.6019L58.8773 5.21787H60.5027V23.3344C60.5027 27.5258 62.5386 31.5777 66.0873 34.4521C69.4226 37.1517 70.9402 41.3138 70.1427 45.592C69.3194 50.0789 65.6135 53.8 61.129 54.6385C57.2589 55.3563 53.4006 54.1554 50.715 51.4205C50.2623 50.9608 49.6454 50.7016 49.0004 50.7016C48.3554 50.7016 47.7386 50.9608 47.2859 51.4205C44.6003 54.1554 40.742 55.3504 36.8742 54.6397C32.3873 53.8 28.6814 50.0789 27.8582 45.5849C27.0607 41.3138 28.5782 37.1517 31.9135 34.4521ZM66.0873 89.4409C62.5386 92.3153 60.5027 96.3672 60.5027 100.559V115.611H51.9534L46.3594 109.861C45.8504 109.338 45.1538 109.074 44.4033 109.145C43.6762 109.216 43.0218 109.614 42.623 110.227L39.1236 115.611H37.4981V100.559C37.4981 96.3672 35.4623 92.3153 31.9135 89.4409C28.5782 86.7413 27.0607 82.5792 27.8582 78.301C28.6814 73.8141 32.3873 70.093 36.8696 69.2533C40.749 68.5309 44.6003 69.7353 47.2859 72.4725C48.1912 73.3919 49.8096 73.3919 50.715 72.4725C53.4006 69.7353 57.2777 68.5367 61.1243 69.2521C65.6135 70.093 69.3194 73.8141 70.1427 78.3081C70.9402 82.5792 69.4226 86.7413 66.0873 89.4409ZM71.0989 69.7812C68.7654 67.1243 65.6061 65.2047 62.0038 64.5295C57.341 63.664 52.6242 64.798 49.0004 67.5868C45.3767 64.798 40.681 63.6628 35.99 64.5306C32.3917 65.2053 29.2341 67.1243 26.9015 69.7797C26.5541 68.1571 26.3758 66.489 26.3758 64.7851C26.3758 61.5655 27.0292 58.4091 28.2711 55.4974C30.42 57.422 33.0571 58.8125 35.9947 59.3624C40.681 60.229 45.379 59.0914 49.0004 56.305C51.8221 58.4758 55.2629 59.6508 58.8937 59.6508C59.9234 59.6508 60.9718 59.5535 62.0085 59.3612C64.9451 58.8119 67.5814 57.4219 69.7299 55.4982C70.9715 58.4096 71.625 61.5658 71.625 64.7851C71.625 66.4896 71.4466 68.1581 71.0989 69.7812Z" fill="#F04E2A"/>
<path id="Vector_3" d="M2.76604 62.816H15.7765C17.104 62.816 18.1783 61.7406 18.1783 60.4142C18.1783 59.0879 17.104 58.0125 15.7765 58.0125H2.76604C1.43849 58.0125 0.364258 59.0879 0.364258 60.4142C0.364258 61.7406 1.43849 62.816 2.76604 62.816Z" fill="#F04E2A"/>
<path id="Vector_4" d="M17.2988 49.2145L4.61673 42.1323C3.45571 41.4814 1.99447 41.9001 1.34946 43.0576C0.702101 44.2163 1.11725 45.6799 2.27593 46.326L14.958 53.4083C15.3286 53.6158 15.7297 53.7132 16.126 53.7132C16.9681 53.7132 17.7867 53.2699 18.2253 52.483C18.8726 51.3243 18.4575 49.8607 17.2988 49.2145Z" fill="#F04E2A"/>
<path id="Vector_5" d="M14.958 67.4203L2.27593 74.5025C1.11725 75.1487 0.702101 76.6123 1.34946 77.771C1.78806 78.5579 2.60664 79.0012 3.44867 79.0012C3.84506 79.0012 4.24614 78.9038 4.61673 78.6963L17.2988 71.6141C18.4575 70.9679 18.8726 69.5043 18.2253 68.3456C17.5803 67.1893 16.1167 66.7718 14.958 67.4203Z" fill="#F04E2A"/>
<path id="Vector_6" d="M95.2345 58.0125H82.224C80.8965 58.0125 79.8223 59.0879 79.8223 60.4142C79.8223 61.7406 80.8965 62.816 82.224 62.816H95.2345C96.562 62.816 97.6363 61.7406 97.6363 60.4142C97.6363 59.0879 96.562 58.0125 95.2345 58.0125Z" fill="#F04E2A"/>
<path id="Vector_7" d="M81.8749 53.7134C82.2713 53.7134 82.6724 53.616 83.043 53.4085L95.7251 46.3263C96.8837 45.6801 97.2989 44.2165 96.6515 43.0578C96.0065 41.9003 94.5429 41.4828 93.3843 42.1325L80.7022 49.2147C79.5435 49.8609 79.1284 51.3245 79.7757 52.4832C80.2143 53.2701 81.0329 53.7134 81.8749 53.7134Z" fill="#F04E2A"/>
<path id="Vector_8" d="M95.7251 74.5026L83.043 67.4204C81.882 66.7695 80.4207 67.1882 79.7757 68.3457C79.1284 69.5044 79.5435 70.9679 80.7022 71.6141L93.3843 78.6963C93.7549 78.9039 94.1559 79.0013 94.5523 79.0013C95.3943 79.0013 96.2129 78.558 96.6515 77.771C97.2989 76.6124 96.8837 75.1488 95.7251 74.5026Z" fill="#F04E2A"/>
</g>
</g>
</g>
</svg>
