<svg width="121" height="121" viewBox="0 0 121 121" fill="none" xmlns="http://www.w3.org/2000/svg">
<path d="M4.89678 23.5398L7.73892 20.6976L20.7267 33.687L16.7115 37.7019C16.2615 38.152 16.0084 38.7624 16.0084 39.3989C16.0084 40.0352 16.2615 40.6457 16.7115 41.0957L65.9585 90.3427C69.9153 94.2994 75.3013 95.889 80.4656 95.262L83.049 97.8426C85.0763 99.871 87.774 100.989 90.6428 100.989C92.6891 100.989 94.6356 100.397 96.3268 99.3347L116.703 119.711C117.64 120.648 119.159 120.648 120.097 119.711C121.034 118.773 121.034 117.255 120.097 116.317L99.7238 95.9442C100.791 94.2507 101.384 92.299 101.384 90.2476C101.384 87.3789 100.266 84.6813 98.2366 82.6539L95.6485 80.0651C96.2702 74.9046 94.6805 69.5244 90.7295 65.5727L41.4826 16.3257C41.0139 15.857 40.3997 15.6227 39.7858 15.6227C39.1717 15.6227 38.5576 15.857 38.0888 16.3257L34.0732 20.341L21.0843 7.3522L23.9256 4.51097C24.863 3.57352 24.863 2.05467 23.9256 1.11722C23.4569 0.648505 22.8427 0.414054 22.2288 0.414054C21.6147 0.414054 21.0006 0.648505 20.5318 1.11722L1.50303 20.146C0.565408 21.0836 0.565408 22.6023 1.50303 23.5398C2.44048 24.4774 3.95915 24.4774 4.89678 23.5398ZM94.8428 86.0476C95.9655 87.1703 96.5841 88.661 96.5841 90.2476C96.5841 91.8355 95.9655 93.3262 94.8428 94.4488C94.8435 94.4481 94.8421 94.4496 94.8428 94.4488C94.8421 94.4496 94.8388 94.4516 94.8381 94.4523C94.8383 94.4521 94.8379 94.4525 94.8381 94.4523C92.5923 96.6927 88.6865 96.6936 86.4427 94.4476L85.7515 93.7569C87.5461 92.9184 89.2503 91.8219 90.7295 90.3427C92.2119 88.8602 93.3101 87.1521 94.1487 85.3534L94.8428 86.0476ZM39.7858 21.4164L87.3358 68.9664C92.2927 73.9246 92.2927 81.9907 87.3358 86.9487C84.8561 89.4274 81.6006 90.666 78.3428 90.666C75.0872 90.666 71.8318 89.4274 69.3522 86.9487L21.8022 39.3989L28.223 32.9786L35.7709 25.4325C35.772 25.4314 35.7725 25.4296 35.7736 25.4285L39.7858 21.4164ZM24.8172 29.5966L24.1202 30.2934L11.1334 17.3042L17.6911 10.7465L30.6794 23.7346L24.8172 29.5966Z" fill="#F04E2A"/>
</svg>
