<svg width="79" height="121" viewBox="0 0 79 121" fill="none" xmlns="http://www.w3.org/2000/svg">
<g id="Group">
<g id="Vector">
<path d="M72.4876 56.3892L41.7431 1.63673C41.5285 1.26131 41.2264 0.951428 40.8661 0.737225C40.5059 0.523022 40.0997 0.41179 39.6871 0.41435C39.2754 0.416646 38.8709 0.529949 38.5114 0.743692C38.1519 0.957436 37.849 1.26466 37.6311 1.63673L7.60373 54.3519C3.45517 60.4991 0.955356 67.733 0.372263 75.2783C-0.210831 82.8235 1.14479 90.3956 4.29379 97.1827C7.4428 103.97 12.2665 109.716 18.2477 113.805C24.2289 117.895 31.1421 120.173 38.2463 120.396C45.3504 120.619 52.3777 118.779 58.5746 115.072C64.7716 111.365 69.9046 105.931 73.4234 99.3533C76.9423 92.7755 78.7142 85.3017 78.5494 77.733C78.3845 70.1643 76.2891 62.786 72.4876 56.3892ZM39.4002 115.42C33.0509 115.411 26.8276 113.533 21.4183 109.991C16.0089 106.45 11.6244 101.384 8.74931 95.354C5.87427 89.3238 4.62077 82.5641 5.12742 75.8224C5.63407 69.0806 7.88112 62.6194 11.6201 57.1532L39.6871 7.90143L68.3756 58.834C71.6797 64.3759 73.5266 70.761 73.7235 77.3228C73.9203 83.8845 72.4598 90.3823 69.4946 96.1376C66.5293 101.893 62.168 106.695 56.8659 110.042C51.5639 113.389 45.5155 115.158 39.3524 115.165L39.4002 115.42ZM25.6775 102.687C25.4563 103.056 25.1527 103.36 24.794 103.574C24.4352 103.787 24.0323 103.902 23.6215 103.909C23.1837 103.919 22.7523 103.795 22.3783 103.553C12.4808 97.1862 9.851 79.1051 9.851 78.3411C9.76777 77.6744 9.93056 76.9993 10.3051 76.4579C10.6796 75.9164 11.2367 75.5508 11.8592 75.438C12.1701 75.3874 12.4873 75.4026 12.7926 75.4827C13.0979 75.5629 13.3854 75.7065 13.6386 75.9052C13.8918 76.1039 14.1056 76.3539 14.268 76.6408C14.4303 76.9277 14.5379 77.2459 14.5846 77.5771C14.5846 77.5771 17.0709 94.0793 25.0559 99.1725C25.5624 99.562 25.9092 100.144 26.0249 100.798C26.1405 101.452 26.0162 102.128 25.6775 102.687ZM41.2649 107.525C41.3322 108.194 41.1487 108.863 40.7547 109.388C40.3606 109.912 39.7878 110.25 39.1611 110.327H37.2485C34.586 110.413 31.9535 109.707 29.6461 108.289C29.3641 108.118 29.1179 107.887 28.9223 107.611C28.7268 107.335 28.5861 107.02 28.5088 106.684C28.4314 106.348 28.4191 105.999 28.4726 105.658C28.526 105.317 28.6441 104.991 28.8196 104.7C28.9952 104.409 29.2245 104.16 29.4936 103.966C29.7627 103.773 30.0659 103.64 30.3848 103.575C30.7037 103.511 31.0316 103.516 31.3485 103.591C31.6654 103.666 31.9647 103.809 32.2281 104.011C34.2194 105.086 36.4743 105.477 38.683 105.132C39.0022 105.097 39.3248 105.132 39.6308 105.235C39.9368 105.338 40.2196 105.507 40.4617 105.732C40.7038 105.956 40.9 106.231 41.0382 106.54C41.1764 106.848 41.2535 107.184 41.2649 107.525Z" fill="#F04E2A"/>
<path d="M72.4876 56.3892L41.7431 1.63673C41.5285 1.26131 41.2264 0.951428 40.8661 0.737225C40.5059 0.523022 40.0997 0.41179 39.6871 0.41435C39.2754 0.416646 38.8709 0.529949 38.5114 0.743692C38.1519 0.957436 37.849 1.26466 37.6311 1.63673L7.60373 54.3519C3.45517 60.4991 0.955356 67.733 0.372263 75.2783C-0.210831 82.8235 1.14479 90.3956 4.29379 97.1827C7.4428 103.97 12.2665 109.716 18.2477 113.805C24.2289 117.895 31.1421 120.173 38.2463 120.396C45.3504 120.619 52.3777 118.779 58.5746 115.072C64.7716 111.365 69.9046 105.931 73.4234 99.3533C76.9423 92.7755 78.7142 85.3017 78.5494 77.733C78.3845 70.1643 76.2891 62.786 72.4876 56.3892ZM39.4002 115.42C33.0509 115.411 26.8276 113.533 21.4183 109.991C16.0089 106.45 11.6244 101.384 8.74931 95.354C5.87427 89.3238 4.62077 82.5641 5.12742 75.8224C5.63407 69.0806 7.88112 62.6194 11.6201 57.1532L39.6871 7.90143L68.3756 58.834C71.6797 64.3759 73.5266 70.761 73.7235 77.3228C73.9203 83.8845 72.4598 90.3823 69.4946 96.1376C66.5293 101.893 62.168 106.695 56.8659 110.042C51.5639 113.389 45.5155 115.158 39.3524 115.165L39.4002 115.42ZM25.6775 102.687C25.4563 103.056 25.1527 103.36 24.794 103.574C24.4352 103.787 24.0323 103.902 23.6215 103.909C23.1837 103.919 22.7523 103.795 22.3783 103.553C12.4808 97.1862 9.851 79.1051 9.851 78.3411C9.76777 77.6744 9.93056 76.9993 10.3051 76.4579C10.6796 75.9164 11.2367 75.5508 11.8592 75.438C12.1701 75.3874 12.4873 75.4026 12.7926 75.4827C13.0979 75.5629 13.3854 75.7065 13.6386 75.9052C13.8918 76.1039 14.1056 76.3539 14.268 76.6408C14.4303 76.9277 14.5379 77.2459 14.5846 77.5771C14.5846 77.5771 17.0709 94.0793 25.0559 99.1725C25.5624 99.562 25.9092 100.144 26.0249 100.798C26.1405 101.452 26.0162 102.128 25.6775 102.687ZM41.2649 107.525C41.3322 108.194 41.1487 108.863 40.7547 109.388C40.3606 109.912 39.7878 110.25 39.1611 110.327H37.2485C34.586 110.413 31.9535 109.707 29.6461 108.289C29.3641 108.118 29.1179 107.887 28.9223 107.611C28.7268 107.335 28.5861 107.02 28.5088 106.684C28.4314 106.348 28.4191 105.999 28.4726 105.658C28.526 105.317 28.6441 104.991 28.8196 104.7C28.9952 104.409 29.2245 104.16 29.4936 103.966C29.7627 103.773 30.0659 103.64 30.3848 103.575C30.7037 103.511 31.0316 103.516 31.3485 103.591C31.6654 103.666 31.9647 103.809 32.2281 104.011C34.2194 105.086 36.4743 105.477 38.683 105.132C39.0022 105.097 39.3248 105.132 39.6308 105.235C39.9368 105.338 40.2196 105.507 40.4617 105.732C40.7038 105.956 40.9 106.231 41.0382 106.54C41.1764 106.848 41.2535 107.184 41.2649 107.525Z" stroke="#F04E2A"/>
</g>
</g>
</svg>
