<svg width="97" height="121" viewBox="0 0 97 121" fill="none" xmlns="http://www.w3.org/2000/svg">
<path d="M95.984 20.1323C95.954 19.5909 95.7682 19.0698 95.4489 18.6317C95.1295 18.1936 94.6903 17.8571 94.1841 17.663L49.7515 0.601329C49.1024 0.35164 48.3839 0.35164 47.7349 0.601329L3.3022 17.6671C2.79601 17.8612 2.35678 18.1977 2.03743 18.6358C1.71809 19.0739 1.53226 19.5951 1.50234 20.1364C0.218295 42.5125 -0.401779 62.4578 5.03484 79.8939C11.429 100.422 25.4698 113.641 47.9434 120.299C48.4655 120.452 49.0208 120.452 49.5429 120.299C72.0165 113.641 86.0573 100.422 92.4515 79.8939C97.8881 62.4578 97.268 42.5125 95.984 20.1323ZM87.0807 78.2244C81.2792 96.8348 69.0849 108.428 48.7432 114.665C28.4015 108.428 16.2071 96.8348 10.4056 78.2244C5.39152 62.145 5.836 43.3521 7.01578 22.2669L48.7432 6.23823L90.4705 22.2669C91.6503 43.3521 92.0934 62.145 87.0807 78.2244ZM75.1978 40.9198C75.7249 41.4476 76.0209 42.1631 76.0209 42.909C76.0209 43.6549 75.7249 44.3704 75.1978 44.8982L46.4673 73.6273C46.2063 73.889 45.8962 74.0966 45.5549 74.2382C45.2136 74.3798 44.8476 74.4528 44.4781 74.4528C44.1085 74.4528 43.7426 74.3798 43.4013 74.2382C43.0599 74.0966 42.7499 73.889 42.4889 73.6273L27.2615 58.3999C26.7339 57.8723 26.4375 57.1568 26.4375 56.4107C26.4375 55.6646 26.7339 54.9491 27.2615 54.4215C27.789 53.8939 28.5045 53.5976 29.2506 53.5976C29.9967 53.5976 30.7122 53.8939 31.2398 54.4215L44.4822 67.6639L71.2194 40.9198C71.7473 40.3927 72.4627 40.0967 73.2086 40.0967C73.9546 40.0967 74.67 40.3927 75.1978 40.9198Z" fill="#F04E2A"/>
</svg>
