<svg width="140" height="141" viewBox="0 0 140 141" fill="none" xmlns="http://www.w3.org/2000/svg">
<rect width="140" height="140" transform="translate(0 0.120117)" fill="white"/>
<path fill-rule="evenodd" clip-rule="evenodd" d="M124 70.1201C124 99.9435 99.8234 124.12 70 124.12C56.8706 124.12 44.8356 119.434 35.476 111.644L111.524 35.5961C119.314 44.9557 124 56.9907 124 70.1201ZM31.0808 107.554L107.434 31.2009C97.7268 21.8619 84.5339 16.1201 70 16.1201C40.1766 16.1201 16 40.2967 16 70.1201C16 84.654 21.7418 97.8469 31.0808 107.554ZM130 70.1201C130 103.257 103.137 130.12 70 130.12C36.8629 130.12 10 103.257 10 70.1201C10 36.983 36.8629 10.1201 70 10.1201C103.137 10.1201 130 36.983 130 70.1201Z" fill="black"/>
<path d="M58.0501 88.7701C58.1501 88.7701 58.2501 88.7701 58.3501 88.7701H64.2501V76.7701L60.0501 72.4701C59.4501 71.8701 59.4501 70.8701 60.0501 70.2701C60.6501 69.6701 61.6501 69.6701 62.2501 70.2701L66.9501 74.9701C67.2501 75.2701 67.4501 75.6701 67.4501 76.0701V88.6701H72.6501V76.1701C72.6501 75.7701 72.8501 75.3701 73.1501 75.0701L77.8501 70.3701C78.4501 69.7701 79.4501 69.7701 80.0501 70.3701C80.6501 70.9701 80.6501 71.9701 80.0501 72.5701L75.8501 76.8701V88.7701H81.7501C81.8501 88.7701 81.9501 88.7701 82.1501 88.7701C83.2501 84.3701 85.1501 80.1701 87.9501 76.2701C90.4501 72.6701 91.8501 68.3701 91.8501 63.9701C91.8501 57.9701 89.4501 52.3701 85.0501 48.2701C80.6501 44.1701 74.9501 42.0701 68.8501 42.4701C58.0501 43.1701 49.3501 51.7701 48.6501 62.5701C48.3501 67.6701 49.7501 72.5701 52.7501 76.6701C55.1501 80.2701 57.0501 84.3701 58.0501 88.7701Z" fill="black"/>
<path d="M69.9501 36.1703C70.8501 36.1703 71.5501 35.4703 71.5501 34.5703V31.6703C71.5501 30.7703 70.8501 30.0703 69.9501 30.0703C69.0501 30.0703 68.3501 30.7703 68.3501 31.6703V34.5703C68.3501 35.4703 69.0501 36.1703 69.9501 36.1703Z" fill="black"/>
<path d="M51.5504 41.1703C51.8504 41.5703 52.3504 41.7703 52.8504 41.7703C53.1504 41.7703 53.4504 41.6703 53.7504 41.4703C54.4504 40.9703 54.6504 39.9703 54.0504 39.2703L52.3504 36.8703C51.8504 36.1703 50.8504 36.0703 50.1504 36.5703C49.4504 37.0703 49.2504 38.0703 49.8504 38.7703L51.5504 41.1703Z" fill="black"/>
<path d="M38.9503 55.3702L41.7503 56.2702C41.9503 56.3702 42.0503 56.3702 42.2503 56.3702C42.9503 56.3702 43.5503 55.9702 43.7503 55.2702C44.0503 54.4702 43.5503 53.5702 42.7503 53.2702L39.9503 52.3702C39.1503 52.0702 38.2503 52.5702 37.9503 53.3702C37.6503 54.2702 38.1503 55.1702 38.9503 55.3702Z" fill="black"/>
<path d="M39.4503 75.3702C39.6503 75.3702 39.7503 75.3702 39.9503 75.2702L42.7503 74.3702C43.5503 74.0702 44.0503 73.2702 43.7503 72.3702C43.4503 71.5702 42.6503 71.0702 41.7503 71.3702L38.9503 72.2702C38.1503 72.5702 37.6503 73.3702 37.9503 74.2702C38.1503 74.8702 38.7503 75.3702 39.4503 75.3702Z" fill="black"/>
<path d="M97.2501 74.3702L100.05 75.2702C100.25 75.3702 100.35 75.3702 100.55 75.3702C101.25 75.3702 101.85 74.9702 102.05 74.2702C102.35 73.4702 101.85 72.5702 101.05 72.2702L98.2501 71.3702C97.4501 71.0702 96.5501 71.5702 96.2501 72.3702C95.9501 73.1702 96.4501 74.0702 97.2501 74.3702Z" fill="black"/>
<path d="M97.7501 56.3702C97.9501 56.3702 98.0501 56.3702 98.2501 56.2702L101.05 55.3702C101.85 55.0702 102.35 54.2702 102.05 53.3702C101.75 52.5702 100.95 52.0702 100.05 52.3702L97.2501 53.2702C96.4501 53.5702 95.9501 54.3702 96.2501 55.2702C96.4501 55.9702 97.0501 56.3702 97.7501 56.3702Z" fill="black"/>
<path d="M86.1501 41.4703C86.4501 41.6703 86.7501 41.7703 87.0501 41.7703C87.5501 41.7703 88.0501 41.5703 88.3501 41.1703L90.0501 38.7703C90.5501 38.0703 90.4501 37.0703 89.7501 36.5703C89.0501 36.0703 88.0501 36.1703 87.5501 36.8703L85.8501 39.2703C85.3501 39.9703 85.4501 40.9703 86.1501 41.4703Z" fill="black"/>
<path d="M83.2504 93.5701C83.2504 92.5701 82.4504 91.8701 81.5504 91.8701H58.3504C57.3504 91.8701 56.6504 92.6701 56.6504 93.5701V94.1701C56.6504 95.1701 57.4504 95.8701 58.3504 95.8701H81.5504C82.5504 95.8701 83.2504 95.0701 83.2504 94.1701V93.5701Z" fill="black"/>
<path d="M83.2504 101.27V100.67C83.2504 99.6702 82.4504 98.9702 81.5504 98.9702H58.3504C57.3504 98.9702 56.6504 99.7702 56.6504 100.67V101.27C56.6504 102.27 57.4504 102.97 58.3504 102.97H81.5504C82.5504 102.97 83.2504 102.27 83.2504 101.27Z" fill="black"/>
<path d="M65.15 110.17H74.75C77.15 110.17 79.25 108.47 79.65 106.17H60.25C60.65 108.47 62.75 110.17 65.15 110.17Z" fill="black"/>
</svg>
