<svg width="29" height="31" viewBox="0 0 29 31" fill="none" xmlns="http://www.w3.org/2000/svg">
<path d="M27.1313 10.4141C27.1263 10.4141 27.1193 10.4141 27.1113 10.4141H19.1113C18.5583 10.4141 18.1113 9.96607 18.1113 9.41407V1.41407C18.1113 1.01007 18.3543 0.645071 18.7283 0.490071C19.1033 0.337071 19.5323 0.420071 19.8183 0.707071L27.7103 8.59807C27.9653 8.77907 28.1313 9.07707 28.1313 9.41407C28.1313 9.96607 27.6833 10.4141 27.1313 10.4141ZM20.1113 8.41407H24.6973L20.1113 3.82807V8.41407Z" fill="#F04E2A"/>
<path d="M27.1113 30.4141H5.11133C4.55833 30.4141 4.11133 29.9661 4.11133 29.4141V26.3141C4.11133 26.0481 4.21733 25.7931 4.40633 25.6051C4.59333 25.4181 4.84733 25.3141 5.11133 25.3141C5.11333 25.3141 5.11533 25.3141 5.11733 25.3141L17.9573 25.3941C19.2483 25.3941 20.2943 24.3551 20.3023 23.0781L20.3423 16.5681C20.3493 15.2831 19.3103 14.2311 18.0273 14.2241L5.10533 14.1441C4.55533 14.1411 4.11133 13.6941 4.11133 13.1441V1.41406C4.11133 0.862063 4.55833 0.414062 5.11133 0.414062H19.1113C19.3773 0.414062 19.6313 0.519062 19.8183 0.707062L27.8183 8.70706C28.0063 8.89406 28.1113 9.14906 28.1113 9.41406V29.4141C28.1113 29.9661 27.6643 30.4141 27.1113 30.4141ZM6.11133 28.4141H26.1113V9.82806L18.6973 2.41406H6.11133V12.1501L18.0373 12.2241C20.4233 12.2371 22.3543 14.1901 22.3423 16.5791L22.3023 23.0901C22.2883 25.4631 20.3453 27.3941 17.9703 27.3941L6.11133 27.3201V28.4141Z" fill="#F04E2A"/>
<path d="M17.9691 27.394C17.9691 27.394 17.9471 27.394 17.9451 27.394L4.29907 27.304C1.91907 27.291 -0.0129348 25.341 6.52231e-05 22.958L0.0400652 16.437C0.0660652 14.067 2.01007 12.144 4.37207 12.144H5.11107L18.0371 12.224C19.1931 12.23 20.2781 12.687 21.0921 13.51C21.9051 14.333 22.3481 15.423 22.3421 16.58L22.3021 23.091C22.2881 25.463 20.3441 27.394 17.9691 27.394ZM4.39107 14.144C3.10107 14.144 2.05507 15.181 2.04007 16.455L2.00007 22.97C1.99307 24.249 3.03207 25.297 4.31607 25.304L5.12207 25.314L17.9561 25.394L17.9691 26.394V25.394C19.2471 25.394 20.2931 24.355 20.3011 23.078L20.3411 16.568C20.3441 15.945 20.1061 15.359 19.6681 14.916C19.2301 14.474 18.6471 14.228 18.0251 14.225L4.39107 14.144Z" fill="#F04E2A"/>
<path d="M4.67969 22.427V17.416H6.30369C6.91869 17.416 7.31969 17.441 7.50669 17.491C7.79369 17.566 8.03369 17.73 8.22769 17.981C8.42169 18.233 8.51869 18.558 8.51869 18.957C8.51869 19.265 8.46269 19.523 8.35069 19.733C8.23969 19.942 8.09769 20.107 7.92569 20.227C7.75269 20.346 7.57769 20.426 7.40069 20.464C7.15969 20.512 6.80969 20.536 6.35169 20.536H5.69169V22.426H4.67969V22.427ZM5.69169 18.264V19.686H6.24569C6.64469 19.686 6.91169 19.66 7.04569 19.607C7.18069 19.555 7.28569 19.473 7.36169 19.361C7.43769 19.249 7.47569 19.119 7.47569 18.971C7.47569 18.789 7.42169 18.638 7.31569 18.52C7.20869 18.401 7.07269 18.328 6.90869 18.298C6.78869 18.275 6.54569 18.264 6.18069 18.264H5.69169Z" fill="#F04E2A"/>
<path d="M9.3457 17.416H11.1947C11.6117 17.416 11.9297 17.448 12.1487 17.512C12.4427 17.598 12.6947 17.752 12.9037 17.973C13.1137 18.194 13.2727 18.465 13.3827 18.785C13.4917 19.105 13.5467 19.5 13.5467 19.969C13.5467 20.382 13.4957 20.737 13.3937 21.035C13.2677 21.4 13.0887 21.695 12.8567 21.92C12.6817 22.091 12.4447 22.224 12.1457 22.32C11.9227 22.391 11.6247 22.426 11.2497 22.426H9.3467V17.416H9.3457ZM10.3577 18.264V21.583H11.1127C11.3957 21.583 11.5987 21.567 11.7247 21.535C11.8887 21.494 12.0247 21.425 12.1327 21.327C12.2407 21.229 12.3287 21.068 12.3977 20.844C12.4657 20.619 12.5007 20.313 12.5007 19.926C12.5007 19.539 12.4667 19.241 12.3977 19.034C12.3287 18.827 12.2337 18.664 12.1107 18.547C11.9877 18.43 11.8317 18.352 11.6427 18.311C11.5007 18.279 11.2247 18.263 10.8117 18.263L10.3577 18.264Z" fill="#F04E2A"/>
<path d="M14.4121 22.427V17.416H17.8471V18.264H15.4241V19.45H17.5161V20.298H15.4241V22.427H14.4121Z" fill="#F04E2A"/>
</svg>
