<svg width="140" height="141" viewBox="0 0 140 141" fill="none" xmlns="http://www.w3.org/2000/svg">
<rect width="140" height="140" transform="translate(0 0.120117)" fill="white"/>
<path fill-rule="evenodd" clip-rule="evenodd" d="M124 70.1201C124 99.9435 99.8234 124.12 70 124.12C56.8706 124.12 44.8356 119.434 35.476 111.644L111.524 35.5961C119.314 44.9557 124 56.9907 124 70.1201ZM31.0808 107.554L107.434 31.2009C97.7268 21.8619 84.5339 16.1201 70 16.1201C40.1766 16.1201 16 40.2967 16 70.1201C16 84.654 21.7418 97.8469 31.0808 107.554ZM130 70.1201C130 103.257 103.137 130.12 70 130.12C36.8629 130.12 10 103.257 10 70.1201C10 36.983 36.8629 10.1201 70 10.1201C103.137 10.1201 130 36.983 130 70.1201Z" fill="black"/>
<path d="M71.1866 43.705L82.0963 46.6282C82.7625 46.8067 83.3961 46.441 83.5746 45.7747L84.5341 42.1937C84.9135 40.7779 84.0599 39.2996 82.6442 38.9203L74.566 36.7557C73.1503 36.3764 71.672 37.2299 71.2926 38.6456L70.3331 42.2267C70.1546 42.8929 70.5204 43.5265 71.1866 43.705Z" fill="black"/>
<path d="M83.3001 70.7827L58.2329 64.0659L52.8551 84.1364L77.9223 90.8531L83.3001 70.7827Z" fill="black"/>
<path d="M84.1991 67.0962C84.8685 64.5978 84.6829 61.9595 83.7194 59.5591L81.4712 53.9583C80.9285 52.6525 80.6803 51.2471 80.5986 49.8863L70.7716 47.2532C70.0815 48.4964 69.1028 49.4838 67.9799 50.3433L63.2325 54.0697C61.1979 55.6668 59.718 57.8587 59.0486 60.3571L58.9593 60.6902L84.1098 67.4293L84.1991 67.0962Z" fill="black"/>
<path d="M50.3338 93.5469C49.5081 96.6283 51.3594 99.7128 54.3575 100.516L68.3485 104.265C71.4298 105.091 74.5144 103.239 75.3177 100.241L76.9244 94.2452L51.9404 87.5508L50.3338 93.5469Z" fill="black"/>
<path d="M41.7174 86.0616C41.9776 86.7561 42.5769 87.1845 43.2432 87.363C43.7428 87.4969 44.2039 87.4419 44.6872 87.3036C45.8041 86.7996 46.3277 85.5117 45.9293 84.3339C43.6588 78.8162 43.2162 72.8065 44.7782 66.977C46.3402 61.1474 49.6452 56.1418 54.3702 52.4987C55.3652 51.7834 55.578 50.323 54.7795 49.3057C54.0642 48.3107 52.6038 48.098 51.5865 48.8965C46.0777 53.133 42.1109 58.943 40.2811 65.772C38.5345 72.6232 39.0649 79.6383 41.7174 86.0616Z" fill="black"/>
<path d="M33.4231 93.0327C33.9227 93.1665 34.467 93.1339 34.9727 92.9123C36.0896 92.4083 36.6355 91.0372 36.0482 89.8979C32.3146 81.846 31.5703 72.6315 33.8687 64.0536C36.1671 55.4758 41.419 47.8679 48.6783 42.7615C49.6733 42.0463 49.9471 40.6915 49.2541 39.6132C48.5389 38.6183 47.1841 38.3445 46.1058 39.0374C37.9348 44.8813 32.1044 53.3161 29.5159 62.9765C26.9273 72.637 27.7593 82.8569 31.9583 91.8368C32.2408 92.4481 32.8401 92.8765 33.4231 93.0327Z" fill="black"/>
<path d="M83.329 97.6576C83.6562 98.1023 84.0503 98.2972 84.5499 98.4311C85.2162 98.6096 85.9494 98.5383 86.522 98.0669C92.0308 93.8304 95.9976 88.0204 97.8274 81.1914C99.6572 74.3625 99.2102 67.3697 96.4743 60.9241C95.9703 59.8072 94.6824 59.2836 93.5046 59.682C92.3876 60.1861 91.8641 61.4739 92.2625 62.6518C94.533 68.1694 94.9756 74.1791 93.4136 80.0087C91.8515 85.8383 88.5243 90.9271 83.7992 94.5703C82.8043 95.2856 82.6138 96.6627 83.329 97.6576Z" fill="black"/>
<path d="M104.301 83.0153C102.003 91.5931 96.7509 99.201 89.4916 104.307C88.4966 105.023 88.2228 106.377 88.9158 107.456C89.2429 107.9 89.698 108.201 90.1976 108.335C90.7806 108.491 91.5138 108.42 92.0641 108.031C100.13 102.249 106.043 93.8361 108.609 84.2589C111.176 74.6817 110.366 64.3785 106.167 55.3986C105.663 54.2817 104.292 53.7358 103.153 54.3231C102.036 54.8272 101.49 56.1983 102.077 57.3375C105.855 65.2228 106.622 74.3542 104.301 83.0153Z" fill="black"/>
</svg>
