<svg width="140" height="141" viewBox="0 0 140 141" fill="none" xmlns="http://www.w3.org/2000/svg">
<rect width="140" height="140" transform="translate(0 0.120117)" fill="white"/>
<path fill-rule="evenodd" clip-rule="evenodd" d="M70 124.12C99.8234 124.12 124 99.9435 124 70.1201C124 40.2967 99.8234 16.1201 70 16.1201C40.1766 16.1201 16 40.2967 16 70.1201C16 99.9435 40.1766 124.12 70 124.12ZM70 130.12C103.137 130.12 130 103.257 130 70.1201C130 36.983 103.137 10.1201 70 10.1201C36.8629 10.1201 10 36.983 10 70.1201C10 103.257 36.8629 130.12 70 130.12Z" fill="#E9502E"/>
<path d="M62.9067 106.548C73.1624 108.538 82.0404 100.731 82.0404 90.7819C82.0404 85.5775 79.4382 80.8324 75.4584 77.9241V42.8712C75.4584 37.6668 71.3255 33.3809 65.9681 33.3809C60.7638 33.3809 56.4778 37.6668 56.4778 42.8712V77.9241C51.7327 81.4446 48.9774 87.4144 50.355 94.1494C51.5796 100.272 56.6309 105.323 62.9067 106.548ZM58.4677 80.8324L59.8453 79.7609V43.0242C59.8453 39.6567 62.6006 37.0545 65.815 37.0545C69.1826 37.0545 71.9378 39.8098 71.9378 43.0242V79.7609L73.3154 80.8324C76.5299 83.1284 78.3667 86.9551 78.3667 90.9349C78.3667 94.3025 76.9891 97.5169 74.6931 99.813C72.244 102.109 69.1826 103.487 65.815 103.487C59.5392 103.487 54.641 99.0476 53.5695 93.5371C52.8041 88.4858 54.641 83.5876 58.4677 80.8324Z" fill="#E9502E"/>
<path d="M65.968 99.8127C68.4171 99.8127 70.7131 98.8943 72.3969 97.2106C74.0806 95.5268 74.9991 93.2308 74.9991 90.7816C74.9991 84.6589 69.7947 82.669 68.4171 81.4444V55.5757H63.3658V81.4444C62.2943 82.669 55.5592 85.1181 57.0899 92.6185C57.8553 96.5983 61.3759 99.8127 65.968 99.8127Z" fill="#E9502E"/>
<path d="M88.1629 43.7896H79.438V47.3101H88.1629C89.0814 47.3101 89.8467 46.5448 89.8467 45.6264C89.9998 44.5549 89.2344 43.7896 88.1629 43.7896Z" fill="#E9502E"/>
<path d="M86.4794 54.8107C86.4794 53.8923 85.7141 53.127 84.7957 53.127H79.5913V56.6476H84.7957C85.7141 56.4945 86.4794 55.7291 86.4794 54.8107Z" fill="#E9502E"/>
<path d="M90 63.9948C90 63.0764 89.2347 62.311 88.3163 62.311H79.5913V65.8316H88.3163C89.2347 65.8316 90 64.9132 90 63.9948Z" fill="#E9502E"/>
</svg>
