<svg width="26" height="13" viewBox="0 0 26 13" fill="none" xmlns="http://www.w3.org/2000/svg">
<path fill-rule="evenodd" clip-rule="evenodd" d="M19.4148 12.5201L16.0115 12.5206C15.4295 12.5201 14.9532 12.0449 14.9527 11.4618C14.9527 10.8782 15.4284 10.4024 16.012 10.4024L19.4154 10.4019C20.4852 10.4024 21.4879 9.99003 22.2389 9.24009C22.9426 8.53641 23.3594 7.60863 23.4123 6.62854C23.4679 5.59945 23.0841 4.59568 22.3325 3.80225L22.331 3.80065L22.331 3.80061C22.3034 3.772 22.2764 3.7439 22.2483 3.7158C21.4191 2.88658 20.2831 2.4125 19.1142 2.41195L16.012 2.41195C15.4284 2.41195 14.9538 1.93622 14.9527 1.35257C14.9532 1.07011 15.0633 0.803613 15.2632 0.603741C15.4631 0.403868 15.7296 0.293746 16.012 0.293195L19.1142 0.293195C20.8998 0.293746 22.637 1.04974 23.8687 2.34423C25.0245 3.56493 25.6136 5.12537 25.5277 6.73976C25.4468 8.24239 24.8097 9.66241 23.736 10.7361C22.5853 11.8869 21.0518 12.5195 19.4148 12.5201ZM9.98509 12.52L6.86257 12.5206C5.08189 12.5206 3.36618 11.7849 2.12125 10.4739C0.968266 9.25599 0.381867 7.6972 0.470515 6.08446C0.552556 4.58404 1.18851 3.16731 2.26276 2.09307C3.40197 0.93293 4.93598 0.294221 6.58286 0.294772L9.98564 0.294771C10.2687 0.294771 10.5341 0.404893 10.7339 0.604765C10.9338 0.804637 11.0439 1.07113 11.0445 1.3536C11.0439 1.63606 10.9338 1.90256 10.7339 2.10243C10.5341 2.3023 10.2676 2.41243 9.98509 2.41298L6.58231 2.41298C5.50862 2.41298 4.50815 2.82979 3.76758 3.58358C3.05894 4.29222 2.63883 5.2222 2.58542 6.20064C2.52925 7.22698 2.91138 8.22799 3.65966 9.01812C4.49109 9.87708 5.66058 10.4024 6.86422 10.4024L9.9862 10.4024C10.5682 10.4018 11.0445 10.877 11.045 11.4612C11.0439 12.0448 10.5687 12.52 9.98509 12.52ZM18.629 5.35268L7.36792 5.35268C7.08546 5.35323 6.81896 5.46335 6.61909 5.66322C6.41922 5.86309 6.30909 6.12959 6.30854 6.41205C6.30854 6.97808 6.80134 7.47088 7.36737 7.47088L18.6279 7.47033C19.2116 7.47033 19.6873 6.9946 19.6873 6.41095C19.6868 6.11968 19.5684 5.85483 19.3768 5.66322C19.1852 5.47161 18.9209 5.35268 18.629 5.35268Z" fill="#E9502E"/>
</svg>
