<svg width="26" height="27" viewBox="0 0 26 27" fill="none" xmlns="http://www.w3.org/2000/svg">
<path fill-rule="evenodd" clip-rule="evenodd" d="M26 13.4141C26 6.23397 20.1801 0.414062 13 0.414062C5.8199 0.414062 0 6.23397 0 13.4141C0 20.5942 5.8199 26.4141 13 26.4141C20.1801 26.4141 26 20.5942 26 13.4141ZM1.51274 13.4141C1.51274 7.06949 6.65542 1.9268 13 1.9268C19.3446 1.9268 24.4873 7.06949 24.4873 13.4141C24.4873 19.7586 19.3446 24.9013 13 24.9013C6.65542 24.9013 1.51274 19.7586 1.51274 13.4141ZM10.276 19.1773L18.891 14.2038C19.4974 13.854 19.4967 12.9751 18.891 12.6247L10.276 7.65113C9.66647 7.29879 8.90882 7.73666 8.90882 8.44005V18.3884C8.90882 19.0918 9.66647 19.5297 10.276 19.1773Z" fill="#E9502E"/>
</svg>
