<svg width="30" height="24" viewBox="0 0 30 24" fill="none" xmlns="http://www.w3.org/2000/svg">
<path d="M6 0.825684C2.68901 0.825684 0 3.51469 0 6.82568V17.3257C0 20.6367 2.68901 23.3257 6 23.3257H24C27.311 23.3257 30 20.6367 30 17.3257V6.82568C30 3.51469 27.311 0.825684 24 0.825684H6ZM6 2.32568H24C26.5059 2.32568 28.5 4.31974 28.5 6.82568V17.3257C28.5 19.8316 26.5059 21.8257 24 21.8257H6C3.49406 21.8257 1.5 19.8316 1.5 17.3257V6.82568C1.5 4.31974 3.49406 2.32568 6 2.32568ZM11.5664 6.82568C11.3778 6.84048 11.2018 6.92599 11.0736 7.06507C10.9454 7.20415 10.8744 7.38652 10.875 7.57568V16.5757C10.8742 16.763 10.9435 16.9438 11.0693 17.0826C11.1951 17.2214 11.3682 17.3081 11.5547 17.3257C11.7042 17.3424 11.8552 17.3138 11.9883 17.2436L20.2383 12.7436C20.3584 12.6797 20.4588 12.5843 20.5288 12.4677C20.5989 12.3511 20.6359 12.2176 20.6359 12.0815C20.6359 11.9455 20.5989 11.812 20.5288 11.6954C20.4588 11.5787 20.3584 11.4834 20.2383 11.4194L11.9883 6.91943C11.8599 6.84747 11.7132 6.81487 11.5664 6.82568ZM12.375 8.853L18.293 12.0757L12.375 15.3101V8.853Z" fill="#E9502E"/>
</svg>
